<svg xmlns="http://www.w3.org/2000/svg" viewBox="0 9.600000381469727 395.1000061035156 42.099998474121094" data-asc="0.859" width="395.1000061035156" height="42.099998474121094"><defs/><g fill="#000000"><g transform="translate(0, 0)"><path d="M7.45 51.70Q5.25 51.70 3.30 50.85Q1.35 50 0 48.35L2.35 45.20L2.65 44.80L2.95 45.05Q3.05 45.45 3.20 45.83Q3.35 46.20 3.90 46.80Q4.55 47.35 5.42 47.70Q6.30 48.05 7.40 48.05Q8.85 48.05 9.90 47.43Q10.95 46.80 11.53 45.48Q12.10 44.15 12.10 42.05L12.10 23.40L3.75 23.40L3.75 19.95L16.45 19.95L16.45 41.75Q16.45 45.25 15.20 47.45Q13.95 49.65 11.93 50.68Q9.90 51.70 7.45 51.70L7.45 51.70M13.95 15.50Q12.75 15.50 11.90 14.65Q11.05 13.80 11.05 12.65Q11.05 11.40 11.88 10.60Q12.70 9.80 13.95 9.80Q15.10 9.80 15.98 10.65Q16.85 11.50 16.85 12.65Q16.85 13.80 15.98 14.65Q15.10 15.50 13.95 15.50ZM33.15 43.50Q29.25 43.50 27.15 41.73Q25.05 39.95 25.05 37.15Q25.05 35.30 25.93 33.78Q26.80 32.25 28.40 31.20Q30 30.15 32.20 29.58Q34.40 29 37.05 29Q37.75 29 38.53 29Q39.30 29 40.17 29.08Q41.05 29.15 41.95 29.25L42.10 32.40Q41.30 32.30 40.45 32.23Q39.60 32.15 38.78 32.13Q37.95 32.10 37.20 32.10Q35.35 32.10 33.88 32.40Q32.40 32.70 31.40 33.28Q30.40 33.85 29.85 34.73Q29.30 35.60 29.30 36.75Q29.30 37.75 29.65 38.40Q30 39.05 30.60 39.45Q31.20 39.85 32 40.03Q32.80 40.20 33.75 40.20Q35.55 40.20 36.92 39.63Q38.30 39.05 39.28 37.90Q40.25 36.75 40.75 35.08Q41.25 33.40 41.25 31.15Q41.25 27.95 40.53 26.15Q39.80 24.35 38.35 23.63Q36.90 22.90 34.70 22.90Q33.05 22.90 31.52 23.48Q30 24.05 28.65 25.40L26.45 22.75Q28.20 21.05 30.40 20.25Q32.60 19.45 34.95 19.45Q37.20 19.45 39.05 19.98Q40.90 20.50 42.28 21.75Q43.65 23 44.40 25.10Q45.15 27.20 45.15 30.40L45.15 42.95L40.60 42.95L40.60 39.80Q39.95 40.90 39.08 41.63Q38.20 42.35 37.23 42.75Q36.25 43.15 35.20 43.33Q34.15 43.50 33.15 43.50ZM50.15 40.20L63.85 23.60L51.15 23.60L51.15 19.95L69.30 19.95L69.30 22.80L55.80 39.35L68.25 39.35Q69.10 39.35 69.45 39.25Q69.80 39.15 70.10 38.85L70.45 38.85L70.45 39.35L70.45 42.95L50.15 42.95L50.15 40.20ZM83.15 43.50Q79.25 43.50 77.15 41.73Q75.05 39.95 75.05 37.15Q75.05 35.30 75.92 33.78Q76.80 32.25 78.40 31.20Q80 30.15 82.20 29.58Q84.40 29 87.05 29Q87.75 29 88.53 29Q89.30 29 90.17 29.08Q91.05 29.15 91.95 29.25L92.10 32.40Q91.30 32.30 90.45 32.23Q89.60 32.15 88.78 32.13Q87.95 32.10 87.20 32.10Q85.35 32.10 83.88 32.40Q82.40 32.70 81.40 33.28Q80.40 33.85 79.85 34.73Q79.30 35.60 79.30 36.75Q79.30 37.75 79.65 38.40Q80 39.05 80.60 39.45Q81.20 39.85 82 40.03Q82.80 40.20 83.75 40.20Q85.55 40.20 86.92 39.63Q88.30 39.05 89.28 37.90Q90.25 36.75 90.75 35.08Q91.25 33.40 91.25 31.15Q91.25 27.95 90.53 26.15Q89.80 24.35 88.35 23.63Q86.90 22.90 84.70 22.90Q83.05 22.90 81.52 23.48Q80 24.05 78.65 25.40L76.45 22.75Q78.20 21.05 80.40 20.25Q82.60 19.45 84.95 19.45Q87.20 19.45 89.05 19.98Q90.90 20.50 92.28 21.75Q93.65 23 94.40 25.10Q95.15 27.20 95.15 30.40L95.15 42.95L90.60 42.95L90.60 39.80Q89.95 40.90 89.08 41.63Q88.20 42.35 87.22 42.75Q86.25 43.15 85.20 43.33Q84.15 43.50 83.15 43.50ZM101.50 42.95L101.50 39.55L108.15 39.55L108.15 13L101.80 13L101.80 9.60L112.50 9.60L112.50 39.55L119.15 39.55L119.15 42.95L101.50 42.95ZM127.55 42.95L127.55 39.55L133.35 39.55L133.35 23.40L127.85 23.40L127.85 19.95L137.65 19.95L137.65 39.55L142.95 39.55L142.95 42.95L127.55 42.95M135.25 15.50Q134.05 15.50 133.20 14.65Q132.35 13.80 132.35 12.65Q132.35 11.40 133.18 10.60Q134 9.80 135.25 9.80Q136.40 9.80 137.28 10.65Q138.15 11.50 138.15 12.65Q138.15 13.80 137.28 14.65Q136.40 15.50 135.25 15.50ZM162.55 43.50Q160.05 43.50 157.65 42.53Q155.25 41.55 153.38 39.55Q151.50 37.55 150.38 34.50Q149.25 31.45 149.25 27.25Q149.25 23.15 150.30 20.13Q151.35 17.10 153.10 15.15Q154.85 13.20 157 12.25Q159.15 11.30 161.35 11.30Q163.35 11.30 165.15 12Q166.95 12.70 168.30 14.13Q169.65 15.55 170.43 17.75Q171.20 19.95 171.20 22.85L171.20 34.30L167.70 34.30L167.70 32.55Q166.85 33.60 165.70 34.15Q164.55 34.70 163.10 34.70Q161.20 34.70 159.70 33.85Q158.20 33 157.35 31.48Q156.50 29.95 156.50 28.05Q156.50 26.30 157.15 24.88Q157.80 23.45 159.18 22.43Q160.55 21.40 162.65 20.90Q164.75 20.40 167.55 20.55Q167.55 18.70 166.78 17.30Q166 15.90 164.60 15.10Q163.20 14.30 161.20 14.30Q159.50 14.30 157.95 15.03Q156.40 15.75 155.20 17.30Q154 18.85 153.30 21.20Q152.60 23.55 152.60 26.80Q152.60 30.30 153.45 32.83Q154.30 35.35 155.78 37Q157.25 38.65 159.08 39.45Q160.90 40.25 162.85 40.25Q164.25 40.25 165.60 39.83Q166.95 39.40 168.20 38.50L169.80 41.30Q168.20 42.35 166.35 42.93Q164.50 43.50 162.55 43.50M163.65 31.60Q164.70 31.60 165.48 31.18Q166.25 30.75 166.75 29.80Q167.25 28.85 167.50 27.30Q167.75 25.75 167.75 23.50Q165.10 23.30 163.40 23.80Q161.70 24.30 160.85 25.33Q160 26.35 160 27.80Q160 29.60 160.90 30.60Q161.80 31.60 163.65 31.60ZM183.70 43.50Q182.35 43.50 181.13 43.13Q179.90 42.75 178.93 41.93Q177.95 41.10 177.23 39.88Q176.50 38.65 176.13 36.93Q175.75 35.20 175.75 33L175.80 19.95L180 19.95L180 33Q180 34.95 180.35 36.33Q180.70 37.70 181.35 38.53Q182 39.35 182.88 39.70Q183.75 40.05 184.70 40.05Q185.85 40.05 186.88 39.63Q187.90 39.20 188.68 38.30Q189.45 37.40 189.90 36.03Q190.35 34.65 190.35 32.80L190.35 19.95L194.60 19.95L194.60 39.35Q194.60 40.30 194.68 41.18Q194.75 42.05 195.10 42.95L191.05 42.95Q190.80 42.40 190.70 41.85Q190.60 41.30 190.58 40.73Q190.55 40.15 190.55 39.60Q190 40.55 189.28 41.28Q188.55 42 187.65 42.50Q186.75 43 185.78 43.25Q184.80 43.50 183.70 43.50ZM200.60 51.30L200.60 19.95L204.90 19.95L204.90 24.05Q205.50 22.45 206.53 21.43Q207.55 20.40 208.88 19.93Q210.20 19.45 211.70 19.45Q213.60 19.45 215.30 20.20Q217 20.95 218.30 22.43Q219.60 23.90 220.38 26.13Q221.15 28.35 221.15 31.35Q221.15 34.40 220.35 36.70Q219.55 39 218.18 40.50Q216.80 42 215.10 42.78Q213.40 43.55 211.60 43.55Q210.30 43.55 209.05 43.18Q207.80 42.80 206.78 42.05Q205.75 41.30 205 40.30L205 51.30L200.60 51.30M210.70 39.95Q211.85 39.95 212.93 39.53Q214 39.10 214.88 38.13Q215.75 37.15 216.25 35.50Q216.75 33.85 216.75 31.35Q216.75 28.75 216.10 26.93Q215.45 25.10 214.20 24.10Q212.95 23.10 211.15 23Q209.80 22.90 208.68 23.40Q207.55 23.90 206.70 25.00Q205.85 26.10 205.40 27.85Q204.95 29.60 204.95 32.10Q205 33.70 205.25 34.95Q205.50 36.20 206 37.15Q206.50 38.10 207.18 38.70Q207.85 39.30 208.75 39.63Q209.65 39.95 210.70 39.95ZM236.40 43.45Q233.90 43.45 231.83 42.68Q229.75 41.90 228.23 40.40Q226.70 38.90 225.90 36.65Q225.10 34.40 225.10 31.55Q225.10 28.65 225.93 26.40Q226.75 24.15 228.20 22.60Q229.65 21.05 231.60 20.23Q233.55 19.40 235.75 19.40Q237.70 19.40 239.45 20.08Q241.20 20.75 242.48 22.10Q243.75 23.45 244.50 25.53Q245.25 27.60 245.25 30.40Q245.25 30.85 245.23 31.38Q245.20 31.90 245.15 32.30L229.20 32.30Q229.30 34.35 229.93 35.83Q230.55 37.30 231.55 38.23Q232.55 39.15 233.83 39.60Q235.10 40.05 236.55 40.05Q237.70 40.05 238.73 39.80Q239.75 39.55 240.65 39Q241.55 38.45 242.30 37.65L244.60 39.85Q243.60 41.05 242.33 41.88Q241.05 42.70 239.58 43.08Q238.10 43.45 236.40 43.45M229.35 29.05L241 29.05Q241 27.55 240.60 26.40Q240.20 25.25 239.50 24.40Q238.80 23.55 237.78 23.13Q236.75 22.70 235.50 22.70Q234.35 22.70 233.35 23.08Q232.35 23.45 231.53 24.25Q230.70 25.05 230.13 26.23Q229.55 27.40 229.35 29.05ZM251.10 42.95L251.10 19.95L255.35 19.95L255.35 23.75Q256.20 22.45 257.35 21.48Q258.50 20.50 259.88 19.95Q261.25 19.40 262.75 19.40Q264.70 19.40 266.25 20.38Q267.80 21.35 268.75 23.45Q269.70 25.55 269.70 29.05L269.70 42.95L265.50 42.95L265.50 29.15Q265.50 26.90 265 25.55Q264.50 24.20 263.60 23.58Q262.70 22.95 261.55 22.95Q260.50 22.95 259.40 23.43Q258.30 23.90 257.38 24.75Q256.45 25.60 255.90 26.83Q255.35 28.05 255.35 29.55L255.35 42.95L251.10 42.95ZM276.10 42.95L276.10 19.95L280.35 19.95L280.35 23.75Q281.20 22.45 282.35 21.48Q283.50 20.50 284.88 19.95Q286.25 19.40 287.75 19.40Q289.70 19.40 291.25 20.38Q292.80 21.35 293.75 23.45Q294.70 25.55 294.70 29.05L294.70 42.95L290.50 42.95L290.50 29.15Q290.50 26.90 290 25.55Q289.50 24.20 288.60 23.58Q287.70 22.95 286.55 22.95Q285.50 22.95 284.40 23.43Q283.30 23.90 282.38 24.75Q281.45 25.60 280.90 26.83Q280.35 28.05 280.35 29.55L280.35 42.95L276.10 42.95ZM309.70 43.50Q308.40 43.50 307.45 42.58Q306.50 41.65 306.50 40.35Q306.50 39.10 307.45 38.15Q308.40 37.20 309.70 37.20Q311 37.20 311.93 38.15Q312.85 39.10 312.85 40.35Q312.85 41.65 311.93 42.58Q311 43.50 309.70 43.50ZM336.40 43.45Q333.90 43.45 331.82 42.68Q329.75 41.90 328.23 40.40Q326.70 38.90 325.90 36.65Q325.10 34.40 325.10 31.55Q325.10 28.65 325.93 26.40Q326.75 24.15 328.20 22.60Q329.65 21.05 331.60 20.23Q333.55 19.40 335.75 19.40Q337.70 19.40 339.45 20.08Q341.20 20.75 342.48 22.10Q343.75 23.45 344.50 25.53Q345.25 27.60 345.25 30.40Q345.25 30.85 345.23 31.38Q345.20 31.90 345.15 32.30L329.20 32.30Q329.30 34.35 329.93 35.83Q330.55 37.30 331.55 38.23Q332.55 39.15 333.82 39.60Q335.10 40.05 336.55 40.05Q337.70 40.05 338.73 39.80Q339.75 39.55 340.65 39Q341.55 38.45 342.30 37.65L344.60 39.85Q343.60 41.05 342.32 41.88Q341.05 42.70 339.57 43.08Q338.10 43.45 336.40 43.45M329.35 29.05L341 29.05Q341 27.55 340.60 26.40Q340.20 25.25 339.50 24.40Q338.80 23.55 337.78 23.13Q336.75 22.70 335.50 22.70Q334.35 22.70 333.35 23.08Q332.35 23.45 331.53 24.25Q330.70 25.05 330.13 26.23Q329.55 27.40 329.35 29.05ZM359.35 43.45Q357.55 43.45 355.85 42.70Q354.15 41.95 352.80 40.45Q351.45 38.95 350.65 36.65Q349.85 34.35 349.85 31.25Q349.85 28.15 350.68 25.93Q351.50 23.70 352.88 22.23Q354.25 20.75 355.95 20.05Q357.65 19.35 359.50 19.35Q360.95 19.35 362.18 19.80Q363.40 20.25 364.32 21.03Q365.25 21.80 365.80 22.90L365.80 9.60L369.85 9.60L370.35 9.60L370.35 10Q370.05 10.30 369.98 10.65Q369.90 11 369.90 11.85L369.95 39.55Q369.95 40.40 370.03 41.25Q370.10 42.10 370.45 42.95L366.25 42.95Q366 42.35 365.90 41.85Q365.80 41.35 365.78 40.83Q365.75 40.30 365.75 39.75Q365.05 40.90 364.10 41.75Q363.15 42.60 361.95 43.03Q360.75 43.45 359.35 43.45L359.35 43.45M360.05 39.85Q361.55 39.85 362.60 39.25Q363.65 38.65 364.30 37.50Q364.95 36.35 365.28 34.78Q365.60 33.20 365.60 31.35Q365.60 28.80 365 26.88Q364.40 24.95 363.10 23.88Q361.80 22.80 359.80 22.80Q358.40 22.80 357.30 23.35Q356.20 23.90 355.50 24.98Q354.80 26.05 354.43 27.53Q354.05 29 354.05 30.85Q354.05 33.60 354.78 35.60Q355.50 37.60 356.85 38.73Q358.20 39.85 360.05 39.85L360.05 39.85ZM383.70 43.50Q382.35 43.50 381.13 43.13Q379.90 42.75 378.93 41.93Q377.95 41.10 377.23 39.88Q376.50 38.65 376.13 36.93Q375.75 35.20 375.75 33L375.80 19.95L380 19.95L380 33Q380 34.95 380.35 36.33Q380.70 37.70 381.35 38.53Q382 39.35 382.88 39.70Q383.75 40.05 384.70 40.05Q385.85 40.05 386.88 39.63Q387.90 39.20 388.68 38.30Q389.45 37.40 389.90 36.03Q390.35 34.65 390.35 32.80L390.35 19.95L394.60 19.95L394.60 39.35Q394.60 40.30 394.68 41.18Q394.75 42.05 395.10 42.95L391.05 42.95Q390.80 42.40 390.70 41.85Q390.60 41.30 390.57 40.73Q390.55 40.15 390.55 39.60Q390 40.55 389.28 41.28Q388.55 42 387.65 42.50Q386.75 43 385.78 43.25Q384.80 43.50 383.70 43.50Z"/></g></g></svg>