<svg xmlns="http://www.w3.org/2000/svg" viewBox="0 9.399999618530273 368.75 42.25" data-asc="0.859" width="368.75" height="42.25"><defs/><g fill="#e5e5e5"><g transform="translate(0, 0)"><path d="M0 42.95L0 40.05L5.85 40.05L5.85 23L0.30 23L0.30 20.10L9.45 20.10L9.45 40.05L14.80 40.05L14.80 42.95L0 42.95M7.45 15.30Q6.40 15.30 5.65 14.55Q4.90 13.80 4.90 12.75Q4.90 11.65 5.63 10.90Q6.35 10.15 7.45 10.15Q8.50 10.15 9.28 10.93Q10.05 11.70 10.05 12.75Q10.05 13.80 9.28 14.55Q8.50 15.30 7.45 15.30ZM23.60 42.95L23.60 20.10L27.10 20.10L27.10 24.15Q28 22.75 29.20 21.73Q30.40 20.70 31.85 20.13Q33.30 19.55 34.85 19.55Q36.75 19.55 38.25 20.50Q39.75 21.45 40.65 23.55Q41.55 25.65 41.55 29.10L41.55 42.95L38.05 42.95L38.05 29.20Q38.05 26.80 37.50 25.38Q36.95 23.95 36 23.33Q35.05 22.70 33.85 22.70Q32.70 22.70 31.52 23.20Q30.35 23.70 29.35 24.63Q28.35 25.55 27.73 26.85Q27.10 28.15 27.10 29.80L27.10 42.95L23.60 42.95ZM53.10 22.95L48.15 22.95L48.15 20.10L53.10 20.10L53.10 18.20Q53.10 15.15 54.17 13.20Q55.25 11.25 57.15 10.33Q59.05 9.40 61.50 9.40Q63.65 9.40 65.53 10.18Q67.40 10.95 68.65 12.55L66.75 15.20L66.45 15.60L66.15 15.40Q66.10 15 65.95 14.60Q65.80 14.20 65.25 13.60Q64.45 12.90 63.65 12.60Q62.85 12.30 61.60 12.30Q60.15 12.30 59 12.88Q57.85 13.45 57.20 14.73Q56.55 16 56.55 18.20L56.55 20.10L64.05 20.10L64.05 22.95L56.55 22.95L56.55 42.95L53.10 42.95L53.10 22.95ZM82.50 43.35Q79.40 43.35 77.03 41.83Q74.65 40.30 73.30 37.63Q71.95 34.95 71.95 31.50Q71.95 28 73.30 25.33Q74.65 22.65 77.03 21.13Q79.40 19.60 82.50 19.60Q85.60 19.60 87.97 21.13Q90.35 22.65 91.70 25.33Q93.05 28 93.05 31.50Q93.05 34.95 91.70 37.63Q90.35 40.30 87.97 41.83Q85.60 43.35 82.50 43.35M82.50 40.35Q84.50 40.35 86 39.20Q87.50 38.05 88.38 36.05Q89.25 34.05 89.25 31.45Q89.25 28.85 88.38 26.85Q87.50 24.85 86 23.73Q84.50 22.60 82.50 22.60Q80.55 22.60 79.03 23.73Q77.50 24.85 76.63 26.85Q75.75 28.85 75.75 31.45Q75.75 34.05 76.63 36.05Q77.50 38.05 79.03 39.20Q80.55 40.35 82.50 40.35ZM109.75 43.50Q107.30 43.50 104.92 42.53Q102.55 41.55 100.67 39.58Q98.80 37.60 97.67 34.55Q96.55 31.50 96.55 27.30Q96.55 23.15 97.60 20.13Q98.65 17.10 100.40 15.15Q102.15 13.20 104.28 12.25Q106.40 11.30 108.55 11.30Q110.40 11.30 112.15 12Q113.90 12.70 115.28 14.10Q116.65 15.50 117.45 17.63Q118.25 19.75 118.25 22.55L118.25 34.20L115.25 34.20L115.25 32.30Q114.30 33.45 113.08 34.03Q111.85 34.60 110.40 34.60Q108.50 34.60 107 33.75Q105.50 32.90 104.63 31.40Q103.75 29.90 103.75 28Q103.75 26.30 104.45 24.90Q105.15 23.50 106.58 22.50Q108 21.50 110.13 21.03Q112.25 20.55 115.10 20.75Q115.10 18.85 114.30 17.33Q113.50 15.80 112 14.90Q110.50 14 108.40 14Q106.60 14 105 14.75Q103.40 15.50 102.15 17.08Q100.90 18.65 100.17 21.05Q99.45 23.45 99.45 26.75Q99.45 30.35 100.35 32.95Q101.25 35.55 102.78 37.28Q104.30 39 106.17 39.83Q108.05 40.65 110.05 40.65Q111.50 40.65 112.83 40.23Q114.15 39.80 115.40 39L116.75 41.45Q115.15 42.45 113.40 42.98Q111.65 43.50 109.75 43.50M110.85 31.85Q112 31.85 112.83 31.40Q113.65 30.95 114.20 29.95Q114.75 28.95 115 27.30Q115.25 25.65 115.25 23.25Q112.50 23 110.63 23.50Q108.75 24.00 107.80 25.10Q106.85 26.20 106.85 27.80Q106.85 29.65 107.85 30.75Q108.85 31.85 110.85 31.85ZM129.70 51.65Q127.55 51.65 125.63 50.85Q123.70 50.05 122.40 48.45L124.40 45.75L124.70 45.35L125 45.55Q125.10 45.95 125.25 46.33Q125.40 46.70 125.95 47.30Q126.65 47.85 127.58 48.20Q128.50 48.55 129.65 48.55Q131.15 48.55 132.32 47.88Q133.50 47.20 134.15 45.78Q134.80 44.35 134.80 42.05L134.80 23.05L126.30 23.05L126.30 20.10L138.45 20.10L138.45 41.85Q138.45 45.30 137.25 47.48Q136.05 49.65 134.07 50.65Q132.10 51.65 129.70 51.65L129.70 51.65M136.35 15.30Q135.30 15.30 134.55 14.55Q133.80 13.80 133.80 12.75Q133.80 11.65 134.53 10.90Q135.25 10.15 136.35 10.15Q137.40 10.15 138.18 10.93Q138.95 11.70 138.95 12.75Q138.95 13.80 138.18 14.55Q137.40 15.30 136.35 15.30ZM155.55 43.50Q151.65 43.50 149.55 41.73Q147.45 39.95 147.45 37.20Q147.45 35.35 148.35 33.88Q149.25 32.40 150.82 31.38Q152.40 30.35 154.50 29.80Q156.60 29.25 158.95 29.25Q159.80 29.25 160.68 29.28Q161.55 29.30 162.53 29.38Q163.50 29.45 164.55 29.60L164.65 32.35Q163.75 32.20 162.82 32.13Q161.90 32.05 161 32Q160.10 31.95 159.25 31.95Q157.45 31.95 155.95 32.25Q154.45 32.55 153.35 33.15Q152.25 33.75 151.65 34.70Q151.05 35.65 151.05 37Q151.05 38.05 151.43 38.78Q151.80 39.50 152.45 39.93Q153.10 40.35 153.97 40.55Q154.85 40.75 155.90 40.75Q157.85 40.75 159.38 40.13Q160.90 39.50 161.97 38.30Q163.05 37.10 163.60 35.35Q164.15 33.60 164.15 31.35Q164.15 27.95 163.35 26.05Q162.55 24.15 160.97 23.35Q159.40 22.55 156.95 22.55Q155.30 22.55 153.70 23.18Q152.10 23.80 150.80 25.10L149.05 22.80Q150.65 21.20 152.75 20.40Q154.85 19.60 157.20 19.60Q159.45 19.60 161.30 20.15Q163.15 20.70 164.47 21.98Q165.80 23.25 166.53 25.40Q167.25 27.55 167.25 30.80L167.25 42.95L163.35 42.95L163.35 39.45Q162.70 40.70 161.78 41.50Q160.85 42.30 159.80 42.73Q158.75 43.15 157.65 43.33Q156.55 43.50 155.55 43.50ZM172.50 40.50L186.65 23.25L173.55 23.25L173.55 20.10L191.30 20.10L191.30 22.55L177.40 39.85L190.30 39.85Q191.15 39.85 191.50 39.75Q191.85 39.65 192.15 39.35L192.50 39.35L192.50 39.85L192.50 42.95L172.50 42.95L172.50 40.50ZM205.55 43.50Q201.65 43.50 199.55 41.73Q197.45 39.95 197.45 37.20Q197.45 35.35 198.35 33.88Q199.25 32.40 200.82 31.38Q202.40 30.35 204.50 29.80Q206.60 29.25 208.95 29.25Q209.80 29.25 210.68 29.28Q211.55 29.30 212.53 29.38Q213.50 29.45 214.55 29.60L214.65 32.35Q213.75 32.20 212.82 32.13Q211.90 32.05 211 32Q210.10 31.95 209.25 31.95Q207.45 31.95 205.95 32.25Q204.45 32.55 203.35 33.15Q202.25 33.75 201.65 34.70Q201.05 35.65 201.05 37Q201.05 38.05 201.43 38.78Q201.80 39.50 202.45 39.93Q203.10 40.35 203.97 40.55Q204.85 40.75 205.90 40.75Q207.85 40.75 209.38 40.13Q210.90 39.50 211.97 38.30Q213.05 37.10 213.60 35.35Q214.15 33.60 214.15 31.35Q214.15 27.95 213.35 26.05Q212.55 24.15 210.97 23.35Q209.40 22.55 206.95 22.55Q205.30 22.55 203.70 23.18Q202.10 23.80 200.80 25.10L199.05 22.80Q200.65 21.20 202.75 20.40Q204.85 19.60 207.20 19.60Q209.45 19.60 211.30 20.15Q213.15 20.70 214.47 21.98Q215.80 23.25 216.53 25.40Q217.25 27.55 217.25 30.80L217.25 42.95L213.35 42.95L213.35 39.45Q212.70 40.70 211.78 41.50Q210.85 42.30 209.80 42.73Q208.75 43.15 207.65 43.33Q206.55 43.50 205.55 43.50ZM223.95 42.95L223.95 40.05L230.70 40.05L230.70 12.60L224.25 12.60L224.25 9.70L234.35 9.70L234.35 40.05L241.05 40.05L241.05 42.95L223.95 42.95ZM250 42.95L250 40.05L255.85 40.05L255.85 23L250.30 23L250.30 20.10L259.45 20.10L259.45 40.05L264.80 40.05L264.80 42.95L250 42.95M257.45 15.30Q256.40 15.30 255.65 14.55Q254.90 13.80 254.90 12.75Q254.90 11.65 255.63 10.90Q256.35 10.15 257.45 10.15Q258.50 10.15 259.27 10.93Q260.05 11.70 260.05 12.75Q260.05 13.80 259.27 14.55Q258.50 15.30 257.45 15.30ZM281.90 43.50Q280.70 43.50 279.85 42.65Q279 41.80 279 40.65Q279 39.50 279.85 38.65Q280.70 37.80 281.90 37.80Q283.05 37.80 283.90 38.65Q284.75 39.50 284.75 40.65Q284.75 41.80 283.90 42.65Q283.05 43.50 281.90 43.50ZM307.50 43.35Q304.40 43.35 302.02 41.83Q299.65 40.30 298.30 37.63Q296.95 34.95 296.95 31.50Q296.95 28 298.30 25.33Q299.65 22.65 302.02 21.13Q304.40 19.60 307.50 19.60Q310.60 19.60 312.98 21.13Q315.35 22.65 316.70 25.33Q318.05 28 318.05 31.50Q318.05 34.95 316.70 37.63Q315.35 40.30 312.98 41.83Q310.60 43.35 307.50 43.35M307.50 40.35Q309.50 40.35 311 39.20Q312.50 38.05 313.38 36.05Q314.25 34.05 314.25 31.45Q314.25 28.85 313.38 26.85Q312.50 24.85 311 23.73Q309.50 22.60 307.50 22.60Q305.55 22.60 304.02 23.73Q302.50 24.85 301.63 26.85Q300.75 28.85 300.75 31.45Q300.75 34.05 301.63 36.05Q302.50 38.05 304.02 39.20Q305.55 40.35 307.50 40.35ZM325.95 20.10L329.70 20.10L329.55 26.75L329.10 26.00Q329.40 24.45 330.15 23.25Q330.90 22.05 331.95 21.23Q333 20.40 334.25 19.98Q335.50 19.55 336.85 19.55Q338.65 19.55 340.18 20.18Q341.70 20.80 342.90 22.05L341.30 24.85L341.10 25.30L340.75 25.10Q340.65 24.70 340.45 24.35Q340.25 24.00 339.60 23.50Q338.80 23 338.13 22.83Q337.45 22.65 336.60 22.65Q335.35 22.65 334.10 23.13Q332.85 23.60 331.82 24.60Q330.80 25.60 330.20 27.15Q329.60 28.70 329.60 30.85L329.60 43L325.95 43L325.95 20.10ZM357.35 51.55Q354.95 51.55 353.02 51.18Q351.10 50.80 349.73 50.08Q348.35 49.35 347.63 48.25Q346.90 47.15 346.90 45.65Q346.90 44.25 347.50 43.15Q348.10 42.05 349.07 41.33Q350.05 40.60 351.20 40.25L352.70 41.15Q351.80 41.70 351.25 42.25Q350.70 42.80 350.45 43.53Q350.20 44.25 350.20 45.25Q350.20 46.10 350.70 46.78Q351.20 47.45 352.13 47.90Q353.05 48.35 354.38 48.60Q355.70 48.85 357.40 48.85Q359.70 48.85 361.13 48.38Q362.55 47.90 363.25 47.08Q363.95 46.25 363.95 45.20Q363.95 44.10 363.55 43.40Q363.15 42.70 361.90 42.35Q360.65 42 358.10 42Q356.35 42 354.90 41.85Q353.45 41.70 352.30 41.35Q351.15 41 350.38 40.48Q349.60 39.95 349.20 39.20Q348.80 38.45 348.80 37.45Q348.80 36.15 349.52 34.95Q350.25 33.75 351.50 32.65L353.20 34Q352.70 34.55 352.40 34.98Q352.10 35.40 351.98 35.78Q351.85 36.15 351.85 36.60Q351.85 37.40 352.48 37.90Q353.10 38.40 354.65 38.63Q356.20 38.85 358.85 38.85Q361.50 38.85 363.15 39.28Q364.80 39.70 365.68 40.50Q366.55 41.30 366.90 42.35Q367.25 43.40 367.25 44.65Q367.25 46 366.73 47.23Q366.20 48.45 365.05 49.43Q363.90 50.40 362 50.98Q360.10 51.55 357.35 51.55M356.30 35.20Q353.85 35.20 352.05 34.13Q350.25 33.05 349.27 31.23Q348.30 29.40 348.30 27.20Q348.30 25.00 349.27 23.20Q350.25 21.40 352.05 20.33Q353.85 19.25 356.30 19.25Q358.80 19.25 360.57 20.33Q362.35 21.40 363.32 23.20Q364.30 25.00 364.30 27.20Q364.30 29.40 363.32 31.23Q362.35 33.05 360.57 34.13Q358.80 35.20 356.30 35.20M356.30 32.20Q357.75 32.20 358.88 31.53Q360 30.85 360.65 29.70Q361.30 28.55 361.30 27.20Q361.30 25.80 360.65 24.68Q360 23.55 358.88 22.88Q357.75 22.20 356.30 22.20Q354.85 22.20 353.73 22.88Q352.60 23.55 351.95 24.68Q351.30 25.80 351.30 27.20Q351.30 28.55 351.95 29.70Q352.60 30.85 353.73 31.53Q354.85 32.20 356.30 32.20M362.95 23.80L361.55 22.15Q363 20.70 364.57 20.03Q366.15 19.35 368.30 19.50L368.75 22.45Q367.10 22.30 365.65 22.55Q364.20 22.80 362.95 23.80Z"/></g></g></svg>