<svg xmlns="http://www.w3.org/2000/svg" viewBox="0 9.300000190734863 369.1499938964844 42.400001525878906" data-asc="0.859" width="369.1499938964844" height="42.400001525878906"><defs/><g fill="#e5e5e5"><g transform="translate(0, 0)"><path d="M0 42.95L0 39.55L5.80 39.55L5.80 23.40L0.30 23.40L0.30 19.95L10.10 19.95L10.10 39.55L15.40 39.55L15.40 42.95L0 42.95M7.70 15.50Q6.50 15.50 5.65 14.65Q4.80 13.80 4.80 12.65Q4.80 11.40 5.63 10.60Q6.45 9.80 7.70 9.80Q8.85 9.80 9.73 10.65Q10.60 11.50 10.60 12.65Q10.60 13.80 9.73 14.65Q8.85 15.50 7.70 15.50ZM23.55 42.95L23.55 19.95L27.80 19.95L27.80 23.75Q28.65 22.45 29.80 21.48Q30.95 20.50 32.33 19.95Q33.70 19.40 35.20 19.40Q37.15 19.40 38.70 20.38Q40.25 21.35 41.20 23.45Q42.15 25.55 42.15 29.05L42.15 42.95L37.95 42.95L37.95 29.15Q37.95 26.90 37.45 25.55Q36.95 24.20 36.05 23.58Q35.15 22.95 34 22.95Q32.95 22.95 31.85 23.43Q30.75 23.90 29.83 24.75Q28.90 25.60 28.35 26.83Q27.80 28.05 27.80 29.55L27.80 42.95L23.55 42.95ZM52.95 23.35L48 23.35L48 19.95L52.95 19.95L52.95 18.25Q52.95 15.15 54.13 13.18Q55.30 11.20 57.30 10.25Q59.30 9.30 61.75 9.30Q64 9.30 65.92 10.08Q67.85 10.85 69.15 12.45L67.15 15.50L66.90 15.90L66.55 15.70Q66.45 15.30 66.30 14.90Q66.15 14.50 65.60 13.95Q64.75 13.25 63.95 12.98Q63.15 12.70 61.95 12.70Q60.55 12.70 59.45 13.25Q58.35 13.80 57.75 15Q57.15 16.20 57.15 18.20L57.15 19.95L64.45 19.95L64.45 23.35L57.15 23.35L57.15 42.95L52.95 42.95L52.95 23.35ZM82.75 43.40Q79.65 43.40 77.22 41.88Q74.80 40.35 73.40 37.65Q72 34.95 72 31.45Q72 27.95 73.40 25.25Q74.80 22.55 77.22 21Q79.65 19.45 82.75 19.45Q85.85 19.45 88.28 21Q90.70 22.55 92.10 25.25Q93.50 27.95 93.50 31.45Q93.50 34.95 92.10 37.65Q90.70 40.35 88.28 41.88Q85.85 43.40 82.75 43.40M82.75 39.90Q84.60 39.90 86 38.80Q87.40 37.70 88.22 35.80Q89.05 33.90 89.05 31.40Q89.05 28.90 88.22 27Q87.40 25.10 86 24.03Q84.60 22.95 82.75 22.95Q80.95 22.95 79.53 24.03Q78.10 25.10 77.28 27Q76.45 28.90 76.45 31.40Q76.45 33.90 77.25 35.80Q78.05 37.70 79.47 38.80Q80.90 39.90 82.75 39.90ZM110 43.50Q107.50 43.50 105.10 42.53Q102.70 41.55 100.83 39.55Q98.95 37.55 97.83 34.50Q96.70 31.45 96.70 27.25Q96.70 23.15 97.75 20.13Q98.80 17.10 100.55 15.15Q102.30 13.20 104.45 12.25Q106.60 11.30 108.80 11.30Q110.80 11.30 112.60 12Q114.40 12.70 115.75 14.13Q117.10 15.55 117.88 17.75Q118.65 19.95 118.65 22.85L118.65 34.30L115.15 34.30L115.15 32.55Q114.30 33.60 113.15 34.15Q112 34.70 110.55 34.70Q108.65 34.70 107.15 33.85Q105.65 33 104.80 31.48Q103.95 29.95 103.95 28.05Q103.95 26.30 104.60 24.88Q105.25 23.45 106.63 22.43Q108 21.40 110.10 20.90Q112.20 20.40 115 20.55Q115 18.70 114.22 17.30Q113.45 15.90 112.05 15.10Q110.65 14.30 108.65 14.30Q106.95 14.30 105.40 15.03Q103.85 15.75 102.65 17.30Q101.45 18.85 100.75 21.20Q100.05 23.55 100.05 26.80Q100.05 30.30 100.90 32.83Q101.75 35.35 103.22 37Q104.70 38.65 106.53 39.45Q108.35 40.25 110.30 40.25Q111.70 40.25 113.05 39.83Q114.40 39.40 115.65 38.50L117.25 41.30Q115.65 42.35 113.80 42.93Q111.95 43.50 110 43.50M111.10 31.60Q112.15 31.60 112.92 31.18Q113.70 30.75 114.20 29.80Q114.70 28.85 114.95 27.30Q115.20 25.75 115.20 23.50Q112.55 23.30 110.85 23.80Q109.15 24.30 108.30 25.33Q107.45 26.35 107.45 27.80Q107.45 29.60 108.35 30.60Q109.25 31.60 111.10 31.60ZM129.90 51.70Q127.70 51.70 125.75 50.85Q123.80 50 122.45 48.35L124.80 45.20L125.10 44.80L125.40 45.05Q125.50 45.45 125.65 45.83Q125.80 46.20 126.35 46.80Q127 47.35 127.88 47.70Q128.75 48.05 129.85 48.05Q131.30 48.05 132.35 47.43Q133.40 46.80 133.97 45.48Q134.55 44.15 134.55 42.05L134.55 23.40L126.20 23.40L126.20 19.95L138.90 19.95L138.90 41.75Q138.90 45.25 137.65 47.45Q136.40 49.65 134.38 50.68Q132.35 51.70 129.90 51.70L129.90 51.70M136.40 15.50Q135.20 15.50 134.35 14.65Q133.50 13.80 133.50 12.65Q133.50 11.40 134.32 10.60Q135.15 9.80 136.40 9.80Q137.55 9.80 138.43 10.65Q139.30 11.50 139.30 12.65Q139.30 13.80 138.43 14.65Q137.55 15.50 136.40 15.50ZM155.60 43.50Q151.70 43.50 149.60 41.73Q147.50 39.95 147.50 37.15Q147.50 35.30 148.38 33.78Q149.25 32.25 150.85 31.20Q152.45 30.15 154.65 29.58Q156.85 29 159.50 29Q160.20 29 160.97 29Q161.75 29 162.63 29.08Q163.50 29.15 164.40 29.25L164.55 32.40Q163.75 32.30 162.90 32.23Q162.05 32.15 161.22 32.13Q160.40 32.10 159.65 32.10Q157.80 32.10 156.32 32.40Q154.85 32.70 153.85 33.28Q152.85 33.85 152.30 34.73Q151.75 35.60 151.75 36.75Q151.75 37.75 152.10 38.40Q152.45 39.05 153.05 39.45Q153.65 39.85 154.45 40.03Q155.25 40.20 156.20 40.20Q158 40.20 159.38 39.63Q160.75 39.05 161.72 37.90Q162.70 36.75 163.20 35.08Q163.70 33.40 163.70 31.15Q163.70 27.95 162.97 26.15Q162.25 24.35 160.80 23.63Q159.35 22.90 157.15 22.90Q155.50 22.90 153.97 23.48Q152.45 24.05 151.10 25.40L148.90 22.75Q150.65 21.05 152.85 20.25Q155.05 19.45 157.40 19.45Q159.65 19.45 161.50 19.98Q163.35 20.50 164.72 21.75Q166.10 23 166.85 25.10Q167.60 27.20 167.60 30.40L167.60 42.95L163.05 42.95L163.05 39.80Q162.40 40.90 161.53 41.63Q160.65 42.35 159.68 42.75Q158.70 43.15 157.65 43.33Q156.60 43.50 155.60 43.50ZM172.60 40.20L186.30 23.60L173.60 23.60L173.60 19.95L191.75 19.95L191.75 22.80L178.25 39.35L190.70 39.35Q191.55 39.35 191.90 39.25Q192.25 39.15 192.55 38.85L192.90 38.85L192.90 39.35L192.90 42.95L172.60 42.95L172.60 40.20ZM205.60 43.50Q201.70 43.50 199.60 41.73Q197.50 39.95 197.50 37.15Q197.50 35.30 198.38 33.78Q199.25 32.25 200.85 31.20Q202.45 30.15 204.65 29.58Q206.85 29 209.50 29Q210.20 29 210.97 29Q211.75 29 212.63 29.08Q213.50 29.15 214.40 29.25L214.55 32.40Q213.75 32.30 212.90 32.23Q212.05 32.15 211.22 32.13Q210.40 32.10 209.65 32.10Q207.80 32.10 206.32 32.40Q204.85 32.70 203.85 33.28Q202.85 33.85 202.30 34.73Q201.75 35.60 201.75 36.75Q201.75 37.75 202.10 38.40Q202.45 39.05 203.05 39.45Q203.65 39.85 204.45 40.03Q205.25 40.20 206.20 40.20Q208 40.20 209.38 39.63Q210.75 39.05 211.72 37.90Q212.70 36.75 213.20 35.08Q213.70 33.40 213.70 31.15Q213.70 27.95 212.97 26.15Q212.25 24.35 210.80 23.63Q209.35 22.90 207.15 22.90Q205.50 22.90 203.97 23.48Q202.45 24.05 201.10 25.40L198.90 22.75Q200.65 21.05 202.85 20.25Q205.05 19.45 207.40 19.45Q209.65 19.45 211.50 19.98Q213.35 20.50 214.72 21.75Q216.10 23 216.85 25.10Q217.60 27.20 217.60 30.40L217.60 42.95L213.05 42.95L213.05 39.80Q212.40 40.90 211.53 41.63Q210.65 42.35 209.68 42.75Q208.70 43.15 207.65 43.33Q206.60 43.50 205.60 43.50ZM223.95 42.95L223.95 39.55L230.60 39.55L230.60 13L224.25 13L224.25 9.60L234.95 9.60L234.95 39.55L241.60 39.55L241.60 42.95L223.95 42.95ZM250 42.95L250 39.55L255.80 39.55L255.80 23.40L250.30 23.40L250.30 19.95L260.10 19.95L260.10 39.55L265.40 39.55L265.40 42.95L250 42.95M257.70 15.50Q256.50 15.50 255.65 14.65Q254.80 13.80 254.80 12.65Q254.80 11.40 255.63 10.60Q256.45 9.80 257.70 9.80Q258.85 9.80 259.73 10.65Q260.60 11.50 260.60 12.65Q260.60 13.80 259.73 14.65Q258.85 15.50 257.70 15.50ZM282.15 43.50Q280.85 43.50 279.90 42.58Q278.95 41.65 278.95 40.35Q278.95 39.10 279.90 38.15Q280.85 37.20 282.15 37.20Q283.45 37.20 284.38 38.15Q285.30 39.10 285.30 40.35Q285.30 41.65 284.38 42.58Q283.45 43.50 282.15 43.50ZM307.75 43.40Q304.65 43.40 302.23 41.88Q299.80 40.35 298.40 37.65Q297 34.95 297 31.45Q297 27.95 298.40 25.25Q299.80 22.55 302.23 21Q304.65 19.45 307.75 19.45Q310.85 19.45 313.27 21Q315.70 22.55 317.10 25.25Q318.50 27.95 318.50 31.45Q318.50 34.95 317.10 37.65Q315.70 40.35 313.27 41.88Q310.85 43.40 307.75 43.40M307.75 39.90Q309.60 39.90 311 38.80Q312.40 37.70 313.23 35.80Q314.05 33.90 314.05 31.40Q314.05 28.90 313.23 27Q312.40 25.10 311 24.03Q309.60 22.95 307.75 22.95Q305.95 22.95 304.52 24.03Q303.10 25.10 302.27 27Q301.45 28.90 301.45 31.40Q301.45 33.90 302.25 35.80Q303.05 37.70 304.48 38.80Q305.90 39.90 307.75 39.90ZM325.70 19.95L330.15 19.95L330.05 26.55L329.50 25.95Q329.80 24.40 330.52 23.20Q331.25 22 332.27 21.15Q333.30 20.30 334.55 19.85Q335.80 19.40 337.15 19.40Q339 19.40 340.52 20.03Q342.05 20.65 343.30 21.95L341.45 25.40L341.25 25.85L340.90 25.65Q340.75 25.25 340.57 24.88Q340.40 24.50 339.75 24.00Q339 23.45 338.30 23.25Q337.60 23.05 336.70 23.05Q335.50 23.05 334.30 23.50Q333.10 23.95 332.13 24.90Q331.15 25.85 330.60 27.33Q330.05 28.80 330.05 30.80L330.05 43L325.70 43L325.70 19.95ZM357.45 51.65Q355.05 51.65 353.10 51.25Q351.15 50.85 349.80 50.10Q348.45 49.35 347.73 48.25Q347 47.15 347 45.70Q347 44.35 347.60 43.28Q348.20 42.20 349.18 41.45Q350.15 40.70 351.35 40.30L353.20 41.25Q352.35 41.80 351.77 42.33Q351.20 42.85 350.93 43.53Q350.65 44.20 350.65 45.15Q350.65 45.90 351.15 46.53Q351.65 47.15 352.55 47.55Q353.45 47.95 354.75 48.18Q356.05 48.40 357.65 48.40Q359.80 48.40 361.20 47.98Q362.60 47.55 363.30 46.78Q364 46 364 45.05Q364 44.05 363.60 43.43Q363.20 42.80 362 42.50Q360.80 42.20 358.50 42.20Q356.80 42.20 355.30 42.05Q353.80 41.90 352.57 41.55Q351.35 41.20 350.50 40.68Q349.65 40.15 349.18 39.35Q348.70 38.55 348.70 37.50Q348.70 36.10 349.52 34.90Q350.35 33.70 351.65 32.60L353.65 34Q353.15 34.55 352.82 34.93Q352.50 35.30 352.35 35.65Q352.20 36 352.20 36.45Q352.20 37.20 352.88 37.65Q353.55 38.10 355.18 38.33Q356.80 38.55 359.50 38.55Q362 38.55 363.60 39Q365.20 39.45 366.10 40.28Q367 41.10 367.38 42.18Q367.75 43.25 367.75 44.50Q367.75 45.90 367.18 47.18Q366.60 48.45 365.38 49.45Q364.15 50.45 362.20 51.05Q360.25 51.65 357.45 51.65M356.60 35.15Q354.15 35.15 352.30 34.10Q350.45 33.05 349.43 31.23Q348.40 29.40 348.40 27.15Q348.40 24.95 349.43 23.15Q350.45 21.35 352.30 20.25Q354.15 19.15 356.60 19.15Q359.10 19.15 360.93 20.25Q362.75 21.35 363.77 23.15Q364.80 24.95 364.80 27.15Q364.80 29.40 363.77 31.23Q362.75 33.05 360.93 34.10Q359.10 35.15 356.60 35.15M356.60 31.80Q357.95 31.80 358.98 31.18Q360 30.55 360.63 29.50Q361.25 28.45 361.25 27.15Q361.25 25.85 360.63 24.83Q360 23.80 358.98 23.18Q357.95 22.55 356.60 22.55Q355.30 22.55 354.25 23.18Q353.20 23.80 352.60 24.85Q352 25.90 352 27.15Q352 28.40 352.60 29.48Q353.20 30.55 354.25 31.18Q355.30 31.80 356.60 31.80M363.45 23.85L361.80 21.85Q363.25 20.50 364.90 19.85Q366.55 19.20 368.65 19.35L369.15 22.65Q367.55 22.45 366.10 22.70Q364.65 22.95 363.45 23.85Z"/></g></g></svg>