<svg xmlns="http://www.w3.org/2000/svg" viewBox="0 9.699999809265137 519.7000122070312 41.95000076293945" data-asc="0.859" width="519.7000122070312" height="41.95000076293945"><defs/><g fill="#e5e5e5"><g transform="translate(0, 0)"><path d="M7.30 51.65Q5.15 51.65 3.22 50.85Q1.30 50.05 0 48.45L2 45.75L2.30 45.35L2.60 45.55Q2.70 45.95 2.85 46.33Q3 46.70 3.55 47.30Q4.25 47.85 5.17 48.20Q6.10 48.55 7.25 48.55Q8.75 48.55 9.93 47.88Q11.10 47.20 11.75 45.78Q12.40 44.35 12.40 42.05L12.40 23.05L3.90 23.05L3.90 20.10L16.05 20.10L16.05 41.85Q16.05 45.30 14.85 47.48Q13.65 49.65 11.68 50.65Q9.70 51.65 7.30 51.65L7.30 51.65M13.95 15.30Q12.90 15.30 12.15 14.55Q11.40 13.80 11.40 12.75Q11.40 11.65 12.13 10.90Q12.85 10.15 13.95 10.15Q15.00 10.15 15.78 10.93Q16.55 11.70 16.55 12.75Q16.55 13.80 15.78 14.55Q15.00 15.30 13.95 15.30ZM33.15 43.50Q29.25 43.50 27.15 41.73Q25.05 39.95 25.05 37.20Q25.05 35.35 25.95 33.88Q26.85 32.40 28.43 31.38Q30 30.35 32.10 29.80Q34.20 29.25 36.55 29.25Q37.40 29.25 38.28 29.28Q39.15 29.30 40.13 29.38Q41.10 29.45 42.15 29.60L42.25 32.35Q41.35 32.20 40.42 32.13Q39.50 32.05 38.60 32Q37.70 31.95 36.85 31.95Q35.05 31.95 33.55 32.25Q32.05 32.55 30.95 33.15Q29.85 33.75 29.25 34.70Q28.65 35.65 28.65 37Q28.65 38.05 29.03 38.78Q29.40 39.50 30.05 39.93Q30.70 40.35 31.58 40.55Q32.45 40.75 33.50 40.75Q35.45 40.75 36.98 40.13Q38.50 39.50 39.58 38.30Q40.65 37.10 41.20 35.35Q41.75 33.60 41.75 31.35Q41.75 27.95 40.95 26.05Q40.15 24.15 38.58 23.35Q37 22.55 34.55 22.55Q32.90 22.55 31.30 23.18Q29.70 23.80 28.40 25.10L26.65 22.80Q28.25 21.20 30.35 20.40Q32.45 19.60 34.80 19.60Q37.05 19.60 38.90 20.15Q40.75 20.70 42.08 21.98Q43.40 23.25 44.13 25.40Q44.85 27.55 44.85 30.80L44.85 42.95L40.95 42.95L40.95 39.45Q40.30 40.70 39.38 41.50Q38.45 42.30 37.40 42.73Q36.35 43.15 35.25 43.33Q34.15 43.50 33.15 43.50ZM50.10 40.50L64.25 23.25L51.15 23.25L51.15 20.10L68.90 20.10L68.90 22.55L55 39.85L67.90 39.85Q68.75 39.85 69.10 39.75Q69.45 39.65 69.75 39.35L70.10 39.35L70.10 39.85L70.10 42.95L50.10 42.95L50.10 40.50ZM83.15 43.50Q79.25 43.50 77.15 41.73Q75.05 39.95 75.05 37.20Q75.05 35.35 75.95 33.88Q76.85 32.40 78.42 31.38Q80 30.35 82.10 29.80Q84.20 29.25 86.55 29.25Q87.40 29.25 88.27 29.28Q89.15 29.30 90.13 29.38Q91.10 29.45 92.15 29.60L92.25 32.35Q91.35 32.20 90.42 32.13Q89.50 32.05 88.60 32Q87.70 31.95 86.85 31.95Q85.05 31.95 83.55 32.25Q82.05 32.55 80.95 33.15Q79.85 33.75 79.25 34.70Q78.65 35.65 78.65 37Q78.65 38.05 79.02 38.78Q79.40 39.50 80.05 39.93Q80.70 40.35 81.57 40.55Q82.45 40.75 83.50 40.75Q85.45 40.75 86.97 40.13Q88.50 39.50 89.57 38.30Q90.65 37.10 91.20 35.35Q91.75 33.60 91.75 31.35Q91.75 27.95 90.95 26.05Q90.15 24.15 88.57 23.35Q87 22.55 84.55 22.55Q82.90 22.55 81.30 23.18Q79.70 23.80 78.40 25.10L76.65 22.80Q78.25 21.20 80.35 20.40Q82.45 19.60 84.80 19.60Q87.05 19.60 88.90 20.15Q90.75 20.70 92.07 21.98Q93.40 23.25 94.13 25.40Q94.85 27.55 94.85 30.80L94.85 42.95L90.95 42.95L90.95 39.45Q90.30 40.70 89.38 41.50Q88.45 42.30 87.40 42.73Q86.35 43.15 85.25 43.33Q84.15 43.50 83.15 43.50ZM101.55 42.95L101.55 40.05L108.30 40.05L108.30 12.60L101.85 12.60L101.85 9.70L111.95 9.70L111.95 40.05L118.65 40.05L118.65 42.95L101.55 42.95ZM127.60 42.95L127.60 40.05L133.45 40.05L133.45 23L127.90 23L127.90 20.10L137.05 20.10L137.05 40.05L142.40 40.05L142.40 42.95L127.60 42.95M135.05 15.30Q134 15.30 133.25 14.55Q132.50 13.80 132.50 12.75Q132.50 11.65 133.22 10.90Q133.95 10.15 135.05 10.15Q136.10 10.15 136.88 10.93Q137.65 11.70 137.65 12.75Q137.65 13.80 136.88 14.55Q136.10 15.30 135.05 15.30ZM162.35 43.50Q159.90 43.50 157.53 42.53Q155.15 41.55 153.28 39.58Q151.40 37.60 150.28 34.55Q149.15 31.50 149.15 27.30Q149.15 23.15 150.20 20.13Q151.25 17.10 153 15.15Q154.75 13.20 156.88 12.25Q159 11.30 161.15 11.30Q163 11.30 164.75 12Q166.50 12.70 167.88 14.10Q169.25 15.50 170.05 17.63Q170.85 19.75 170.85 22.55L170.85 34.20L167.85 34.20L167.85 32.30Q166.90 33.45 165.67 34.03Q164.45 34.60 163 34.60Q161.10 34.60 159.60 33.75Q158.10 32.90 157.22 31.40Q156.35 29.90 156.35 28Q156.35 26.30 157.05 24.90Q157.75 23.50 159.17 22.50Q160.60 21.50 162.72 21.03Q164.85 20.55 167.70 20.75Q167.70 18.85 166.90 17.33Q166.10 15.80 164.60 14.90Q163.10 14 161 14Q159.20 14 157.60 14.75Q156 15.50 154.75 17.08Q153.50 18.65 152.78 21.05Q152.05 23.45 152.05 26.75Q152.05 30.35 152.95 32.95Q153.85 35.55 155.38 37.28Q156.90 39 158.78 39.83Q160.65 40.65 162.65 40.65Q164.10 40.65 165.42 40.23Q166.75 39.80 168 39L169.35 41.45Q167.75 42.45 166 42.98Q164.25 43.50 162.35 43.50M163.45 31.85Q164.60 31.85 165.42 31.40Q166.25 30.95 166.80 29.95Q167.35 28.95 167.60 27.30Q167.85 25.65 167.85 23.25Q165.10 23 163.22 23.50Q161.35 24.00 160.40 25.10Q159.45 26.20 159.45 27.80Q159.45 29.65 160.45 30.75Q161.45 31.85 163.45 31.85ZM185.15 43.45Q183.25 43.45 181.53 43.05Q179.80 42.65 178.28 41.85Q176.75 41.05 175.45 39.85L177.45 36.45L177.75 36L178.05 36.20Q178.15 36.60 178.28 37.03Q178.40 37.45 178.95 38.05Q180 39.10 181.47 39.78Q182.95 40.45 185.25 40.45Q187.10 40.45 188.38 40Q189.65 39.55 190.35 38.73Q191.05 37.90 191.05 36.80Q191.05 36.05 190.75 35.48Q190.45 34.90 189.78 34.40Q189.10 33.90 188 33.40Q186.90 32.90 185.30 32.40Q182.70 31.65 180.75 30.65Q178.80 29.65 177.75 28.33Q176.70 27 176.70 25.30Q176.70 23.55 177.65 22.28Q178.60 21 180.47 20.28Q182.35 19.55 185.10 19.55Q186.70 19.55 188 19.78Q189.30 20 190.40 20.45Q191.50 20.90 192.43 21.58Q193.35 22.25 194.20 23.15L192.15 25.65L191.80 26.05L191.55 25.80Q191.50 25.40 191.32 25.03Q191.15 24.65 190.60 24.10Q189.45 23.20 188 22.73Q186.55 22.25 185.20 22.25Q183.20 22.25 181.75 22.95Q180.30 23.65 180.30 25.10Q180.30 25.85 180.82 26.58Q181.35 27.30 182.75 28.03Q184.15 28.75 186.75 29.50Q189.60 30.40 191.32 31.33Q193.05 32.25 193.82 33.45Q194.60 34.65 194.60 36.30Q194.60 38.20 193.57 39.85Q192.55 41.50 190.45 42.48Q188.35 43.45 185.15 43.45L185.15 43.45ZM211.20 43.45Q208.70 43.45 206.65 42.68Q204.60 41.90 203.13 40.40Q201.65 38.90 200.85 36.68Q200.05 34.45 200.05 31.60Q200.05 28.70 200.88 26.45Q201.70 24.20 203.13 22.68Q204.55 21.15 206.47 20.35Q208.40 19.55 210.55 19.55Q212.50 19.55 214.20 20.20Q215.90 20.85 217.15 22.18Q218.40 23.50 219.13 25.55Q219.85 27.60 219.85 30.40Q219.85 30.80 219.82 31.23Q219.80 31.65 219.75 32.05L203.50 32.05Q203.60 34.25 204.25 35.88Q204.90 37.50 205.95 38.53Q207 39.55 208.38 40.05Q209.75 40.55 211.30 40.55Q212.50 40.55 213.55 40.28Q214.60 40 215.53 39.43Q216.45 38.85 217.20 38L219.20 39.95Q218.25 41.10 217.03 41.90Q215.80 42.70 214.35 43.08Q212.90 43.45 211.20 43.45M203.65 29.25L216.20 29.25Q216.20 27.65 215.78 26.38Q215.35 25.10 214.57 24.18Q213.80 23.25 212.72 22.78Q211.65 22.30 210.30 22.30Q209.10 22.30 208.03 22.70Q206.95 23.10 206.05 23.98Q205.15 24.85 204.53 26.15Q203.90 27.45 203.65 29.25ZM233.15 43.50Q229.25 43.50 227.15 41.73Q225.05 39.95 225.05 37.20Q225.05 35.35 225.95 33.88Q226.85 32.40 228.42 31.38Q230 30.35 232.10 29.80Q234.20 29.25 236.55 29.25Q237.40 29.25 238.28 29.28Q239.15 29.30 240.13 29.38Q241.10 29.45 242.15 29.60L242.25 32.35Q241.35 32.20 240.42 32.13Q239.50 32.05 238.60 32Q237.70 31.95 236.85 31.95Q235.05 31.95 233.55 32.25Q232.05 32.55 230.95 33.15Q229.85 33.75 229.25 34.70Q228.65 35.65 228.65 37Q228.65 38.05 229.03 38.78Q229.40 39.50 230.05 39.93Q230.70 40.35 231.57 40.55Q232.45 40.75 233.50 40.75Q235.45 40.75 236.97 40.13Q238.50 39.50 239.57 38.30Q240.65 37.10 241.20 35.35Q241.75 33.60 241.75 31.35Q241.75 27.95 240.95 26.05Q240.15 24.15 238.57 23.35Q237 22.55 234.55 22.55Q232.90 22.55 231.30 23.18Q229.70 23.80 228.40 25.10L226.65 22.80Q228.25 21.20 230.35 20.40Q232.45 19.60 234.80 19.60Q237.05 19.60 238.90 20.15Q240.75 20.70 242.07 21.98Q243.40 23.25 244.13 25.40Q244.85 27.55 244.85 30.80L244.85 42.95L240.95 42.95L240.95 39.45Q240.30 40.70 239.38 41.50Q238.45 42.30 237.40 42.73Q236.35 43.15 235.25 43.33Q234.15 43.50 233.15 43.50ZM260.15 43.45Q258.25 43.45 256.52 43.05Q254.80 42.65 253.28 41.85Q251.75 41.05 250.45 39.85L252.45 36.45L252.75 36L253.05 36.20Q253.15 36.60 253.28 37.03Q253.40 37.45 253.95 38.05Q255 39.10 256.48 39.78Q257.95 40.45 260.25 40.45Q262.10 40.45 263.38 40Q264.65 39.55 265.35 38.73Q266.05 37.90 266.05 36.80Q266.05 36.05 265.75 35.48Q265.45 34.90 264.77 34.40Q264.10 33.90 263 33.40Q261.90 32.90 260.30 32.40Q257.70 31.65 255.75 30.65Q253.80 29.65 252.75 28.33Q251.70 27 251.70 25.30Q251.70 23.55 252.65 22.28Q253.60 21 255.47 20.28Q257.35 19.55 260.10 19.55Q261.70 19.55 263 19.78Q264.30 20 265.40 20.45Q266.50 20.90 267.43 21.58Q268.35 22.25 269.20 23.15L267.15 25.65L266.80 26.05L266.55 25.80Q266.50 25.40 266.32 25.03Q266.15 24.65 265.60 24.10Q264.45 23.20 263 22.73Q261.55 22.25 260.20 22.25Q258.20 22.25 256.75 22.95Q255.30 23.65 255.30 25.10Q255.30 25.85 255.82 26.58Q256.35 27.30 257.75 28.03Q259.15 28.75 261.75 29.50Q264.60 30.40 266.32 31.33Q268.05 32.25 268.82 33.45Q269.60 34.65 269.60 36.30Q269.60 38.20 268.57 39.85Q267.55 41.50 265.45 42.48Q263.35 43.45 260.15 43.45L260.15 43.45ZM284.50 43.50Q283.30 43.50 282.45 42.65Q281.60 41.80 281.60 40.65Q281.60 39.50 282.45 38.65Q283.30 37.80 284.50 37.80Q285.65 37.80 286.50 38.65Q287.35 39.50 287.35 40.65Q287.35 41.80 286.50 42.65Q285.65 43.50 284.50 43.50ZM308.65 43.50Q307.30 43.50 306.10 43.10Q304.90 42.70 303.93 41.88Q302.95 41.05 302.25 39.80Q301.55 38.55 301.18 36.80Q300.80 35.05 300.80 32.85L300.85 20.10L304.35 20.10L304.35 32.85Q304.35 35 304.75 36.50Q305.15 38 305.88 38.90Q306.60 39.80 307.55 40.20Q308.50 40.60 309.55 40.60Q310.75 40.60 311.85 40.13Q312.95 39.65 313.83 38.70Q314.70 37.75 315.20 36.25Q315.70 34.75 315.70 32.70L315.70 20.10L319.20 20.10L319.20 39.40Q319.20 40.30 319.28 41.18Q319.35 42.05 319.70 42.95L316.25 42.95Q316 42.35 315.90 41.78Q315.80 41.20 315.78 40.60Q315.75 40 315.75 39.45Q315.20 40.40 314.45 41.15Q313.70 41.90 312.78 42.43Q311.85 42.95 310.83 43.23Q309.80 43.50 308.65 43.50ZM325.60 51.30L325.60 20.10L329.25 20.10L329.25 24.60Q329.80 22.85 330.83 21.75Q331.85 20.65 333.23 20.13Q334.60 19.60 336.20 19.60Q338.10 19.60 339.83 20.33Q341.55 21.05 342.88 22.50Q344.20 23.95 344.98 26.15Q345.75 28.35 345.75 31.35Q345.75 34.35 344.93 36.65Q344.10 38.95 342.73 40.48Q341.35 42 339.63 42.78Q337.90 43.55 336.10 43.55Q334.75 43.55 333.48 43.13Q332.20 42.70 331.15 41.88Q330.10 41.05 329.30 39.95L329.30 51.30L325.60 51.30M335.50 40.35Q336.70 40.35 337.85 39.93Q339 39.50 339.95 38.50Q340.90 37.50 341.45 35.78Q342 34.05 342 31.50Q342 28.75 341.30 26.83Q340.60 24.90 339.28 23.85Q337.95 22.80 336.05 22.70Q334.65 22.60 333.43 23.10Q332.20 23.60 331.25 24.75Q330.30 25.90 329.78 27.78Q329.25 29.65 329.25 32.30Q329.30 33.90 329.60 35.20Q329.90 36.50 330.45 37.48Q331 38.45 331.75 39.08Q332.50 39.70 333.45 40.03Q334.40 40.35 335.50 40.35ZM361.20 43.45Q358.70 43.45 356.65 42.68Q354.60 41.90 353.13 40.40Q351.65 38.90 350.85 36.68Q350.05 34.45 350.05 31.60Q350.05 28.70 350.88 26.45Q351.70 24.20 353.13 22.68Q354.55 21.15 356.48 20.35Q358.40 19.55 360.55 19.55Q362.50 19.55 364.20 20.20Q365.90 20.85 367.15 22.18Q368.40 23.50 369.13 25.55Q369.85 27.60 369.85 30.40Q369.85 30.80 369.83 31.23Q369.80 31.65 369.75 32.05L353.50 32.05Q353.60 34.25 354.25 35.88Q354.90 37.50 355.95 38.53Q357 39.55 358.38 40.05Q359.75 40.55 361.30 40.55Q362.50 40.55 363.55 40.28Q364.60 40 365.53 39.43Q366.45 38.85 367.20 38L369.20 39.95Q368.25 41.10 367.03 41.90Q365.80 42.70 364.35 43.08Q362.90 43.45 361.20 43.45M353.65 29.25L366.20 29.25Q366.20 27.65 365.78 26.38Q365.35 25.10 364.58 24.18Q363.80 23.25 362.73 22.78Q361.65 22.30 360.30 22.30Q359.10 22.30 358.03 22.70Q356.95 23.10 356.05 23.98Q355.15 24.85 354.53 26.15Q353.90 27.45 353.65 29.25ZM376.20 42.95L376.20 20.10L379.70 20.10L379.70 24.15Q380.60 22.75 381.80 21.73Q383 20.70 384.45 20.13Q385.90 19.55 387.45 19.55Q389.35 19.55 390.85 20.50Q392.35 21.45 393.25 23.55Q394.15 25.65 394.15 29.10L394.15 42.95L390.65 42.95L390.65 29.20Q390.65 26.80 390.10 25.38Q389.55 23.95 388.60 23.33Q387.65 22.70 386.45 22.70Q385.30 22.70 384.13 23.20Q382.95 23.70 381.95 24.63Q380.95 25.55 380.33 26.85Q379.70 28.15 379.70 29.80L379.70 42.95L376.20 42.95ZM401.20 42.95L401.20 20.10L404.70 20.10L404.70 24.15Q405.60 22.75 406.80 21.73Q408 20.70 409.45 20.13Q410.90 19.55 412.45 19.55Q414.35 19.55 415.85 20.50Q417.35 21.45 418.25 23.55Q419.15 25.65 419.15 29.10L419.15 42.95L415.65 42.95L415.65 29.20Q415.65 26.80 415.10 25.38Q414.55 23.95 413.60 23.33Q412.65 22.70 411.45 22.70Q410.30 22.70 409.13 23.20Q407.95 23.70 406.95 24.63Q405.95 25.55 405.33 26.85Q404.70 28.15 404.70 29.80L404.70 42.95L401.20 42.95ZM434.50 43.50Q433.30 43.50 432.45 42.65Q431.60 41.80 431.60 40.65Q431.60 39.50 432.45 38.65Q433.30 37.80 434.50 37.80Q435.65 37.80 436.50 38.65Q437.35 39.50 437.35 40.65Q437.35 41.80 436.50 42.65Q435.65 43.50 434.50 43.50ZM461.20 43.45Q458.70 43.45 456.65 42.68Q454.60 41.90 453.13 40.40Q451.65 38.90 450.85 36.68Q450.05 34.45 450.05 31.60Q450.05 28.70 450.88 26.45Q451.70 24.20 453.13 22.68Q454.55 21.15 456.48 20.35Q458.40 19.55 460.55 19.55Q462.50 19.55 464.20 20.20Q465.90 20.85 467.15 22.18Q468.40 23.50 469.13 25.55Q469.85 27.60 469.85 30.40Q469.85 30.80 469.83 31.23Q469.80 31.65 469.75 32.05L453.50 32.05Q453.60 34.25 454.25 35.88Q454.90 37.50 455.95 38.53Q457 39.55 458.38 40.05Q459.75 40.55 461.30 40.55Q462.50 40.55 463.55 40.28Q464.60 40 465.53 39.43Q466.45 38.85 467.20 38L469.20 39.95Q468.25 41.10 467.03 41.90Q465.80 42.70 464.35 43.08Q462.90 43.45 461.20 43.45M453.65 29.25L466.20 29.25Q466.20 27.65 465.78 26.38Q465.35 25.10 464.58 24.18Q463.80 23.25 462.73 22.78Q461.65 22.30 460.30 22.30Q459.10 22.30 458.03 22.70Q456.95 23.10 456.05 23.98Q455.15 24.85 454.53 26.15Q453.90 27.45 453.65 29.25ZM484.30 43.45Q482.55 43.45 480.88 42.70Q479.20 41.95 477.83 40.45Q476.45 38.95 475.65 36.65Q474.85 34.35 474.85 31.30Q474.85 28.15 475.70 25.93Q476.55 23.70 477.95 22.28Q479.35 20.85 481.05 20.18Q482.75 19.50 484.50 19.50Q486.10 19.50 487.38 20Q488.65 20.50 489.63 21.38Q490.60 22.25 491.15 23.45L491.15 9.70L494.45 9.70L494.95 9.70L494.95 10.05Q494.65 10.35 494.58 10.70Q494.50 11.05 494.50 11.90L494.55 39.40Q494.55 40.30 494.63 41.18Q494.70 42.05 495.05 42.95L491.50 42.95Q491.25 42.35 491.15 41.75Q491.05 41.15 491.03 40.58Q491 40 491 39.40Q490.30 40.60 489.30 41.53Q488.30 42.45 487.05 42.95Q485.80 43.45 484.30 43.45L484.30 43.45M484.85 40.30Q486.50 40.30 487.65 39.63Q488.80 38.95 489.50 37.73Q490.20 36.50 490.53 34.88Q490.85 33.25 490.85 31.40Q490.85 28.85 490.20 26.83Q489.55 24.80 488.15 23.63Q486.75 22.45 484.55 22.45Q483.05 22.45 481.88 23.03Q480.70 23.60 479.93 24.70Q479.15 25.80 478.75 27.33Q478.35 28.85 478.35 30.75Q478.35 33.60 479.10 35.75Q479.85 37.90 481.30 39.10Q482.75 40.30 484.85 40.30L484.85 40.30ZM508.65 43.50Q507.30 43.50 506.10 43.10Q504.90 42.70 503.93 41.88Q502.95 41.05 502.25 39.80Q501.55 38.55 501.18 36.80Q500.80 35.05 500.80 32.85L500.85 20.10L504.35 20.10L504.35 32.85Q504.35 35 504.75 36.50Q505.15 38 505.88 38.90Q506.60 39.80 507.55 40.20Q508.50 40.60 509.55 40.60Q510.75 40.60 511.85 40.13Q512.95 39.65 513.83 38.70Q514.70 37.75 515.20 36.25Q515.70 34.75 515.70 32.70L515.70 20.10L519.20 20.10L519.20 39.40Q519.20 40.30 519.27 41.18Q519.35 42.05 519.70 42.95L516.25 42.95Q516 42.35 515.90 41.78Q515.80 41.20 515.77 40.60Q515.75 40 515.75 39.45Q515.20 40.40 514.45 41.15Q513.70 41.90 512.77 42.43Q511.85 42.95 510.83 43.23Q509.80 43.50 508.65 43.50Z"/></g></g></svg>