<svg xmlns="http://www.w3.org/2000/svg" viewBox="0 9.600000381469727 520.0999755859375 42.099998474121094" data-asc="0.859" width="520.0999755859375" height="42.099998474121094"><defs/><g fill="#e5e5e5"><g transform="translate(0, 0)"><path d="M7.45 51.70Q5.25 51.70 3.30 50.85Q1.35 50 0 48.35L2.35 45.20L2.65 44.80L2.95 45.05Q3.05 45.45 3.20 45.83Q3.35 46.20 3.90 46.80Q4.55 47.35 5.42 47.70Q6.30 48.05 7.40 48.05Q8.85 48.05 9.90 47.43Q10.95 46.80 11.53 45.48Q12.10 44.15 12.10 42.05L12.10 23.40L3.75 23.40L3.75 19.95L16.45 19.95L16.45 41.75Q16.45 45.25 15.20 47.45Q13.95 49.65 11.93 50.68Q9.90 51.70 7.45 51.70L7.45 51.70M13.95 15.50Q12.75 15.50 11.90 14.65Q11.05 13.80 11.05 12.65Q11.05 11.40 11.88 10.60Q12.70 9.80 13.95 9.80Q15.10 9.80 15.98 10.65Q16.85 11.50 16.85 12.65Q16.85 13.80 15.98 14.65Q15.10 15.50 13.95 15.50ZM33.15 43.50Q29.25 43.50 27.15 41.73Q25.05 39.95 25.05 37.15Q25.05 35.30 25.93 33.78Q26.80 32.25 28.40 31.20Q30 30.15 32.20 29.58Q34.40 29 37.05 29Q37.75 29 38.53 29Q39.30 29 40.17 29.08Q41.05 29.15 41.95 29.25L42.10 32.40Q41.30 32.30 40.45 32.23Q39.60 32.15 38.78 32.13Q37.95 32.10 37.20 32.10Q35.35 32.10 33.88 32.40Q32.40 32.70 31.40 33.28Q30.40 33.85 29.85 34.73Q29.30 35.60 29.30 36.75Q29.30 37.75 29.65 38.40Q30 39.05 30.60 39.45Q31.20 39.85 32 40.03Q32.80 40.20 33.75 40.20Q35.55 40.20 36.92 39.63Q38.30 39.05 39.28 37.90Q40.25 36.75 40.75 35.08Q41.25 33.40 41.25 31.15Q41.25 27.95 40.53 26.15Q39.80 24.35 38.35 23.63Q36.90 22.90 34.70 22.90Q33.05 22.90 31.52 23.48Q30 24.05 28.65 25.40L26.45 22.75Q28.20 21.05 30.40 20.25Q32.60 19.45 34.95 19.45Q37.20 19.45 39.05 19.98Q40.90 20.50 42.28 21.75Q43.65 23 44.40 25.10Q45.15 27.20 45.15 30.40L45.15 42.95L40.60 42.95L40.60 39.80Q39.95 40.90 39.08 41.63Q38.20 42.35 37.23 42.75Q36.25 43.15 35.20 43.33Q34.15 43.50 33.15 43.50ZM50.15 40.20L63.85 23.60L51.15 23.60L51.15 19.95L69.30 19.95L69.30 22.80L55.80 39.35L68.25 39.35Q69.10 39.35 69.45 39.25Q69.80 39.15 70.10 38.85L70.45 38.85L70.45 39.35L70.45 42.95L50.15 42.95L50.15 40.20ZM83.15 43.50Q79.25 43.50 77.15 41.73Q75.05 39.95 75.05 37.15Q75.05 35.30 75.92 33.78Q76.80 32.25 78.40 31.20Q80 30.15 82.20 29.58Q84.40 29 87.05 29Q87.75 29 88.53 29Q89.30 29 90.17 29.08Q91.05 29.15 91.95 29.25L92.10 32.40Q91.30 32.30 90.45 32.23Q89.60 32.15 88.78 32.13Q87.95 32.10 87.20 32.10Q85.35 32.10 83.88 32.40Q82.40 32.70 81.40 33.28Q80.40 33.85 79.85 34.73Q79.30 35.60 79.30 36.75Q79.30 37.75 79.65 38.40Q80 39.05 80.60 39.45Q81.20 39.85 82 40.03Q82.80 40.20 83.75 40.20Q85.55 40.20 86.92 39.63Q88.30 39.05 89.28 37.90Q90.25 36.75 90.75 35.08Q91.25 33.40 91.25 31.15Q91.25 27.95 90.53 26.15Q89.80 24.35 88.35 23.63Q86.90 22.90 84.70 22.90Q83.05 22.90 81.52 23.48Q80 24.05 78.65 25.40L76.45 22.75Q78.20 21.05 80.40 20.25Q82.60 19.45 84.95 19.45Q87.20 19.45 89.05 19.98Q90.90 20.50 92.28 21.75Q93.65 23 94.40 25.10Q95.15 27.20 95.15 30.40L95.15 42.95L90.60 42.95L90.60 39.80Q89.95 40.90 89.08 41.63Q88.20 42.35 87.22 42.75Q86.25 43.15 85.20 43.33Q84.15 43.50 83.15 43.50ZM101.50 42.95L101.50 39.55L108.15 39.55L108.15 13L101.80 13L101.80 9.60L112.50 9.60L112.50 39.55L119.15 39.55L119.15 42.95L101.50 42.95ZM127.55 42.95L127.55 39.55L133.35 39.55L133.35 23.40L127.85 23.40L127.85 19.95L137.65 19.95L137.65 39.55L142.95 39.55L142.95 42.95L127.55 42.95M135.25 15.50Q134.05 15.50 133.20 14.65Q132.35 13.80 132.35 12.65Q132.35 11.40 133.18 10.60Q134 9.80 135.25 9.80Q136.40 9.80 137.28 10.65Q138.15 11.50 138.15 12.65Q138.15 13.80 137.28 14.65Q136.40 15.50 135.25 15.50ZM162.55 43.50Q160.05 43.50 157.65 42.53Q155.25 41.55 153.38 39.55Q151.50 37.55 150.38 34.50Q149.25 31.45 149.25 27.25Q149.25 23.15 150.30 20.13Q151.35 17.10 153.10 15.15Q154.85 13.20 157 12.25Q159.15 11.30 161.35 11.30Q163.35 11.30 165.15 12Q166.95 12.70 168.30 14.13Q169.65 15.55 170.43 17.75Q171.20 19.95 171.20 22.85L171.20 34.30L167.70 34.30L167.70 32.55Q166.85 33.60 165.70 34.15Q164.55 34.70 163.10 34.70Q161.20 34.70 159.70 33.85Q158.20 33 157.35 31.48Q156.50 29.95 156.50 28.05Q156.50 26.30 157.15 24.88Q157.80 23.45 159.18 22.43Q160.55 21.40 162.65 20.90Q164.75 20.40 167.55 20.55Q167.55 18.70 166.78 17.30Q166 15.90 164.60 15.10Q163.20 14.30 161.20 14.30Q159.50 14.30 157.95 15.03Q156.40 15.75 155.20 17.30Q154 18.85 153.30 21.20Q152.60 23.55 152.60 26.80Q152.60 30.30 153.45 32.83Q154.30 35.35 155.78 37Q157.25 38.65 159.08 39.45Q160.90 40.25 162.85 40.25Q164.25 40.25 165.60 39.83Q166.95 39.40 168.20 38.50L169.80 41.30Q168.20 42.35 166.35 42.93Q164.50 43.50 162.55 43.50M163.65 31.60Q164.70 31.60 165.48 31.18Q166.25 30.75 166.75 29.80Q167.25 28.85 167.50 27.30Q167.75 25.75 167.75 23.50Q165.10 23.30 163.40 23.80Q161.70 24.30 160.85 25.33Q160 26.35 160 27.80Q160 29.60 160.90 30.60Q161.80 31.60 163.65 31.60ZM185.50 43.45Q183.50 43.45 181.70 43.08Q179.90 42.70 178.35 41.88Q176.80 41.05 175.45 39.85L177.60 36.05L177.90 35.60L178.20 35.80Q178.35 36.20 178.48 36.63Q178.60 37.05 179.15 37.65Q180.30 38.70 181.80 39.35Q183.30 40 185.60 40Q187.30 40 188.48 39.58Q189.65 39.15 190.28 38.43Q190.90 37.70 190.90 36.70Q190.90 36 190.60 35.48Q190.30 34.95 189.65 34.50Q189 34.05 187.90 33.58Q186.80 33.10 185.25 32.65Q182.70 31.90 180.78 30.93Q178.85 29.95 177.80 28.60Q176.75 27.25 176.75 25.50Q176.75 23.65 177.78 22.30Q178.80 20.95 180.73 20.18Q182.65 19.40 185.40 19.40Q186.95 19.40 188.25 19.63Q189.55 19.85 190.68 20.30Q191.80 20.75 192.78 21.43Q193.75 22.10 194.60 23L192.30 25.95L191.95 26.35L191.70 26.10Q191.65 25.70 191.48 25.33Q191.30 24.95 190.70 24.40Q189.60 23.55 188.23 23.10Q186.85 22.65 185.50 22.65Q183.60 22.65 182.23 23.30Q180.85 23.95 180.85 25.30Q180.85 26.05 181.40 26.70Q181.95 27.35 183.30 28Q184.65 28.65 187.10 29.30Q189.90 30.15 191.65 31.10Q193.40 32.05 194.20 33.30Q195 34.55 195 36.25Q195 38.15 193.95 39.83Q192.90 41.50 190.78 42.48Q188.65 43.45 185.50 43.45L185.50 43.45ZM211.40 43.45Q208.90 43.45 206.83 42.68Q204.75 41.90 203.23 40.40Q201.70 38.90 200.90 36.65Q200.10 34.40 200.10 31.55Q200.10 28.65 200.93 26.40Q201.75 24.15 203.20 22.60Q204.65 21.05 206.60 20.23Q208.55 19.40 210.75 19.40Q212.70 19.40 214.45 20.08Q216.20 20.75 217.48 22.10Q218.75 23.45 219.50 25.53Q220.25 27.60 220.25 30.40Q220.25 30.85 220.23 31.38Q220.20 31.90 220.15 32.30L204.20 32.30Q204.30 34.35 204.93 35.83Q205.55 37.30 206.55 38.23Q207.55 39.15 208.83 39.60Q210.10 40.05 211.55 40.05Q212.70 40.05 213.73 39.80Q214.75 39.55 215.65 39Q216.55 38.45 217.30 37.65L219.60 39.85Q218.60 41.05 217.33 41.88Q216.05 42.70 214.58 43.08Q213.10 43.45 211.40 43.45M204.35 29.05L216 29.05Q216 27.55 215.60 26.40Q215.20 25.25 214.50 24.40Q213.80 23.55 212.78 23.13Q211.75 22.70 210.50 22.70Q209.35 22.70 208.35 23.08Q207.35 23.45 206.53 24.25Q205.70 25.05 205.13 26.23Q204.55 27.40 204.35 29.05ZM233.15 43.50Q229.25 43.50 227.15 41.73Q225.05 39.95 225.05 37.15Q225.05 35.30 225.93 33.78Q226.80 32.25 228.40 31.20Q230 30.15 232.20 29.58Q234.40 29 237.05 29Q237.75 29 238.53 29Q239.30 29 240.18 29.08Q241.05 29.15 241.95 29.25L242.10 32.40Q241.30 32.30 240.45 32.23Q239.60 32.15 238.78 32.13Q237.95 32.10 237.20 32.10Q235.35 32.10 233.88 32.40Q232.40 32.70 231.40 33.28Q230.40 33.85 229.85 34.73Q229.30 35.60 229.30 36.75Q229.30 37.75 229.65 38.40Q230 39.05 230.60 39.45Q231.20 39.85 232 40.03Q232.80 40.20 233.75 40.20Q235.55 40.20 236.93 39.63Q238.30 39.05 239.28 37.90Q240.25 36.75 240.75 35.08Q241.25 33.40 241.25 31.15Q241.25 27.95 240.53 26.15Q239.80 24.35 238.35 23.63Q236.90 22.90 234.70 22.90Q233.05 22.90 231.53 23.48Q230 24.05 228.65 25.40L226.45 22.75Q228.20 21.05 230.40 20.25Q232.60 19.45 234.95 19.45Q237.20 19.45 239.05 19.98Q240.90 20.50 242.28 21.75Q243.65 23 244.40 25.10Q245.15 27.20 245.15 30.40L245.15 42.95L240.60 42.95L240.60 39.80Q239.95 40.90 239.08 41.63Q238.20 42.35 237.23 42.75Q236.25 43.15 235.20 43.33Q234.15 43.50 233.15 43.50ZM260.50 43.45Q258.50 43.45 256.70 43.08Q254.90 42.70 253.35 41.88Q251.80 41.05 250.45 39.85L252.60 36.05L252.90 35.60L253.20 35.80Q253.35 36.20 253.48 36.63Q253.60 37.05 254.15 37.65Q255.30 38.70 256.80 39.35Q258.30 40 260.60 40Q262.30 40 263.48 39.58Q264.65 39.15 265.28 38.43Q265.90 37.70 265.90 36.70Q265.90 36 265.60 35.48Q265.30 34.95 264.65 34.50Q264 34.05 262.90 33.58Q261.80 33.10 260.25 32.65Q257.70 31.90 255.78 30.93Q253.85 29.95 252.80 28.60Q251.75 27.25 251.75 25.50Q251.75 23.65 252.78 22.30Q253.80 20.95 255.73 20.18Q257.65 19.40 260.40 19.40Q261.95 19.40 263.25 19.63Q264.55 19.85 265.68 20.30Q266.80 20.75 267.78 21.43Q268.75 22.10 269.60 23L267.30 25.95L266.95 26.35L266.70 26.10Q266.65 25.70 266.48 25.33Q266.30 24.95 265.70 24.40Q264.60 23.55 263.23 23.10Q261.85 22.65 260.50 22.65Q258.60 22.65 257.23 23.30Q255.85 23.95 255.85 25.30Q255.85 26.05 256.40 26.70Q256.95 27.35 258.30 28Q259.65 28.65 262.10 29.30Q264.90 30.15 266.65 31.10Q268.40 32.05 269.20 33.30Q270 34.55 270 36.25Q270 38.15 268.95 39.83Q267.90 41.50 265.78 42.48Q263.65 43.45 260.50 43.45L260.50 43.45ZM284.70 43.50Q283.40 43.50 282.45 42.58Q281.50 41.65 281.50 40.35Q281.50 39.10 282.45 38.15Q283.40 37.20 284.70 37.20Q286 37.20 286.93 38.15Q287.85 39.10 287.85 40.35Q287.85 41.65 286.93 42.58Q286 43.50 284.70 43.50ZM308.70 43.50Q307.35 43.50 306.13 43.13Q304.90 42.75 303.93 41.93Q302.95 41.10 302.23 39.88Q301.50 38.65 301.13 36.93Q300.75 35.20 300.75 33L300.80 19.95L305 19.95L305 33Q305 34.95 305.35 36.33Q305.70 37.70 306.35 38.53Q307 39.35 307.88 39.70Q308.75 40.05 309.70 40.05Q310.85 40.05 311.88 39.63Q312.90 39.20 313.68 38.30Q314.45 37.40 314.90 36.03Q315.35 34.65 315.35 32.80L315.35 19.95L319.60 19.95L319.60 39.35Q319.60 40.30 319.68 41.18Q319.75 42.05 320.10 42.95L316.05 42.95Q315.80 42.40 315.70 41.85Q315.60 41.30 315.57 40.73Q315.55 40.15 315.55 39.60Q315 40.55 314.28 41.28Q313.55 42 312.65 42.50Q311.75 43 310.78 43.25Q309.80 43.50 308.70 43.50ZM325.60 51.30L325.60 19.95L329.90 19.95L329.90 24.05Q330.50 22.45 331.53 21.43Q332.55 20.40 333.88 19.93Q335.20 19.45 336.70 19.45Q338.60 19.45 340.30 20.20Q342 20.95 343.30 22.43Q344.60 23.90 345.38 26.13Q346.15 28.35 346.15 31.35Q346.15 34.40 345.35 36.70Q344.55 39 343.18 40.50Q341.80 42 340.10 42.78Q338.40 43.55 336.60 43.55Q335.30 43.55 334.05 43.18Q332.80 42.80 331.78 42.05Q330.75 41.30 330 40.30L330 51.30L325.60 51.30M335.70 39.95Q336.85 39.95 337.93 39.53Q339 39.10 339.88 38.13Q340.75 37.15 341.25 35.50Q341.75 33.85 341.75 31.35Q341.75 28.75 341.10 26.93Q340.45 25.10 339.20 24.10Q337.95 23.10 336.15 23Q334.80 22.90 333.68 23.40Q332.55 23.90 331.70 25.00Q330.85 26.10 330.40 27.85Q329.95 29.60 329.95 32.10Q330 33.70 330.25 34.95Q330.50 36.20 331 37.15Q331.50 38.10 332.18 38.70Q332.85 39.30 333.75 39.63Q334.65 39.95 335.70 39.95ZM361.40 43.45Q358.90 43.45 356.82 42.68Q354.75 41.90 353.23 40.40Q351.70 38.90 350.90 36.65Q350.10 34.40 350.10 31.55Q350.10 28.65 350.93 26.40Q351.75 24.15 353.20 22.60Q354.65 21.05 356.60 20.23Q358.55 19.40 360.75 19.40Q362.70 19.40 364.45 20.08Q366.20 20.75 367.48 22.10Q368.75 23.45 369.50 25.53Q370.25 27.60 370.25 30.40Q370.25 30.85 370.23 31.38Q370.20 31.90 370.15 32.30L354.20 32.30Q354.30 34.35 354.93 35.83Q355.55 37.30 356.55 38.23Q357.55 39.15 358.82 39.60Q360.10 40.05 361.55 40.05Q362.70 40.05 363.73 39.80Q364.75 39.55 365.65 39Q366.55 38.45 367.30 37.65L369.60 39.85Q368.60 41.05 367.32 41.88Q366.05 42.70 364.57 43.08Q363.10 43.45 361.40 43.45M354.35 29.05L366 29.05Q366 27.55 365.60 26.40Q365.20 25.25 364.50 24.40Q363.80 23.55 362.78 23.13Q361.75 22.70 360.50 22.70Q359.35 22.70 358.35 23.08Q357.35 23.45 356.53 24.25Q355.70 25.05 355.13 26.23Q354.55 27.40 354.35 29.05ZM376.10 42.95L376.10 19.95L380.35 19.95L380.35 23.75Q381.20 22.45 382.35 21.48Q383.50 20.50 384.88 19.95Q386.25 19.40 387.75 19.40Q389.70 19.40 391.25 20.38Q392.80 21.35 393.75 23.45Q394.70 25.55 394.70 29.05L394.70 42.95L390.50 42.95L390.50 29.15Q390.50 26.90 390 25.55Q389.50 24.20 388.60 23.58Q387.70 22.95 386.55 22.95Q385.50 22.95 384.40 23.43Q383.30 23.90 382.38 24.75Q381.45 25.60 380.90 26.83Q380.35 28.05 380.35 29.55L380.35 42.95L376.10 42.95ZM401.10 42.95L401.10 19.95L405.35 19.95L405.35 23.75Q406.20 22.45 407.35 21.48Q408.50 20.50 409.88 19.95Q411.25 19.40 412.75 19.40Q414.70 19.40 416.25 20.38Q417.80 21.35 418.75 23.45Q419.70 25.55 419.70 29.05L419.70 42.95L415.50 42.95L415.50 29.15Q415.50 26.90 415 25.55Q414.50 24.20 413.60 23.58Q412.70 22.95 411.55 22.95Q410.50 22.95 409.40 23.43Q408.30 23.90 407.38 24.75Q406.45 25.60 405.90 26.83Q405.35 28.05 405.35 29.55L405.35 42.95L401.10 42.95ZM434.70 43.50Q433.40 43.50 432.45 42.58Q431.50 41.65 431.50 40.35Q431.50 39.10 432.45 38.15Q433.40 37.20 434.70 37.20Q436 37.20 436.93 38.15Q437.85 39.10 437.85 40.35Q437.85 41.65 436.93 42.58Q436 43.50 434.70 43.50ZM461.40 43.45Q458.90 43.45 456.82 42.68Q454.75 41.90 453.23 40.40Q451.70 38.90 450.90 36.65Q450.10 34.40 450.10 31.55Q450.10 28.65 450.93 26.40Q451.75 24.15 453.20 22.60Q454.65 21.05 456.60 20.23Q458.55 19.40 460.75 19.40Q462.70 19.40 464.45 20.08Q466.20 20.75 467.48 22.10Q468.75 23.45 469.50 25.53Q470.25 27.60 470.25 30.40Q470.25 30.85 470.23 31.38Q470.20 31.90 470.15 32.30L454.20 32.30Q454.30 34.35 454.93 35.83Q455.55 37.30 456.55 38.23Q457.55 39.15 458.82 39.60Q460.10 40.05 461.55 40.05Q462.70 40.05 463.73 39.80Q464.75 39.55 465.65 39Q466.55 38.45 467.30 37.65L469.60 39.85Q468.60 41.05 467.32 41.88Q466.05 42.70 464.57 43.08Q463.10 43.45 461.40 43.45M454.35 29.05L466 29.05Q466 27.55 465.60 26.40Q465.20 25.25 464.50 24.40Q463.80 23.55 462.78 23.13Q461.75 22.70 460.50 22.70Q459.35 22.70 458.35 23.08Q457.35 23.45 456.53 24.25Q455.70 25.05 455.13 26.23Q454.55 27.40 454.35 29.05ZM484.35 43.45Q482.55 43.45 480.85 42.70Q479.15 41.95 477.80 40.45Q476.45 38.95 475.65 36.65Q474.85 34.35 474.85 31.25Q474.85 28.15 475.68 25.93Q476.50 23.70 477.88 22.23Q479.25 20.75 480.95 20.05Q482.65 19.35 484.50 19.35Q485.95 19.35 487.18 19.80Q488.40 20.25 489.32 21.03Q490.25 21.80 490.80 22.90L490.80 9.60L494.85 9.60L495.35 9.60L495.35 10Q495.05 10.30 494.98 10.65Q494.90 11 494.90 11.85L494.95 39.55Q494.95 40.40 495.03 41.25Q495.10 42.10 495.45 42.95L491.25 42.95Q491 42.35 490.90 41.85Q490.80 41.35 490.78 40.83Q490.75 40.30 490.75 39.75Q490.05 40.90 489.10 41.75Q488.15 42.60 486.95 43.03Q485.75 43.45 484.35 43.45L484.35 43.45M485.05 39.85Q486.55 39.85 487.60 39.25Q488.65 38.65 489.30 37.50Q489.95 36.35 490.28 34.78Q490.60 33.20 490.60 31.35Q490.60 28.80 490 26.88Q489.40 24.95 488.10 23.88Q486.80 22.80 484.80 22.80Q483.40 22.80 482.30 23.35Q481.20 23.90 480.50 24.98Q479.80 26.05 479.43 27.53Q479.05 29 479.05 30.85Q479.05 33.60 479.78 35.60Q480.50 37.60 481.85 38.73Q483.20 39.85 485.05 39.85L485.05 39.85ZM508.70 43.50Q507.35 43.50 506.13 43.13Q504.90 42.75 503.93 41.93Q502.95 41.10 502.23 39.88Q501.50 38.65 501.13 36.93Q500.75 35.20 500.75 33L500.80 19.95L505 19.95L505 33Q505 34.95 505.35 36.33Q505.70 37.70 506.35 38.53Q507 39.35 507.88 39.70Q508.75 40.05 509.70 40.05Q510.85 40.05 511.88 39.63Q512.90 39.20 513.67 38.30Q514.45 37.40 514.90 36.03Q515.35 34.65 515.35 32.80L515.35 19.95L519.60 19.95L519.60 39.35Q519.60 40.30 519.67 41.18Q519.75 42.05 520.10 42.95L516.05 42.95Q515.80 42.40 515.70 41.85Q515.60 41.30 515.58 40.73Q515.55 40.15 515.55 39.60Q515 40.55 514.27 41.28Q513.55 42 512.65 42.50Q511.75 43 510.78 43.25Q509.80 43.50 508.70 43.50Z"/></g></g></svg>