<svg xmlns="http://www.w3.org/2000/svg" viewBox="0 11.399999618530273 419.70001220703125 32.099998474121094" data-asc="0.859" width="419.70001220703125" height="32.099998474121094"><defs/><g fill="#e5e5e5"><g transform="translate(0, 0)"><path d="M8.85 37.75L8.85 28.40L0 28.40L0 25.35L8.85 25.35L8.85 16.80L12 16.80L12 25.35L20.55 25.35L20.55 28.40L12 28.40L12 37.75L8.85 37.75ZM35.80 43.45Q32.70 43.45 30.52 41.65Q28.35 39.85 27.23 36.55Q26.10 33.25 26.10 28.75Q26.10 23.15 27.48 19.30Q28.85 15.45 31.33 13.45Q33.80 11.45 37.10 11.45Q39.05 11.45 40.78 12.15Q42.50 12.85 43.95 14.30L41.75 16.80L41.40 17.20L41.15 16.95Q41.10 16.55 40.92 16.20Q40.75 15.85 40.10 15.30Q39.70 15 39.25 14.85Q38.80 14.70 38.30 14.63Q37.80 14.55 37.20 14.55Q36.40 14.55 35.40 14.85Q34.40 15.15 33.40 15.90Q32.40 16.65 31.52 18Q30.65 19.35 30.13 21.48Q29.60 23.60 29.55 26.60Q30.25 25.40 31.30 24.58Q32.35 23.75 33.60 23.30Q34.85 22.85 36.15 22.85Q37.90 22.85 39.45 23.58Q41 24.30 42.17 25.65Q43.35 27 44.03 28.88Q44.70 30.75 44.70 33.05Q44.70 36.15 43.50 38.50Q42.30 40.85 40.30 42.15Q38.30 43.45 35.80 43.45L35.80 43.45M35.95 40.35Q37 40.35 37.98 39.88Q38.95 39.40 39.70 38.50Q40.45 37.60 40.88 36.25Q41.30 34.90 41.30 33.10Q41.30 31.20 40.83 29.85Q40.35 28.50 39.55 27.63Q38.75 26.75 37.77 26.33Q36.80 25.90 35.85 25.90Q34.95 25.90 34.08 26.23Q33.20 26.55 32.40 27.13Q31.60 27.70 30.93 28.45Q30.25 29.20 29.75 30.10Q29.55 31.80 29.88 33.60Q30.20 35.40 31.02 36.93Q31.85 38.45 33.10 39.40Q34.35 40.35 35.95 40.35L35.95 40.35ZM51.40 40.15Q54.10 37.40 56.35 35.15Q58.60 32.90 60.38 30.98Q62.15 29.05 63.40 27.33Q64.65 25.60 65.30 23.93Q65.95 22.25 65.95 20.40Q65.95 18.80 65.55 17.70Q65.15 16.60 64.42 15.93Q63.70 15.25 62.73 14.95Q61.75 14.65 60.65 14.65Q59.45 14.65 58.35 15Q57.25 15.35 56.25 16.03Q55.25 16.70 54.40 17.80Q53.95 18.50 53.85 18.88Q53.75 19.25 53.80 19.65L53.60 19.90L53.20 19.65L50.65 17.65Q51.65 15.70 53.15 14.35Q54.65 13 56.55 12.30Q58.45 11.60 60.60 11.60Q63.25 11.60 65.25 12.68Q67.25 13.75 68.40 15.75Q69.55 17.75 69.55 20.50Q69.55 22.55 68.80 24.48Q68.05 26.40 66.75 28.25Q65.45 30.10 63.70 31.95Q61.95 33.80 59.98 35.78Q58 37.75 55.90 39.90L67.50 39.90Q68.35 39.90 68.70 39.80Q69.05 39.70 69.35 39.40L69.70 39.40L69.70 39.90L69.70 42.95L51.40 42.95L51.40 40.15ZM110.25 43.45Q107.30 43.45 105.17 42.33Q103.05 41.20 101.90 39.30Q100.75 37.40 100.75 35.10Q100.75 33.30 101.53 31.65Q102.30 30 103.70 28.63Q105.10 27.25 107 26.40Q105.60 25.65 104.53 24.53Q103.45 23.40 102.85 22Q102.25 20.60 102.25 19.10Q102.25 16.95 103.17 15.23Q104.10 13.50 105.92 12.45Q107.75 11.40 110.50 11.40Q113.40 11.40 115.20 12.40Q117 13.40 117.88 15.08Q118.75 16.75 118.75 18.80Q118.75 19.90 118.40 21Q118.05 22.10 117.40 23.08Q116.75 24.05 115.85 24.88Q114.95 25.70 113.80 26.30Q115.15 26.90 116.25 27.83Q117.35 28.75 118.15 29.88Q118.95 31 119.38 32.28Q119.80 33.55 119.80 34.90Q119.80 37.35 118.63 39.28Q117.45 41.20 115.33 42.33Q113.20 43.45 110.25 43.45M110.35 40.30Q112.30 40.30 113.60 39.58Q114.90 38.85 115.58 37.63Q116.25 36.40 116.25 34.90Q116.25 33.75 115.78 32.68Q115.30 31.60 114.42 30.68Q113.55 29.75 112.33 29Q111.10 28.25 109.60 27.80Q108.50 28.25 107.53 28.98Q106.55 29.70 105.85 30.63Q105.15 31.55 104.75 32.58Q104.35 33.60 104.35 34.75Q104.35 36.25 105.05 37.50Q105.75 38.75 107.10 39.53Q108.45 40.30 110.35 40.30M111.10 25.05Q112 24.55 112.78 23.85Q113.55 23.15 114.13 22.35Q114.70 21.55 115.03 20.68Q115.35 19.80 115.35 18.90Q115.35 17.70 114.80 16.68Q114.25 15.65 113.15 15Q112.05 14.35 110.40 14.35Q108.75 14.35 107.70 14.98Q106.65 15.60 106.13 16.60Q105.60 17.60 105.60 18.75Q105.60 19.90 106.03 20.80Q106.45 21.70 107.20 22.43Q107.95 23.15 108.95 23.80Q109.95 24.45 111.10 25.05ZM134.25 42.95L134.25 16.10L127.95 17.95L127.15 16L135.30 11.75L137.75 11.75L137.75 42.95L134.25 42.95ZM151.40 40.15Q154.10 37.40 156.35 35.15Q158.60 32.90 160.38 30.98Q162.15 29.05 163.40 27.33Q164.65 25.60 165.30 23.93Q165.95 22.25 165.95 20.40Q165.95 18.80 165.55 17.70Q165.15 16.60 164.43 15.93Q163.70 15.25 162.72 14.95Q161.75 14.65 160.65 14.65Q159.45 14.65 158.35 15Q157.25 15.35 156.25 16.03Q155.25 16.70 154.40 17.80Q153.95 18.50 153.85 18.88Q153.75 19.25 153.80 19.65L153.60 19.90L153.20 19.65L150.65 17.65Q151.65 15.70 153.15 14.35Q154.65 13 156.55 12.30Q158.45 11.60 160.60 11.60Q163.25 11.60 165.25 12.68Q167.25 13.75 168.40 15.75Q169.55 17.75 169.55 20.50Q169.55 22.55 168.80 24.48Q168.05 26.40 166.75 28.25Q165.45 30.10 163.70 31.95Q161.95 33.80 159.97 35.78Q158 37.75 155.90 39.90L167.50 39.90Q168.35 39.90 168.70 39.80Q169.05 39.70 169.35 39.40L169.70 39.40L169.70 39.90L169.70 42.95L151.40 42.95L151.40 40.15ZM209.75 43.50Q207.30 43.50 205.05 42.60Q202.80 41.70 201.20 39.95L203.50 37.20L203.85 36.80L204.10 37.05Q204.15 37.45 204.30 37.83Q204.45 38.20 205 38.80Q205.85 39.55 206.95 40.03Q208.05 40.50 209.60 40.50Q211.60 40.50 212.90 39.70Q214.20 38.90 214.85 37.48Q215.50 36.05 215.50 34.25Q215.50 32.45 214.88 31.20Q214.25 29.95 213.10 29.23Q211.95 28.50 210.35 28.23Q208.75 27.95 206.75 28.15L206.75 25.35Q209.15 25.35 210.68 24.85Q212.20 24.35 213.03 23.50Q213.85 22.65 214.15 21.53Q214.45 20.40 214.45 19.20Q214.45 18.15 214.13 17.30Q213.80 16.45 213.22 15.85Q212.65 15.25 211.82 14.93Q211 14.60 210 14.60Q209 14.60 208.03 14.83Q207.05 15.05 206.13 15.55Q205.20 16.05 204.30 16.90L202.20 14.80Q203.90 13.05 205.93 12.33Q207.95 11.60 209.95 11.60Q212.50 11.60 214.30 12.58Q216.10 13.55 217.07 15.30Q218.05 17.05 218.05 19.35Q218.05 20.95 217.53 22.38Q217 23.80 215.90 24.85Q214.80 25.90 213.15 26.45Q214.90 27 216.25 28.08Q217.60 29.15 218.35 30.70Q219.10 32.25 219.10 34.40Q219.10 36.85 218.03 38.93Q216.95 41 214.88 42.25Q212.80 43.50 209.75 43.50L209.75 43.50ZM226.40 40.15Q229.10 37.40 231.35 35.15Q233.60 32.90 235.38 30.98Q237.15 29.05 238.40 27.33Q239.65 25.60 240.30 23.93Q240.95 22.25 240.95 20.40Q240.95 18.80 240.55 17.70Q240.15 16.60 239.43 15.93Q238.70 15.25 237.72 14.95Q236.75 14.65 235.65 14.65Q234.45 14.65 233.35 15Q232.25 15.35 231.25 16.03Q230.25 16.70 229.40 17.80Q228.95 18.50 228.85 18.88Q228.75 19.25 228.80 19.65L228.60 19.90L228.20 19.65L225.65 17.65Q226.65 15.70 228.15 14.35Q229.65 13 231.55 12.30Q233.45 11.60 235.60 11.60Q238.25 11.60 240.25 12.68Q242.25 13.75 243.40 15.75Q244.55 17.75 244.55 20.50Q244.55 22.55 243.80 24.48Q243.05 26.40 241.75 28.25Q240.45 30.10 238.70 31.95Q236.95 33.80 234.97 35.78Q233 37.75 230.90 39.90L242.50 39.90Q243.35 39.90 243.70 39.80Q244.05 39.70 244.35 39.40L244.70 39.40L244.70 39.90L244.70 42.95L226.40 42.95L226.40 40.15ZM259.75 43.50Q257.30 43.50 255.05 42.60Q252.80 41.70 251.20 39.95L253.50 37.20L253.85 36.80L254.10 37.05Q254.15 37.45 254.30 37.83Q254.45 38.20 255 38.80Q255.85 39.55 256.95 40.03Q258.05 40.50 259.60 40.50Q261.60 40.50 262.90 39.70Q264.20 38.90 264.85 37.48Q265.50 36.05 265.50 34.25Q265.50 32.45 264.88 31.20Q264.25 29.95 263.10 29.23Q261.95 28.50 260.35 28.23Q258.75 27.95 256.75 28.15L256.75 25.35Q259.15 25.35 260.68 24.85Q262.20 24.35 263.02 23.50Q263.85 22.65 264.15 21.53Q264.45 20.40 264.45 19.20Q264.45 18.15 264.13 17.30Q263.80 16.45 263.23 15.85Q262.65 15.25 261.82 14.93Q261 14.60 260 14.60Q259 14.60 258.02 14.83Q257.05 15.05 256.13 15.55Q255.20 16.05 254.30 16.90L252.20 14.80Q253.90 13.05 255.93 12.33Q257.95 11.60 259.95 11.60Q262.50 11.60 264.30 12.58Q266.10 13.55 267.07 15.30Q268.05 17.05 268.05 19.35Q268.05 20.95 267.52 22.38Q267 23.80 265.90 24.85Q264.80 25.90 263.15 26.45Q264.90 27 266.25 28.08Q267.60 29.15 268.35 30.70Q269.10 32.25 269.10 34.40Q269.10 36.85 268.02 38.93Q266.95 41 264.88 42.25Q262.80 43.50 259.75 43.50L259.75 43.50ZM285.20 43.50Q282.35 43.50 279.93 42.25Q277.50 41 275.95 38.70L278.75 36.60L279.15 36.30L279.35 36.55Q279.30 36.95 279.48 37.30Q279.65 37.65 280.15 38.30Q281.15 39.40 282.38 39.93Q283.60 40.45 285.40 40.45Q286.60 40.45 287.70 39.93Q288.80 39.40 289.63 38.45Q290.45 37.50 290.95 36.10Q291.45 34.70 291.45 33Q291.45 31.25 290.95 29.88Q290.45 28.50 289.57 27.55Q288.70 26.60 287.55 26.10Q286.40 25.60 285.05 25.60Q284 25.60 282.93 25.95Q281.85 26.30 280.93 26.95Q280 27.60 279.20 28.55L277 27.65L278.05 11.80L293.85 11.80L293.85 14.95L281 14.95L280.50 23.90Q281.35 23.50 282.18 23.23Q283 22.95 283.88 22.83Q284.75 22.70 285.60 22.70Q287.65 22.70 289.35 23.43Q291.05 24.15 292.32 25.53Q293.60 26.90 294.30 28.83Q295 30.75 295 33.15Q295 36.35 293.70 38.68Q292.40 41 290.20 42.25Q288 43.50 285.20 43.50L285.20 43.50ZM334.75 43.50Q332.30 43.50 330.05 42.60Q327.80 41.70 326.20 39.95L328.50 37.20L328.85 36.80L329.10 37.05Q329.15 37.45 329.30 37.83Q329.45 38.20 330 38.80Q330.85 39.55 331.95 40.03Q333.05 40.50 334.60 40.50Q336.60 40.50 337.90 39.70Q339.20 38.90 339.85 37.48Q340.50 36.05 340.50 34.25Q340.50 32.45 339.88 31.20Q339.25 29.95 338.10 29.23Q336.95 28.50 335.35 28.23Q333.75 27.95 331.75 28.15L331.75 25.35Q334.15 25.35 335.68 24.85Q337.20 24.35 338.02 23.50Q338.85 22.65 339.15 21.53Q339.45 20.40 339.45 19.20Q339.45 18.15 339.13 17.30Q338.80 16.45 338.23 15.85Q337.65 15.25 336.82 14.93Q336 14.60 335 14.60Q334 14.60 333.02 14.83Q332.05 15.05 331.13 15.55Q330.20 16.05 329.30 16.90L327.20 14.80Q328.90 13.05 330.93 12.33Q332.95 11.60 334.95 11.60Q337.50 11.60 339.30 12.58Q341.10 13.55 342.07 15.30Q343.05 17.05 343.05 19.35Q343.05 20.95 342.52 22.38Q342 23.80 340.90 24.85Q339.80 25.90 338.15 26.45Q339.90 27 341.25 28.08Q342.60 29.15 343.35 30.70Q344.10 32.25 344.10 34.40Q344.10 36.85 343.02 38.93Q341.95 41 339.88 42.25Q337.80 43.50 334.75 43.50L334.75 43.50ZM359.15 43.45Q356.85 43.45 355 42.73Q353.15 42 351.70 40.60L353.85 38.15L354.20 37.75L354.45 38Q354.50 38.40 354.70 38.73Q354.90 39.05 355.50 39.60Q356.20 40.05 357 40.25Q357.80 40.45 358.85 40.45Q360.85 40.45 362.27 39.30Q363.70 38.15 364.60 36.20Q365.50 34.25 365.93 31.85Q366.35 29.45 366.35 26.95Q366.35 22.80 365.70 20.08Q365.05 17.35 363.70 16Q362.35 14.65 360.25 14.65Q359 14.65 357.95 15.13Q356.90 15.60 356.13 16.53Q355.35 17.45 354.95 18.75Q354.55 20.05 354.55 21.70Q354.55 23.20 355 24.38Q355.45 25.55 356.25 26.38Q357.05 27.20 358.07 27.65Q359.10 28.10 360.25 28.10Q362 28.10 363.23 27.70Q364.45 27.30 365.45 26.40Q366.45 25.50 367.35 24.05L367.60 27.60Q366.65 28.65 365.60 29.45Q364.55 30.25 363.23 30.70Q361.90 31.15 360.20 31.15Q358.25 31.15 356.60 30.48Q354.95 29.80 353.73 28.55Q352.50 27.30 351.82 25.58Q351.15 23.85 351.15 21.75Q351.15 19.55 351.85 17.70Q352.55 15.85 353.77 14.48Q355 13.10 356.63 12.35Q358.25 11.60 360.10 11.60Q363.05 11.60 365.20 13.30Q367.35 15 368.52 17.98Q369.70 20.95 369.70 24.80Q369.70 31.10 368.43 35.20Q367.15 39.30 364.80 41.33Q362.45 43.35 359.15 43.45L359.15 43.45ZM378.10 35.25L391.45 18.10L392.60 20.45L379.25 37.40L378.10 35.25M385.25 43.50Q382.15 43.50 380 41.65Q377.85 39.80 376.73 36.23Q375.60 32.65 375.60 27.55Q375.60 22.60 376.73 19.03Q377.85 15.45 380 13.53Q382.15 11.60 385.25 11.60Q388.35 11.60 390.50 13.53Q392.65 15.45 393.77 19.03Q394.90 22.60 394.90 27.55Q394.90 32.65 393.77 36.23Q392.65 39.80 390.50 41.65Q388.35 43.50 385.25 43.50M385.25 40.45Q387.15 40.45 388.50 38.95Q389.85 37.45 390.57 34.58Q391.30 31.70 391.30 27.55Q391.30 23.60 390.57 20.73Q389.85 17.85 388.50 16.25Q387.15 14.65 385.25 14.65Q383.35 14.65 382 16.25Q380.65 17.85 379.93 20.73Q379.20 23.60 379.20 27.55Q379.20 31.70 379.93 34.58Q380.65 37.45 382 38.95Q383.35 40.45 385.25 40.45ZM409.15 43.45Q406.85 43.45 405 42.73Q403.15 42 401.70 40.60L403.85 38.15L404.20 37.75L404.45 38Q404.50 38.40 404.70 38.73Q404.90 39.05 405.50 39.60Q406.20 40.05 407 40.25Q407.80 40.45 408.85 40.45Q410.85 40.45 412.27 39.30Q413.70 38.15 414.60 36.20Q415.50 34.25 415.93 31.85Q416.35 29.45 416.35 26.95Q416.35 22.80 415.70 20.08Q415.05 17.35 413.70 16Q412.35 14.65 410.25 14.65Q409 14.65 407.95 15.13Q406.90 15.60 406.13 16.53Q405.35 17.45 404.95 18.75Q404.55 20.05 404.55 21.70Q404.55 23.20 405 24.38Q405.45 25.55 406.25 26.38Q407.05 27.20 408.07 27.65Q409.10 28.10 410.25 28.10Q412 28.10 413.23 27.70Q414.45 27.30 415.45 26.40Q416.45 25.50 417.35 24.05L417.60 27.60Q416.65 28.65 415.60 29.45Q414.55 30.25 413.23 30.70Q411.90 31.15 410.20 31.15Q408.25 31.15 406.60 30.48Q404.95 29.80 403.73 28.55Q402.50 27.30 401.82 25.58Q401.15 23.85 401.15 21.75Q401.15 19.55 401.85 17.70Q402.55 15.85 403.77 14.48Q405 13.10 406.63 12.35Q408.25 11.60 410.10 11.60Q413.05 11.60 415.20 13.30Q417.35 15 418.52 17.98Q419.70 20.95 419.70 24.80Q419.70 31.10 418.43 35.20Q417.15 39.30 414.80 41.33Q412.45 43.35 409.15 43.45L409.15 43.45Z"/></g></g></svg>