<svg xmlns="http://www.w3.org/2000/svg" viewBox="0 11.350000381469727 419.95001220703125 32.150001525878906" data-asc="0.859" width="419.95001220703125" height="32.150001525878906"><defs/><g fill="#000000"><g transform="translate(0, 0)"><path d="M8.70 37.75L8.70 28.60L0 28.60L0 25.10L8.70 25.10L8.70 16.70L12.40 16.70L12.40 25.10L20.80 25.10L20.80 28.60L12.40 28.60L12.40 37.75L8.70 37.75ZM35.90 43.45Q32.70 43.45 30.48 41.65Q28.25 39.85 27.10 36.53Q25.95 33.20 25.95 28.70Q25.95 23.15 27.38 19.30Q28.80 15.45 31.33 13.43Q33.85 11.40 37.15 11.40Q39.15 11.40 41 12.10Q42.85 12.80 44.35 14.30L41.85 17.15L41.55 17.55L41.25 17.25Q41.20 16.85 41 16.53Q40.80 16.20 40.15 15.70Q39.75 15.45 39.33 15.30Q38.90 15.15 38.43 15.10Q37.95 15.05 37.40 15.05Q36.60 15.05 35.65 15.30Q34.70 15.55 33.78 16.25Q32.85 16.95 32.03 18.18Q31.20 19.40 30.68 21.38Q30.15 23.35 30.10 26.15Q30.75 25.05 31.78 24.30Q32.80 23.55 34 23.13Q35.20 22.70 36.40 22.70Q38.20 22.70 39.78 23.40Q41.35 24.10 42.53 25.43Q43.70 26.75 44.38 28.65Q45.05 30.55 45.05 32.90Q45.05 36 43.83 38.40Q42.60 40.80 40.55 42.13Q38.50 43.45 35.90 43.45L35.90 43.45M36 39.90Q37.05 39.90 37.95 39.43Q38.85 38.95 39.55 38.08Q40.25 37.20 40.65 35.93Q41.05 34.65 41.05 32.95Q41.05 31.20 40.60 29.93Q40.15 28.65 39.40 27.85Q38.65 27.05 37.75 26.65Q36.85 26.25 35.95 26.25Q35.10 26.25 34.28 26.55Q33.45 26.85 32.73 27.38Q32 27.90 31.38 28.60Q30.75 29.30 30.25 30.15Q30.10 31.95 30.43 33.68Q30.75 35.40 31.50 36.80Q32.25 38.20 33.40 39.05Q34.55 39.90 36 39.90L36 39.90ZM51.25 39.70Q54 36.90 56.25 34.68Q58.50 32.45 60.25 30.58Q62 28.70 63.20 27.05Q64.40 25.40 65.03 23.78Q65.65 22.15 65.65 20.40Q65.65 18.95 65.28 17.95Q64.90 16.95 64.22 16.33Q63.55 15.70 62.63 15.40Q61.70 15.10 60.65 15.10Q59.50 15.10 58.45 15.43Q57.40 15.75 56.45 16.38Q55.50 17 54.70 18Q54.25 18.70 54.15 19.08Q54.05 19.45 54.10 19.85L53.85 20.10L53.50 19.85L50.50 17.55Q51.55 15.60 53.08 14.25Q54.60 12.90 56.53 12.20Q58.45 11.50 60.60 11.50Q63.30 11.50 65.35 12.60Q67.40 13.70 68.60 15.70Q69.80 17.70 69.80 20.45Q69.80 22.45 69.13 24.33Q68.45 26.20 67.22 27.98Q66 29.75 64.35 31.55Q62.70 33.35 60.75 35.28Q58.80 37.20 56.70 39.40L67.70 39.40Q68.55 39.40 68.90 39.30Q69.25 39.20 69.55 38.90L69.95 38.90L69.95 39.40L69.95 42.95L51.25 42.95L51.25 39.70ZM110.35 43.45Q107.35 43.45 105.15 42.33Q102.95 41.20 101.75 39.30Q100.55 37.40 100.55 35.05Q100.55 33.20 101.32 31.55Q102.10 29.90 103.47 28.58Q104.85 27.25 106.70 26.40Q105.35 25.60 104.30 24.50Q103.25 23.40 102.65 22.03Q102.05 20.65 102.05 19.15Q102.05 17 103.05 15.25Q104.05 13.50 105.95 12.43Q107.85 11.35 110.60 11.35Q113.50 11.35 115.38 12.38Q117.25 13.40 118.20 15.10Q119.15 16.80 119.15 18.85Q119.15 20 118.80 21.10Q118.45 22.20 117.85 23.18Q117.25 24.15 116.38 24.95Q115.50 25.75 114.40 26.35Q115.75 27 116.80 27.90Q117.85 28.80 118.63 29.90Q119.40 31 119.80 32.25Q120.20 33.50 120.20 34.85Q120.20 37.35 118.97 39.28Q117.75 41.20 115.55 42.33Q113.35 43.45 110.35 43.45M110.45 39.80Q112.25 39.80 113.47 39.13Q114.70 38.45 115.32 37.30Q115.95 36.15 115.95 34.75Q115.95 33.65 115.50 32.63Q115.05 31.60 114.22 30.75Q113.40 29.90 112.22 29.18Q111.05 28.45 109.60 28.05Q108.60 28.50 107.70 29.18Q106.80 29.85 106.17 30.73Q105.55 31.60 105.20 32.55Q104.85 33.50 104.85 34.60Q104.85 36.05 105.50 37.23Q106.15 38.40 107.42 39.10Q108.70 39.80 110.45 39.80M111.25 24.95Q112.10 24.45 112.80 23.78Q113.50 23.10 114 22.35Q114.50 21.60 114.80 20.75Q115.10 19.90 115.10 19.05Q115.10 17.95 114.57 17Q114.05 16.05 113.02 15.45Q112 14.85 110.50 14.85Q109 14.85 108.02 15.43Q107.05 16 106.55 16.93Q106.05 17.85 106.05 18.95Q106.05 20 106.45 20.88Q106.85 21.75 107.57 22.45Q108.30 23.15 109.25 23.78Q110.20 24.40 111.25 24.95ZM134 42.95L134 16.70L127.90 18.60L126.95 16.05L135.15 11.75L138.20 11.75L138.20 42.95L134 42.95ZM151.25 39.70Q154 36.90 156.25 34.68Q158.50 32.45 160.25 30.58Q162 28.70 163.20 27.05Q164.40 25.40 165.03 23.78Q165.65 22.15 165.65 20.40Q165.65 18.95 165.28 17.95Q164.90 16.95 164.22 16.33Q163.55 15.70 162.63 15.40Q161.70 15.10 160.65 15.10Q159.50 15.10 158.45 15.43Q157.40 15.75 156.45 16.38Q155.50 17 154.70 18Q154.25 18.70 154.15 19.08Q154.05 19.45 154.10 19.85L153.85 20.10L153.50 19.85L150.50 17.55Q151.55 15.60 153.07 14.25Q154.60 12.90 156.53 12.20Q158.45 11.50 160.60 11.50Q163.30 11.50 165.35 12.60Q167.40 13.70 168.60 15.70Q169.80 17.70 169.80 20.45Q169.80 22.45 169.13 24.33Q168.45 26.20 167.22 27.98Q166 29.75 164.35 31.55Q162.70 33.35 160.75 35.28Q158.80 37.20 156.70 39.40L167.70 39.40Q168.55 39.40 168.90 39.30Q169.25 39.20 169.55 38.90L169.95 38.90L169.95 39.40L169.95 42.95L151.25 42.95L151.25 39.70ZM209.75 43.50Q207.20 43.50 204.85 42.60Q202.50 41.70 200.90 39.90L203.35 36.70L203.70 36.30L204 36.55Q204.05 36.95 204.20 37.33Q204.35 37.70 204.90 38.30Q205.80 39.05 206.92 39.53Q208.05 40 209.60 40Q211.45 40 212.67 39.28Q213.90 38.55 214.53 37.23Q215.15 35.90 215.15 34.20Q215.15 32.50 214.57 31.30Q214 30.10 212.88 29.43Q211.75 28.75 210.17 28.50Q208.60 28.25 206.60 28.45L206.60 25.10Q208.95 25.15 210.45 24.70Q211.95 24.25 212.78 23.45Q213.60 22.65 213.92 21.63Q214.25 20.60 214.25 19.45Q214.25 18.45 213.92 17.65Q213.60 16.85 213.05 16.28Q212.50 15.70 211.67 15.38Q210.85 15.05 209.90 15.05Q208.90 15.05 207.92 15.30Q206.95 15.55 206.03 16.05Q205.10 16.55 204.25 17.40L201.80 14.90Q203.50 13.05 205.65 12.28Q207.80 11.50 209.90 11.50Q212.55 11.50 214.45 12.50Q216.35 13.50 217.40 15.28Q218.45 17.05 218.45 19.35Q218.45 21 217.88 22.43Q217.30 23.85 216.20 24.88Q215.10 25.90 213.55 26.45Q215.20 26.95 216.55 28Q217.90 29.05 218.68 30.63Q219.45 32.20 219.45 34.35Q219.45 36.85 218.32 38.93Q217.20 41 215.05 42.25Q212.90 43.50 209.75 43.50L209.75 43.50ZM226.25 39.70Q229 36.90 231.25 34.68Q233.50 32.45 235.25 30.58Q237 28.70 238.20 27.05Q239.40 25.40 240.03 23.78Q240.65 22.15 240.65 20.40Q240.65 18.95 240.28 17.95Q239.90 16.95 239.22 16.33Q238.55 15.70 237.63 15.40Q236.70 15.10 235.65 15.10Q234.50 15.10 233.45 15.43Q232.40 15.75 231.45 16.38Q230.50 17 229.70 18Q229.25 18.70 229.15 19.08Q229.05 19.45 229.10 19.85L228.85 20.10L228.50 19.85L225.50 17.55Q226.55 15.60 228.07 14.25Q229.60 12.90 231.53 12.20Q233.45 11.50 235.60 11.50Q238.30 11.50 240.35 12.60Q242.40 13.70 243.60 15.70Q244.80 17.70 244.80 20.45Q244.80 22.45 244.13 24.33Q243.45 26.20 242.22 27.98Q241 29.75 239.35 31.55Q237.70 33.35 235.75 35.28Q233.80 37.20 231.70 39.40L242.70 39.40Q243.55 39.40 243.90 39.30Q244.25 39.20 244.55 38.90L244.95 38.90L244.95 39.40L244.95 42.95L226.25 42.95L226.25 39.70ZM259.75 43.50Q257.20 43.50 254.85 42.60Q252.50 41.70 250.90 39.90L253.35 36.70L253.70 36.30L254 36.55Q254.05 36.95 254.20 37.33Q254.35 37.70 254.90 38.30Q255.80 39.05 256.93 39.53Q258.05 40 259.60 40Q261.45 40 262.68 39.28Q263.90 38.55 264.52 37.23Q265.15 35.90 265.15 34.20Q265.15 32.50 264.57 31.30Q264 30.10 262.88 29.43Q261.75 28.75 260.18 28.50Q258.60 28.25 256.60 28.45L256.60 25.10Q258.95 25.15 260.45 24.70Q261.95 24.25 262.77 23.45Q263.60 22.65 263.93 21.63Q264.25 20.60 264.25 19.45Q264.25 18.45 263.93 17.65Q263.60 16.85 263.05 16.28Q262.50 15.70 261.68 15.38Q260.85 15.05 259.90 15.05Q258.90 15.05 257.93 15.30Q256.95 15.55 256.02 16.05Q255.10 16.55 254.25 17.40L251.80 14.90Q253.50 13.05 255.65 12.28Q257.80 11.50 259.90 11.50Q262.55 11.50 264.45 12.50Q266.35 13.50 267.40 15.28Q268.45 17.05 268.45 19.35Q268.45 21 267.88 22.43Q267.30 23.85 266.20 24.88Q265.10 25.90 263.55 26.45Q265.20 26.95 266.55 28Q267.90 29.05 268.68 30.63Q269.45 32.20 269.45 34.35Q269.45 36.85 268.32 38.93Q267.20 41 265.05 42.25Q262.90 43.50 259.75 43.50L259.75 43.50ZM285.35 43.50Q282.35 43.50 279.88 42.25Q277.40 41 275.90 38.65L279.05 36.20L279.45 35.90L279.70 36.15Q279.65 36.55 279.83 36.90Q280 37.25 280.50 37.90Q281.45 38.95 282.63 39.45Q283.80 39.95 285.45 39.95Q286.65 39.95 287.70 39.45Q288.75 38.95 289.53 38.05Q290.30 37.15 290.75 35.85Q291.20 34.55 291.20 33Q291.20 31.40 290.75 30.10Q290.30 28.80 289.50 27.90Q288.70 27 287.60 26.50Q286.50 26.00 285.20 26.00Q284.15 26.00 283.13 26.33Q282.10 26.65 281.23 27.28Q280.35 27.90 279.60 28.80L277 27.90L278.05 11.80L294.15 11.80L294.15 15.40L281.60 15.40L281.10 23.75Q281.90 23.35 282.70 23.08Q283.50 22.80 284.35 22.68Q285.20 22.55 286 22.55Q288.05 22.55 289.75 23.28Q291.45 24.00 292.73 25.35Q294 26.70 294.68 28.63Q295.35 30.55 295.35 33Q295.35 36.25 294.03 38.60Q292.70 40.95 290.48 42.23Q288.25 43.50 285.35 43.50L285.35 43.50ZM334.75 43.50Q332.20 43.50 329.85 42.60Q327.50 41.70 325.90 39.90L328.35 36.70L328.70 36.30L329 36.55Q329.05 36.95 329.20 37.33Q329.35 37.70 329.90 38.30Q330.80 39.05 331.93 39.53Q333.05 40 334.60 40Q336.45 40 337.68 39.28Q338.90 38.55 339.53 37.23Q340.15 35.90 340.15 34.20Q340.15 32.50 339.58 31.30Q339 30.10 337.88 29.43Q336.75 28.75 335.18 28.50Q333.60 28.25 331.60 28.45L331.60 25.10Q333.95 25.15 335.45 24.70Q336.95 24.25 337.78 23.45Q338.60 22.65 338.93 21.63Q339.25 20.60 339.25 19.45Q339.25 18.45 338.93 17.65Q338.60 16.85 338.05 16.28Q337.50 15.70 336.68 15.38Q335.85 15.05 334.90 15.05Q333.90 15.05 332.93 15.30Q331.95 15.55 331.03 16.05Q330.10 16.55 329.25 17.40L326.80 14.90Q328.50 13.05 330.65 12.28Q332.80 11.50 334.90 11.50Q337.55 11.50 339.45 12.50Q341.35 13.50 342.40 15.28Q343.45 17.05 343.45 19.35Q343.45 21 342.88 22.43Q342.30 23.85 341.20 24.88Q340.10 25.90 338.55 26.45Q340.20 26.95 341.55 28Q342.90 29.05 343.68 30.63Q344.45 32.20 344.45 34.35Q344.45 36.85 343.33 38.93Q342.20 41 340.05 42.25Q337.90 43.50 334.75 43.50L334.75 43.50ZM359.20 43.45Q356.85 43.45 354.90 42.78Q352.95 42.10 351.35 40.65L353.75 37.60L354.10 37.20L354.40 37.45Q354.45 37.85 354.65 38.18Q354.85 38.50 355.45 39.05Q356.20 39.50 357.03 39.73Q357.85 39.95 358.90 39.95Q360.75 39.95 362.08 38.90Q363.40 37.85 364.25 36.05Q365.10 34.25 365.55 31.95Q366 29.65 366 27.15Q366 22.95 365.40 20.28Q364.80 17.60 363.53 16.33Q362.25 15.05 360.30 15.05Q359.10 15.05 358.10 15.50Q357.10 15.95 356.38 16.85Q355.65 17.75 355.28 19Q354.90 20.25 354.90 21.85Q354.90 23.25 355.33 24.38Q355.75 25.50 356.50 26.28Q357.25 27.05 358.23 27.45Q359.20 27.85 360.30 27.85Q361.90 27.85 363.05 27.50Q364.20 27.15 365.18 26.30Q366.15 25.45 366.95 24.05L367.30 28.05Q366.45 29.05 365.40 29.80Q364.35 30.55 363.03 30.98Q361.70 31.40 360.10 31.40Q358.15 31.40 356.45 30.73Q354.75 30.05 353.50 28.78Q352.25 27.50 351.58 25.73Q350.90 23.95 350.90 21.80Q350.90 19.60 351.63 17.73Q352.35 15.85 353.63 14.45Q354.90 13.05 356.60 12.28Q358.30 11.50 360.25 11.50Q363.30 11.50 365.48 13.20Q367.65 14.90 368.80 17.95Q369.95 21 369.95 25.15Q369.95 31.25 368.68 35.30Q367.40 39.35 365 41.38Q362.60 43.40 359.20 43.45L359.20 43.45ZM378.20 34.70L391.55 18.05L392.65 20.85L379.30 37.35L378.20 34.70M385.35 43.50Q382.20 43.50 379.98 41.65Q377.75 39.80 376.55 36.23Q375.35 32.65 375.35 27.55Q375.35 22.55 376.55 18.98Q377.75 15.40 379.98 13.45Q382.20 11.50 385.35 11.50Q388.50 11.50 390.73 13.45Q392.95 15.40 394.15 18.98Q395.35 22.55 395.35 27.55Q395.35 32.65 394.15 36.23Q392.95 39.80 390.73 41.65Q388.50 43.50 385.35 43.50M385.35 40.05Q387.20 40.05 388.50 38.60Q389.80 37.15 390.50 34.35Q391.20 31.55 391.20 27.55Q391.20 23.70 390.50 20.93Q389.80 18.15 388.50 16.60Q387.20 15.05 385.35 15.05Q383.50 15.05 382.20 16.60Q380.90 18.15 380.20 20.93Q379.50 23.70 379.50 27.55Q379.50 31.55 380.20 34.35Q380.90 37.15 382.20 38.60Q383.50 40.05 385.35 40.05ZM409.20 43.45Q406.85 43.45 404.90 42.78Q402.95 42.10 401.35 40.65L403.75 37.60L404.10 37.20L404.40 37.45Q404.45 37.85 404.65 38.18Q404.85 38.50 405.45 39.05Q406.20 39.50 407.03 39.73Q407.85 39.95 408.90 39.95Q410.75 39.95 412.08 38.90Q413.40 37.85 414.25 36.05Q415.10 34.25 415.55 31.95Q416 29.65 416 27.15Q416 22.95 415.40 20.28Q414.80 17.60 413.53 16.33Q412.25 15.05 410.30 15.05Q409.10 15.05 408.10 15.50Q407.10 15.95 406.38 16.85Q405.65 17.75 405.28 19Q404.90 20.25 404.90 21.85Q404.90 23.25 405.33 24.38Q405.75 25.50 406.50 26.28Q407.25 27.05 408.23 27.45Q409.20 27.85 410.30 27.85Q411.90 27.85 413.05 27.50Q414.20 27.15 415.18 26.30Q416.15 25.45 416.95 24.05L417.30 28.05Q416.45 29.05 415.40 29.80Q414.35 30.55 413.03 30.98Q411.70 31.40 410.10 31.40Q408.15 31.40 406.45 30.73Q404.75 30.05 403.50 28.78Q402.25 27.50 401.58 25.73Q400.90 23.95 400.90 21.80Q400.90 19.60 401.63 17.73Q402.35 15.85 403.63 14.45Q404.90 13.05 406.60 12.28Q408.30 11.50 410.25 11.50Q413.30 11.50 415.48 13.20Q417.65 14.90 418.80 17.95Q419.95 21 419.95 25.15Q419.95 31.25 418.68 35.30Q417.40 39.35 415 41.38Q412.60 43.40 409.20 43.45L409.20 43.45Z"/></g></g></svg>