<svg xmlns="http://www.w3.org/2000/svg" viewBox="0 11.300000190734863 369.3500061035156 32.25" data-asc="0.859" width="369.3500061035156" height="32.25"><defs/><g fill="#000000"><g transform="translate(0, 0)"><path d="M0 42.95L0 39.45L6.15 39.45L6.15 15.30L0.35 15.30L0.35 11.80L16.40 11.80L16.40 15.30L10.25 15.30L10.25 39.50L16.70 39.50L16.70 42.95L0 42.95ZM23.45 11.80L27.65 11.80L39.90 34.05L39.80 11.80L43.70 11.80L44.20 11.80L44.20 12.20Q43.90 12.50 43.83 12.85Q43.75 13.20 43.75 14.05L43.75 42.95L40.15 42.95L27.35 19.35L27.35 42.95L23.45 42.95L23.45 11.80ZM49.85 42.95L49.85 11.75L68.30 11.75L68.30 15.30L53.85 15.30L53.85 24.35L65.50 24.35L65.50 27.90L53.85 27.90L53.85 42.95L49.85 42.95ZM83.70 43.50Q80.05 43.50 77.53 41.65Q75 39.80 73.68 36.20Q72.35 32.60 72.35 27.50Q72.35 22.50 73.68 18.93Q75 15.35 77.53 13.43Q80.05 11.50 83.70 11.50Q87.35 11.50 89.85 13.43Q92.35 15.35 93.68 18.93Q95 22.50 95 27.50Q95 32.60 93.68 36.20Q92.35 39.80 89.85 41.65Q87.35 43.50 83.70 43.50M83.70 39.95Q85.90 39.95 87.48 38.53Q89.05 37.10 89.88 34.33Q90.70 31.55 90.70 27.50Q90.70 23.65 89.88 20.88Q89.05 18.10 87.48 16.60Q85.90 15.10 83.70 15.10Q81.50 15.10 79.90 16.60Q78.30 18.10 77.48 20.88Q76.65 23.65 76.65 27.50Q76.65 31.55 77.48 34.33Q78.30 37.10 79.90 38.53Q81.50 39.95 83.70 39.95ZM110.90 43.50Q108.40 43.50 106 42.53Q103.60 41.55 101.73 39.55Q99.85 37.55 98.73 34.50Q97.60 31.45 97.60 27.25Q97.60 23.15 98.65 20.13Q99.70 17.10 101.45 15.15Q103.20 13.20 105.35 12.25Q107.50 11.30 109.70 11.30Q111.70 11.30 113.50 12Q115.30 12.70 116.65 14.13Q118 15.55 118.78 17.75Q119.55 19.95 119.55 22.85L119.55 34.30L116.05 34.30L116.05 32.55Q115.20 33.60 114.05 34.15Q112.90 34.70 111.45 34.70Q109.55 34.70 108.05 33.85Q106.55 33 105.70 31.48Q104.85 29.95 104.85 28.05Q104.85 26.30 105.50 24.88Q106.15 23.45 107.53 22.43Q108.90 21.40 111 20.90Q113.10 20.40 115.90 20.55Q115.90 18.70 115.13 17.30Q114.35 15.90 112.95 15.10Q111.55 14.30 109.55 14.30Q107.85 14.30 106.30 15.03Q104.75 15.75 103.55 17.30Q102.35 18.85 101.65 21.20Q100.95 23.55 100.95 26.80Q100.95 30.30 101.80 32.83Q102.65 35.35 104.13 37Q105.60 38.65 107.43 39.45Q109.25 40.25 111.20 40.25Q112.60 40.25 113.95 39.83Q115.30 39.40 116.55 38.50L118.15 41.30Q116.55 42.35 114.70 42.93Q112.85 43.50 110.90 43.50M112 31.60Q113.05 31.60 113.83 31.18Q114.60 30.75 115.10 29.80Q115.60 28.85 115.85 27.30Q116.10 25.75 116.10 23.50Q113.45 23.30 111.75 23.80Q110.05 24.30 109.20 25.33Q108.35 26.35 108.35 27.80Q108.35 29.60 109.25 30.60Q110.15 31.60 112 31.60ZM130.90 43.55Q128.65 43.55 126.70 42.70Q124.75 41.85 123.30 40.10L125.55 36.95L125.90 36.55L126.20 36.80Q126.25 37.20 126.43 37.58Q126.60 37.95 127.20 38.50Q128 39.10 128.85 39.43Q129.70 39.75 130.75 39.75Q132.30 39.75 133.30 39.03Q134.30 38.30 134.78 36.65Q135.25 35 135.25 32.35L135.25 15.30L129.35 15.30L129.35 11.80L144.15 11.80L144.15 15.30L139.45 15.30L139.45 32.45Q139.50 35.40 138.83 37.53Q138.15 39.65 136.93 41Q135.70 42.35 134.15 42.95Q132.60 43.55 130.90 43.55L130.90 43.55ZM164.15 34.45L152.55 34.45L153.30 31.30L163.30 31.30L164.15 34.45M158.60 20.20L151.05 42.95L146.90 42.95L158.05 11.35L159.25 11.35L170.40 42.95L166.10 42.95L158.60 20.20ZM173.45 40.10L188.75 15.50L174.05 15.50L174.05 11.80L193.75 11.80L193.75 14.65L178.70 39.30L192.30 39.30Q193.15 39.30 193.50 39.20Q193.85 39.10 194.15 38.80L194.55 38.80L194.55 39.30L194.55 42.95L173.45 42.95L173.45 40.10ZM214.15 34.45L202.55 34.45L203.30 31.30L213.30 31.30L214.15 34.45M208.60 20.20L201.05 42.95L196.90 42.95L208.05 11.35L209.25 11.35L220.40 42.95L216.10 42.95L208.60 20.20ZM224.30 11.80L228.60 11.80L229.10 11.80L229.10 12.20Q228.80 12.50 228.72 12.85Q228.65 13.20 228.65 14.05L228.65 39.40L243.40 39.40L243.40 42.95L224.30 42.95L224.30 11.80ZM250 42.95L250 39.45L256.15 39.45L256.15 15.30L250.35 15.30L250.35 11.80L266.40 11.80L266.40 15.30L260.25 15.30L260.25 39.50L266.70 39.50L266.70 42.95L250 42.95ZM283.05 43.50Q281.75 43.50 280.80 42.58Q279.85 41.65 279.85 40.35Q279.85 39.10 280.80 38.15Q281.75 37.20 283.05 37.20Q284.35 37.20 285.27 38.15Q286.20 39.10 286.20 40.35Q286.20 41.65 285.27 42.58Q284.35 43.50 283.05 43.50ZM308.70 43.50Q305.05 43.50 302.52 41.65Q300 39.80 298.67 36.20Q297.35 32.60 297.35 27.50Q297.35 22.50 298.67 18.93Q300 15.35 302.52 13.43Q305.05 11.50 308.70 11.50Q312.35 11.50 314.85 13.43Q317.35 15.35 318.67 18.93Q320 22.50 320 27.50Q320 32.60 318.67 36.20Q317.35 39.80 314.85 41.65Q312.35 43.50 308.70 43.50M308.70 39.95Q310.90 39.95 312.47 38.53Q314.05 37.10 314.88 34.33Q315.70 31.55 315.70 27.50Q315.70 23.65 314.88 20.88Q314.05 18.10 312.47 16.60Q310.90 15.10 308.70 15.10Q306.50 15.10 304.90 16.60Q303.30 18.10 302.47 20.88Q301.65 23.65 301.65 27.50Q301.65 31.55 302.47 34.33Q303.30 37.10 304.90 38.53Q306.50 39.95 308.70 39.95ZM323.75 42.95L323.75 11.80L333.20 11.80Q336.95 11.80 339.27 12.90Q341.60 14 342.67 16.03Q343.75 18.05 343.75 20.80Q343.75 22.50 343 24.25Q342.25 26.00 340.85 27.30Q339.45 28.60 337.55 29.20L344.60 42.95L340 42.95L333.30 29.45L328.05 29.45L328.05 42.95L323.75 42.95M328.05 25.85L333.60 25.85Q336.60 25.85 338 24.48Q339.40 23.10 339.40 20.85Q339.40 19.40 338.80 18.23Q338.20 17.05 336.90 16.35Q335.60 15.65 333.60 15.65L328.05 15.65L328.05 25.85ZM360 43.45Q356.20 43.45 353.45 41.50Q350.70 39.55 349.22 35.98Q347.75 32.40 347.75 27.65Q347.75 23.65 348.52 20.83Q349.30 18 350.65 16.15Q352 14.30 353.63 13.25Q355.25 12.20 356.88 11.80Q358.50 11.40 359.85 11.40Q361.80 11.40 363.60 12.08Q365.40 12.75 366.90 13.90Q368.40 15.05 369.25 16.70L366.55 19.10L366.15 19.45L365.90 19.15Q365.95 18.75 365.80 18.40Q365.65 18.05 365.10 17.40Q364.40 16.60 363.65 16.08Q362.90 15.55 361.97 15.30Q361.05 15.05 359.90 15.05Q358.60 15.05 357.42 15.40Q356.25 15.75 355.25 16.63Q354.25 17.50 353.50 18.88Q352.75 20.25 352.35 22.28Q351.95 24.30 351.95 27Q351.95 30.15 352.50 32.55Q353.05 34.95 354.13 36.58Q355.20 38.20 356.67 39.03Q358.15 39.85 360 39.85Q360.65 39.85 361.38 39.78Q362.10 39.70 362.82 39.48Q363.55 39.25 364.22 38.90Q364.90 38.55 365.50 38.10L365.50 31.25L360 31.25L360 27.65L369.35 27.65L369.35 40.20Q367.15 41.85 364.77 42.65Q362.40 43.45 360 43.45L360 43.45Z"/></g></g></svg>