<svg xmlns="http://www.w3.org/2000/svg" viewBox="0 11.300000190734863 520.75 32.25" data-asc="0.859" width="520.75" height="32.25"><defs/><g fill="#e0e0e0"><g transform="translate(0, 0)"><path d="M7.60 43.55Q5.35 43.55 3.40 42.70Q1.45 41.85 0 40.10L2.25 36.95L2.60 36.55L2.90 36.80Q2.95 37.20 3.13 37.58Q3.30 37.95 3.90 38.50Q4.70 39.10 5.55 39.43Q6.40 39.75 7.45 39.75Q9 39.75 10 39.03Q11 38.30 11.47 36.65Q11.95 35 11.95 32.35L11.95 15.30L6.05 15.30L6.05 11.80L20.85 11.80L20.85 15.30L16.15 15.30L16.15 32.45Q16.20 35.40 15.53 37.53Q14.85 39.65 13.63 41Q12.40 42.35 10.85 42.95Q9.30 43.55 7.60 43.55L7.60 43.55ZM40.85 34.45L29.25 34.45L30 31.30L40 31.30L40.85 34.45M35.30 20.20L27.75 42.95L23.60 42.95L34.75 11.35L35.95 11.35L47.10 42.95L42.80 42.95L35.30 20.20ZM50.15 40.10L65.45 15.50L50.75 15.50L50.75 11.80L70.45 11.80L70.45 14.65L55.40 39.30L69 39.30Q69.85 39.30 70.20 39.20Q70.55 39.10 70.85 38.80L71.25 38.80L71.25 39.30L71.25 42.95L50.15 42.95L50.15 40.10ZM90.85 34.45L79.25 34.45L80 31.30L90 31.30L90.85 34.45M85.30 20.20L77.75 42.95L73.60 42.95L84.75 11.35L85.95 11.35L97.10 42.95L92.80 42.95L85.30 20.20ZM101 11.80L105.30 11.80L105.80 11.80L105.80 12.20Q105.50 12.50 105.42 12.85Q105.35 13.20 105.35 14.05L105.35 39.40L120.10 39.40L120.10 42.95L101 42.95L101 11.80ZM126.70 42.95L126.70 39.45L132.85 39.45L132.85 15.30L127.05 15.30L127.05 11.80L143.10 11.80L143.10 15.30L136.95 15.30L136.95 39.50L143.40 39.50L143.40 42.95L126.70 42.95ZM162.60 43.50Q160.10 43.50 157.70 42.53Q155.30 41.55 153.42 39.55Q151.55 37.55 150.42 34.50Q149.30 31.45 149.30 27.25Q149.30 23.15 150.35 20.13Q151.40 17.10 153.15 15.15Q154.90 13.20 157.05 12.25Q159.20 11.30 161.40 11.30Q163.40 11.30 165.20 12Q167 12.70 168.35 14.13Q169.70 15.55 170.47 17.75Q171.25 19.95 171.25 22.85L171.25 34.30L167.75 34.30L167.75 32.55Q166.90 33.60 165.75 34.15Q164.60 34.70 163.15 34.70Q161.25 34.70 159.75 33.85Q158.25 33 157.40 31.48Q156.55 29.95 156.55 28.05Q156.55 26.30 157.20 24.88Q157.85 23.45 159.22 22.43Q160.60 21.40 162.70 20.90Q164.80 20.40 167.60 20.55Q167.60 18.70 166.82 17.30Q166.05 15.90 164.65 15.10Q163.25 14.30 161.25 14.30Q159.55 14.30 158 15.03Q156.45 15.75 155.25 17.30Q154.05 18.85 153.35 21.20Q152.65 23.55 152.65 26.80Q152.65 30.30 153.50 32.83Q154.35 35.35 155.82 37Q157.30 38.65 159.13 39.45Q160.95 40.25 162.90 40.25Q164.30 40.25 165.65 39.83Q167 39.40 168.25 38.50L169.85 41.30Q168.25 42.35 166.40 42.93Q164.55 43.50 162.60 43.50M163.70 31.60Q164.75 31.60 165.53 31.18Q166.30 30.75 166.80 29.80Q167.30 28.85 167.55 27.30Q167.80 25.75 167.80 23.50Q165.15 23.30 163.45 23.80Q161.75 24.30 160.90 25.33Q160.05 26.35 160.05 27.80Q160.05 29.60 160.95 30.60Q161.85 31.60 163.70 31.60ZM185.10 43.45Q182.05 43.45 179.53 42.48Q177 41.50 175.15 39.60L177.30 35.95L177.50 35.50L177.85 35.70Q177.95 36.05 178.13 36.48Q178.30 36.90 178.85 37.50Q180.15 38.55 181.80 39.18Q183.45 39.80 185.50 39.80Q186.85 39.80 187.95 39.43Q189.05 39.05 189.88 38.40Q190.70 37.75 191.15 36.85Q191.60 35.95 191.60 34.90Q191.60 34.10 191.42 33.45Q191.25 32.80 190.80 32.25Q190.35 31.70 189.60 31.15Q188.85 30.60 187.65 29.95Q186.45 29.30 184.75 28.55Q181.55 27.25 179.67 25.80Q177.80 24.35 177 22.70Q176.20 21.05 176.20 19.15Q176.20 16.85 177.40 15.10Q178.60 13.35 180.78 12.35Q182.95 11.35 185.85 11.35Q187.65 11.35 189.28 11.83Q190.90 12.30 192.30 13.15Q193.70 14 194.80 15.30L192.40 18.30L192.10 18.70L191.75 18.45Q191.70 18.05 191.55 17.65Q191.40 17.25 190.85 16.65Q189.75 15.60 188.50 15.23Q187.25 14.85 185.50 14.85Q184.35 14.85 183.42 15.15Q182.50 15.45 181.85 16.05Q181.20 16.65 180.82 17.38Q180.45 18.10 180.45 18.90Q180.45 19.70 180.65 20.33Q180.85 20.95 181.30 21.55Q181.75 22.15 182.57 22.78Q183.40 23.40 184.67 24.03Q185.95 24.65 187.75 25.40Q190.10 26.40 191.65 27.35Q193.20 28.30 194.07 29.38Q194.95 30.45 195.35 31.68Q195.75 32.90 195.75 34.45Q195.75 36.60 194.65 38.70Q193.55 40.80 191.20 42.13Q188.85 43.45 185.10 43.45L185.10 43.45ZM200.65 42.95L200.65 11.75L220.15 11.75L220.15 15.35L204.70 15.35L204.70 24.85L217.45 24.85L217.45 28.55L204.70 28.55L204.70 39.35L220 39.35L220 42.95L200.65 42.95ZM240.85 34.45L229.25 34.45L230 31.30L240 31.30L240.85 34.45M235.30 20.20L227.75 42.95L223.60 42.95L234.75 11.35L235.95 11.35L247.10 42.95L242.80 42.95L235.30 20.20ZM260.10 43.45Q257.05 43.45 254.53 42.48Q252 41.50 250.15 39.60L252.30 35.95L252.50 35.50L252.85 35.70Q252.95 36.05 253.13 36.48Q253.30 36.90 253.85 37.50Q255.15 38.55 256.80 39.18Q258.45 39.80 260.50 39.80Q261.85 39.80 262.95 39.43Q264.05 39.05 264.88 38.40Q265.70 37.75 266.15 36.85Q266.60 35.95 266.60 34.90Q266.60 34.10 266.43 33.45Q266.25 32.80 265.80 32.25Q265.35 31.70 264.60 31.15Q263.85 30.60 262.65 29.95Q261.45 29.30 259.75 28.55Q256.55 27.25 254.67 25.80Q252.80 24.35 252 22.70Q251.20 21.05 251.20 19.15Q251.20 16.85 252.40 15.10Q253.60 13.35 255.78 12.35Q257.95 11.35 260.85 11.35Q262.65 11.35 264.27 11.83Q265.90 12.30 267.30 13.15Q268.70 14 269.80 15.30L267.40 18.30L267.10 18.70L266.75 18.45Q266.70 18.05 266.55 17.65Q266.40 17.25 265.85 16.65Q264.75 15.60 263.50 15.23Q262.25 14.85 260.50 14.85Q259.35 14.85 258.43 15.15Q257.50 15.45 256.85 16.05Q256.20 16.65 255.82 17.38Q255.45 18.10 255.45 18.90Q255.45 19.70 255.65 20.33Q255.85 20.95 256.30 21.55Q256.75 22.15 257.57 22.78Q258.40 23.40 259.68 24.03Q260.95 24.65 262.75 25.40Q265.10 26.40 266.65 27.35Q268.20 28.30 269.07 29.38Q269.95 30.45 270.35 31.68Q270.75 32.90 270.75 34.45Q270.75 36.60 269.65 38.70Q268.55 40.80 266.20 42.13Q263.85 43.45 260.10 43.45L260.10 43.45ZM284.75 43.50Q283.45 43.50 282.50 42.58Q281.55 41.65 281.55 40.35Q281.55 39.10 282.50 38.15Q283.45 37.20 284.75 37.20Q286.05 37.20 286.98 38.15Q287.90 39.10 287.90 40.35Q287.90 41.65 286.98 42.58Q286.05 43.50 284.75 43.50ZM310.40 43.55Q305.35 43.55 302.73 40.53Q300.10 37.50 300.10 32.15L300.10 11.80L304.25 11.80L304.75 11.80L304.75 12.20Q304.45 12.50 304.38 12.85Q304.30 13.20 304.30 14.05L304.30 32.20Q304.30 35.80 305.65 37.93Q307 40.05 310.45 40.05Q313.90 40.05 315.28 37.93Q316.65 35.80 316.65 32.05L316.65 11.80L320.75 11.80L320.75 32Q320.75 35.95 319.45 38.50Q318.15 41.05 315.83 42.30Q313.50 43.55 310.40 43.55L310.40 43.55ZM325.60 42.95L325.60 11.80L335.80 11.80Q339.35 11.80 341.58 13.03Q343.80 14.25 344.85 16.25Q345.90 18.25 345.90 20.70Q345.90 22.55 345.33 24.13Q344.75 25.70 343.55 26.90Q342.35 28.10 340.50 28.78Q338.65 29.45 336.05 29.45L329.95 29.45L329.95 42.95L325.60 42.95M329.95 25.80L335.65 25.80Q337.75 25.80 339.05 25.18Q340.35 24.55 340.95 23.40Q341.55 22.25 341.55 20.80Q341.55 19.35 340.95 18.20Q340.35 17.05 339.05 16.35Q337.75 15.65 335.70 15.65L329.95 15.65L329.95 25.80ZM350.65 42.95L350.65 11.75L370.15 11.75L370.15 15.35L354.70 15.35L354.70 24.85L367.45 24.85L367.45 28.55L354.70 28.55L354.70 39.35L370 39.35L370 42.95L350.65 42.95ZM375.15 11.80L379.35 11.80L391.60 34.05L391.50 11.80L395.40 11.80L395.90 11.80L395.90 12.20Q395.60 12.50 395.53 12.85Q395.45 13.20 395.45 14.05L395.45 42.95L391.85 42.95L379.05 19.35L379.05 42.95L375.15 42.95L375.15 11.80ZM400.15 11.80L404.35 11.80L416.60 34.05L416.50 11.80L420.40 11.80L420.90 11.80L420.90 12.20Q420.60 12.50 420.53 12.85Q420.45 13.20 420.45 14.05L420.45 42.95L416.85 42.95L404.05 19.35L404.05 42.95L400.15 42.95L400.15 11.80ZM434.75 43.50Q433.45 43.50 432.50 42.58Q431.55 41.65 431.55 40.35Q431.55 39.10 432.50 38.15Q433.45 37.20 434.75 37.20Q436.05 37.20 436.98 38.15Q437.90 39.10 437.90 40.35Q437.90 41.65 436.98 42.58Q436.05 43.50 434.75 43.50ZM450.65 42.95L450.65 11.75L470.15 11.75L470.15 15.35L454.70 15.35L454.70 24.85L467.45 24.85L467.45 28.55L454.70 28.55L454.70 39.35L470 39.35L470 42.95L450.65 42.95ZM475.35 43L475.35 11.80L482.85 11.80Q485.60 11.80 487.45 12.30Q489.30 12.80 490.60 13.73Q491.90 14.65 492.95 16.05Q494 17.45 494.68 19.23Q495.35 21 495.70 23.05Q496.05 25.10 496.05 27.55Q495.95 31.15 495.13 34Q494.30 36.85 492.68 38.85Q491.05 40.85 488.50 41.93Q485.95 43 482.25 43L475.35 43M479.40 39.70L482.10 39.70Q485.60 39.70 487.75 38.28Q489.90 36.85 490.93 34.15Q491.95 31.45 491.90 27.70Q491.90 23.85 490.98 21.05Q490.05 18.25 488.05 16.75Q486.05 15.25 482.65 15.25L479.40 15.25L479.40 39.70ZM510.40 43.55Q505.35 43.55 502.73 40.53Q500.10 37.50 500.10 32.15L500.10 11.80L504.25 11.80L504.75 11.80L504.75 12.20Q504.45 12.50 504.38 12.85Q504.30 13.20 504.30 14.05L504.30 32.20Q504.30 35.80 505.65 37.93Q507 40.05 510.45 40.05Q513.90 40.05 515.27 37.93Q516.65 35.80 516.65 32.05L516.65 11.80L520.75 11.80L520.75 32Q520.75 35.95 519.45 38.50Q518.15 41.05 515.83 42.30Q513.50 43.55 510.40 43.55L510.40 43.55Z"/></g></g></svg>