<svg xmlns="http://www.w3.org/2000/svg" viewBox="0 11.350000381469727 419.6499938964844 32.150001525878906" data-asc="0.859" width="419.6499938964844" height="32.150001525878906"><defs/><g fill="#000000"><g transform="translate(0, 0)"><path d="M8.70 37.75L8.70 28.60L0 28.60L0 25.10L8.70 25.10L8.70 16.70L12.40 16.70L12.40 25.10L20.80 25.10L20.80 28.60L12.40 28.60L12.40 37.75L8.70 37.75ZM35.90 43.45Q32.70 43.45 30.48 41.65Q28.25 39.85 27.10 36.53Q25.95 33.20 25.95 28.70Q25.95 23.15 27.38 19.30Q28.80 15.45 31.33 13.43Q33.85 11.40 37.15 11.40Q39.15 11.40 41 12.10Q42.85 12.80 44.35 14.30L41.85 17.15L41.55 17.55L41.25 17.25Q41.20 16.85 41 16.53Q40.80 16.20 40.15 15.70Q39.75 15.45 39.33 15.30Q38.90 15.15 38.43 15.10Q37.95 15.05 37.40 15.05Q36.60 15.05 35.65 15.30Q34.70 15.55 33.78 16.25Q32.85 16.95 32.03 18.18Q31.20 19.40 30.68 21.38Q30.15 23.35 30.10 26.15Q30.75 25.05 31.78 24.30Q32.80 23.55 34 23.13Q35.20 22.70 36.40 22.70Q38.20 22.70 39.78 23.40Q41.35 24.10 42.53 25.43Q43.70 26.75 44.38 28.65Q45.05 30.55 45.05 32.90Q45.05 36 43.83 38.40Q42.60 40.80 40.55 42.13Q38.50 43.45 35.90 43.45L35.90 43.45M36 39.90Q37.05 39.90 37.95 39.43Q38.85 38.95 39.55 38.08Q40.25 37.20 40.65 35.93Q41.05 34.65 41.05 32.95Q41.05 31.20 40.60 29.93Q40.15 28.65 39.40 27.85Q38.65 27.05 37.75 26.65Q36.85 26.25 35.95 26.25Q35.10 26.25 34.28 26.55Q33.45 26.85 32.73 27.38Q32 27.90 31.38 28.60Q30.75 29.30 30.25 30.15Q30.10 31.95 30.43 33.68Q30.75 35.40 31.50 36.80Q32.25 38.20 33.40 39.05Q34.55 39.90 36 39.90L36 39.90ZM51.25 39.70Q54 36.90 56.25 34.68Q58.50 32.45 60.25 30.58Q62 28.70 63.20 27.05Q64.40 25.40 65.03 23.78Q65.65 22.15 65.65 20.40Q65.65 18.95 65.28 17.95Q64.90 16.95 64.22 16.33Q63.55 15.70 62.63 15.40Q61.70 15.10 60.65 15.10Q59.50 15.10 58.45 15.43Q57.40 15.75 56.45 16.38Q55.50 17 54.70 18Q54.25 18.70 54.15 19.08Q54.05 19.45 54.10 19.85L53.85 20.10L53.50 19.85L50.50 17.55Q51.55 15.60 53.08 14.25Q54.60 12.90 56.53 12.20Q58.45 11.50 60.60 11.50Q63.30 11.50 65.35 12.60Q67.40 13.70 68.60 15.70Q69.80 17.70 69.80 20.45Q69.80 22.45 69.13 24.33Q68.45 26.20 67.22 27.98Q66 29.75 64.35 31.55Q62.70 33.35 60.75 35.28Q58.80 37.20 56.70 39.40L67.70 39.40Q68.55 39.40 68.90 39.30Q69.25 39.20 69.55 38.90L69.95 38.90L69.95 39.40L69.95 42.95L51.25 42.95L51.25 39.70ZM110.35 43.45Q107.35 43.45 105.15 42.33Q102.95 41.20 101.75 39.30Q100.55 37.40 100.55 35.05Q100.55 33.20 101.32 31.55Q102.10 29.90 103.47 28.58Q104.85 27.25 106.70 26.40Q105.35 25.60 104.30 24.50Q103.25 23.40 102.65 22.03Q102.05 20.65 102.05 19.15Q102.05 17 103.05 15.25Q104.05 13.50 105.95 12.43Q107.85 11.35 110.60 11.35Q113.50 11.35 115.38 12.38Q117.25 13.40 118.20 15.10Q119.15 16.80 119.15 18.85Q119.15 20 118.80 21.10Q118.45 22.20 117.85 23.18Q117.25 24.15 116.38 24.95Q115.50 25.75 114.40 26.35Q115.75 27 116.80 27.90Q117.85 28.80 118.63 29.90Q119.40 31 119.80 32.25Q120.20 33.50 120.20 34.85Q120.20 37.35 118.97 39.28Q117.75 41.20 115.55 42.33Q113.35 43.45 110.35 43.45M110.45 39.80Q112.25 39.80 113.47 39.13Q114.70 38.45 115.32 37.30Q115.95 36.15 115.95 34.75Q115.95 33.65 115.50 32.63Q115.05 31.60 114.22 30.75Q113.40 29.90 112.22 29.18Q111.05 28.45 109.60 28.05Q108.60 28.50 107.70 29.18Q106.80 29.85 106.17 30.73Q105.55 31.60 105.20 32.55Q104.85 33.50 104.85 34.60Q104.85 36.05 105.50 37.23Q106.15 38.40 107.42 39.10Q108.70 39.80 110.45 39.80M111.25 24.95Q112.10 24.45 112.80 23.78Q113.50 23.10 114 22.35Q114.50 21.60 114.80 20.75Q115.10 19.90 115.10 19.05Q115.10 17.95 114.57 17Q114.05 16.05 113.02 15.45Q112 14.85 110.50 14.85Q109 14.85 108.02 15.43Q107.05 16 106.55 16.93Q106.05 17.85 106.05 18.95Q106.05 20 106.45 20.88Q106.85 21.75 107.57 22.45Q108.30 23.15 109.25 23.78Q110.20 24.40 111.25 24.95ZM134 42.95L134 16.70L127.90 18.60L126.95 16.05L135.15 11.75L138.20 11.75L138.20 42.95L134 42.95ZM159.75 43.50Q157.20 43.50 154.85 42.60Q152.50 41.70 150.90 39.90L153.35 36.70L153.70 36.30L154 36.55Q154.05 36.95 154.20 37.33Q154.35 37.70 154.90 38.30Q155.80 39.05 156.92 39.53Q158.05 40 159.60 40Q161.45 40 162.67 39.28Q163.90 38.55 164.53 37.23Q165.15 35.90 165.15 34.20Q165.15 32.50 164.57 31.30Q164 30.10 162.88 29.43Q161.75 28.75 160.17 28.50Q158.60 28.25 156.60 28.45L156.60 25.10Q158.95 25.15 160.45 24.70Q161.95 24.25 162.78 23.45Q163.60 22.65 163.92 21.63Q164.25 20.60 164.25 19.45Q164.25 18.45 163.92 17.65Q163.60 16.85 163.05 16.28Q162.50 15.70 161.67 15.38Q160.85 15.05 159.90 15.05Q158.90 15.05 157.92 15.30Q156.95 15.55 156.03 16.05Q155.10 16.55 154.25 17.40L151.80 14.90Q153.50 13.05 155.65 12.28Q157.80 11.50 159.90 11.50Q162.55 11.50 164.45 12.50Q166.35 13.50 167.40 15.28Q168.45 17.05 168.45 19.35Q168.45 21 167.88 22.43Q167.30 23.85 166.20 24.88Q165.10 25.90 163.55 26.45Q165.20 26.95 166.55 28Q167.90 29.05 168.68 30.63Q169.45 32.20 169.45 34.35Q169.45 36.85 168.32 38.93Q167.20 41 165.05 42.25Q162.90 43.50 159.75 43.50L159.75 43.50ZM201.25 39.70Q204 36.90 206.25 34.68Q208.50 32.45 210.25 30.58Q212 28.70 213.20 27.05Q214.40 25.40 215.03 23.78Q215.65 22.15 215.65 20.40Q215.65 18.95 215.28 17.95Q214.90 16.95 214.22 16.33Q213.55 15.70 212.63 15.40Q211.70 15.10 210.65 15.10Q209.50 15.10 208.45 15.43Q207.40 15.75 206.45 16.38Q205.50 17 204.70 18Q204.25 18.70 204.15 19.08Q204.05 19.45 204.10 19.85L203.85 20.10L203.50 19.85L200.50 17.55Q201.55 15.60 203.07 14.25Q204.60 12.90 206.53 12.20Q208.45 11.50 210.60 11.50Q213.30 11.50 215.35 12.60Q217.40 13.70 218.60 15.70Q219.80 17.70 219.80 20.45Q219.80 22.45 219.13 24.33Q218.45 26.20 217.22 27.98Q216 29.75 214.35 31.55Q212.70 33.35 210.75 35.28Q208.80 37.20 206.70 39.40L217.70 39.40Q218.55 39.40 218.90 39.30Q219.25 39.20 219.55 38.90L219.95 38.90L219.95 39.40L219.95 42.95L201.25 42.95L201.25 39.70ZM235.35 43.50Q232.35 43.50 229.88 42.25Q227.40 41 225.90 38.65L229.05 36.20L229.45 35.90L229.70 36.15Q229.65 36.55 229.82 36.90Q230 37.25 230.50 37.90Q231.45 38.95 232.63 39.45Q233.80 39.95 235.45 39.95Q236.65 39.95 237.70 39.45Q238.75 38.95 239.53 38.05Q240.30 37.15 240.75 35.85Q241.20 34.55 241.20 33Q241.20 31.40 240.75 30.10Q240.30 28.80 239.50 27.90Q238.70 27 237.60 26.50Q236.50 26.00 235.20 26.00Q234.15 26.00 233.13 26.33Q232.10 26.65 231.22 27.28Q230.35 27.90 229.60 28.80L227 27.90L228.05 11.80L244.15 11.80L244.15 15.40L231.60 15.40L231.10 23.75Q231.90 23.35 232.70 23.08Q233.50 22.80 234.35 22.68Q235.20 22.55 236 22.55Q238.05 22.55 239.75 23.28Q241.45 24.00 242.72 25.35Q244 26.70 244.68 28.63Q245.35 30.55 245.35 33Q245.35 36.25 244.03 38.60Q242.70 40.95 240.47 42.23Q238.25 43.50 235.35 43.50L235.35 43.50ZM260.90 43.45Q257.70 43.45 255.47 41.65Q253.25 39.85 252.10 36.53Q250.95 33.20 250.95 28.70Q250.95 23.15 252.38 19.30Q253.80 15.45 256.32 13.43Q258.85 11.40 262.15 11.40Q264.15 11.40 266 12.10Q267.85 12.80 269.35 14.30L266.85 17.15L266.55 17.55L266.25 17.25Q266.20 16.85 266 16.53Q265.80 16.20 265.15 15.70Q264.75 15.45 264.32 15.30Q263.90 15.15 263.43 15.10Q262.95 15.05 262.40 15.05Q261.60 15.05 260.65 15.30Q259.70 15.55 258.77 16.25Q257.85 16.95 257.02 18.18Q256.20 19.40 255.67 21.38Q255.15 23.35 255.10 26.15Q255.75 25.05 256.77 24.30Q257.80 23.55 259 23.13Q260.20 22.70 261.40 22.70Q263.20 22.70 264.77 23.40Q266.35 24.10 267.52 25.43Q268.70 26.75 269.38 28.65Q270.05 30.55 270.05 32.90Q270.05 36 268.82 38.40Q267.60 40.80 265.55 42.13Q263.50 43.45 260.90 43.45L260.90 43.45M261 39.90Q262.05 39.90 262.95 39.43Q263.85 38.95 264.55 38.08Q265.25 37.20 265.65 35.93Q266.05 34.65 266.05 32.95Q266.05 31.20 265.60 29.93Q265.15 28.65 264.40 27.85Q263.65 27.05 262.75 26.65Q261.85 26.25 260.95 26.25Q260.10 26.25 259.27 26.55Q258.45 26.85 257.73 27.38Q257 27.90 256.38 28.60Q255.75 29.30 255.25 30.15Q255.10 31.95 255.42 33.68Q255.75 35.40 256.50 36.80Q257.25 38.20 258.40 39.05Q259.55 39.90 261 39.90L261 39.90ZM285.35 43.50Q282.35 43.50 279.88 42.25Q277.40 41 275.90 38.65L279.05 36.20L279.45 35.90L279.70 36.15Q279.65 36.55 279.83 36.90Q280 37.25 280.50 37.90Q281.45 38.95 282.63 39.45Q283.80 39.95 285.45 39.95Q286.65 39.95 287.70 39.45Q288.75 38.95 289.53 38.05Q290.30 37.15 290.75 35.85Q291.20 34.55 291.20 33Q291.20 31.40 290.75 30.10Q290.30 28.80 289.50 27.90Q288.70 27 287.60 26.50Q286.50 26.00 285.20 26.00Q284.15 26.00 283.13 26.33Q282.10 26.65 281.23 27.28Q280.35 27.90 279.60 28.80L277 27.90L278.05 11.80L294.15 11.80L294.15 15.40L281.60 15.40L281.10 23.75Q281.90 23.35 282.70 23.08Q283.50 22.80 284.35 22.68Q285.20 22.55 286 22.55Q288.05 22.55 289.75 23.28Q291.45 24.00 292.73 25.35Q294 26.70 294.68 28.63Q295.35 30.55 295.35 33Q295.35 36.25 294.03 38.60Q292.70 40.95 290.48 42.23Q288.25 43.50 285.35 43.50L285.35 43.50ZM330.10 42.95Q331.55 38.25 333.08 33.70Q334.60 29.15 336.23 24.65Q337.85 20.15 339.60 15.60L326.55 15.60L326.55 11.80L344.65 11.80L344.65 14.15Q343.25 17.65 341.88 21.20Q340.50 24.75 339.25 28.35Q338 31.95 336.88 35.58Q335.75 39.20 334.65 42.95L330.10 42.95ZM353.20 34.70L366.55 18.05L367.65 20.85L354.30 37.35L353.20 34.70M360.35 43.50Q357.20 43.50 354.98 41.65Q352.75 39.80 351.55 36.23Q350.35 32.65 350.35 27.55Q350.35 22.55 351.55 18.98Q352.75 15.40 354.98 13.45Q357.20 11.50 360.35 11.50Q363.50 11.50 365.73 13.45Q367.95 15.40 369.15 18.98Q370.35 22.55 370.35 27.55Q370.35 32.65 369.15 36.23Q367.95 39.80 365.73 41.65Q363.50 43.50 360.35 43.50M360.35 40.05Q362.20 40.05 363.50 38.60Q364.80 37.15 365.50 34.35Q366.20 31.55 366.20 27.55Q366.20 23.70 365.50 20.93Q364.80 18.15 363.50 16.60Q362.20 15.05 360.35 15.05Q358.50 15.05 357.20 16.60Q355.90 18.15 355.20 20.93Q354.50 23.70 354.50 27.55Q354.50 31.55 355.20 34.35Q355.90 37.15 357.20 38.60Q358.50 40.05 360.35 40.05ZM384.75 43.50Q382.20 43.50 379.85 42.60Q377.50 41.70 375.90 39.90L378.35 36.70L378.70 36.30L379 36.55Q379.05 36.95 379.20 37.33Q379.35 37.70 379.90 38.30Q380.80 39.05 381.93 39.53Q383.05 40 384.60 40Q386.45 40 387.68 39.28Q388.90 38.55 389.53 37.23Q390.15 35.90 390.15 34.20Q390.15 32.50 389.58 31.30Q389 30.10 387.88 29.43Q386.75 28.75 385.18 28.50Q383.60 28.25 381.60 28.45L381.60 25.10Q383.95 25.15 385.45 24.70Q386.95 24.25 387.78 23.45Q388.60 22.65 388.93 21.63Q389.25 20.60 389.25 19.45Q389.25 18.45 388.93 17.65Q388.60 16.85 388.05 16.28Q387.50 15.70 386.68 15.38Q385.85 15.05 384.90 15.05Q383.90 15.05 382.93 15.30Q381.95 15.55 381.03 16.05Q380.10 16.55 379.25 17.40L376.80 14.90Q378.50 13.05 380.65 12.28Q382.80 11.50 384.90 11.50Q387.55 11.50 389.45 12.50Q391.35 13.50 392.40 15.28Q393.45 17.05 393.45 19.35Q393.45 21 392.88 22.43Q392.30 23.85 391.20 24.88Q390.10 25.90 388.55 26.45Q390.20 26.95 391.55 28Q392.90 29.05 393.68 30.63Q394.45 32.20 394.45 34.35Q394.45 36.85 393.33 38.93Q392.20 41 390.05 42.25Q387.90 43.50 384.75 43.50L384.75 43.50ZM405.10 42.95Q406.55 38.25 408.08 33.70Q409.60 29.15 411.23 24.65Q412.85 20.15 414.60 15.60L401.55 15.60L401.55 11.80L419.65 11.80L419.65 14.15Q418.25 17.65 416.88 21.20Q415.50 24.75 414.25 28.35Q413 31.95 411.88 35.58Q410.75 39.20 409.65 42.95L405.10 42.95Z"/></g></g></svg>