<svg xmlns="http://www.w3.org/2000/svg" viewBox="0 11.300000190734863 446.04998779296875 32.25" data-asc="0.859" width="446.04998779296875" height="32.25"><defs/><g fill="#e0e0e0"><g transform="translate(0, 0)"><path d="M9.95 43.45Q6.90 43.45 4.38 42.48Q1.85 41.50 0 39.60L2.15 35.95L2.35 35.50L2.70 35.70Q2.80 36.05 2.98 36.48Q3.15 36.90 3.70 37.50Q5 38.55 6.65 39.18Q8.30 39.80 10.35 39.80Q11.70 39.80 12.80 39.43Q13.90 39.05 14.73 38.40Q15.55 37.75 16 36.85Q16.45 35.95 16.45 34.90Q16.45 34.10 16.27 33.45Q16.10 32.80 15.65 32.25Q15.20 31.70 14.45 31.15Q13.70 30.60 12.50 29.95Q11.30 29.30 9.60 28.55Q6.40 27.25 4.53 25.80Q2.65 24.35 1.85 22.70Q1.05 21.05 1.05 19.15Q1.05 16.85 2.25 15.10Q3.45 13.35 5.63 12.35Q7.80 11.35 10.70 11.35Q12.50 11.35 14.13 11.83Q15.75 12.30 17.15 13.15Q18.55 14 19.65 15.30L17.25 18.30L16.95 18.70L16.60 18.45Q16.55 18.05 16.40 17.65Q16.25 17.25 15.70 16.65Q14.60 15.60 13.35 15.23Q12.10 14.85 10.35 14.85Q9.20 14.85 8.28 15.15Q7.35 15.45 6.70 16.05Q6.05 16.65 5.68 17.38Q5.30 18.10 5.30 18.90Q5.30 19.70 5.50 20.33Q5.70 20.95 6.15 21.55Q6.60 22.15 7.43 22.78Q8.25 23.40 9.53 24.03Q10.80 24.65 12.60 25.40Q14.95 26.40 16.50 27.35Q18.05 28.30 18.93 29.38Q19.80 30.45 20.20 31.68Q20.60 32.90 20.60 34.45Q20.60 36.60 19.50 38.70Q18.40 40.80 16.05 42.13Q13.70 43.45 9.95 43.45L9.95 43.45ZM25 11.80L29.30 11.80L29.80 11.80L29.80 12.20Q29.50 12.50 29.43 12.85Q29.35 13.20 29.35 14.05L29.35 24.90L40.65 24.90L40.65 11.80L44.95 11.80L45.45 11.80L45.45 12.20Q45.15 12.50 45.08 12.85Q45 13.20 45 14.05L45 42.95L40.65 42.95L40.65 28.40L29.35 28.40L29.35 42.95L25 42.95L25 11.80ZM51.55 42.95L51.55 39.45L57.70 39.45L57.70 15.30L51.90 15.30L51.90 11.80L67.95 11.80L67.95 15.30L61.80 15.30L61.80 39.50L68.25 39.50L68.25 42.95L51.55 42.95ZM75.30 42.95L75.30 11.80L84.75 11.80Q88.50 11.80 90.83 12.90Q93.15 14 94.23 16.03Q95.30 18.05 95.30 20.80Q95.30 22.50 94.55 24.25Q93.80 26.00 92.40 27.30Q91 28.60 89.10 29.20L96.15 42.95L91.55 42.95L84.85 29.45L79.60 29.45L79.60 42.95L75.30 42.95M79.60 25.85L85.15 25.85Q88.15 25.85 89.55 24.48Q90.95 23.10 90.95 20.85Q90.95 19.40 90.35 18.23Q89.75 17.05 88.45 16.35Q87.15 15.65 85.15 15.65L79.60 15.65L79.60 25.85ZM109.95 43.45Q106.90 43.45 104.38 42.48Q101.85 41.50 100 39.60L102.15 35.95L102.35 35.50L102.70 35.70Q102.80 36.05 102.98 36.48Q103.15 36.90 103.70 37.50Q105 38.55 106.65 39.18Q108.30 39.80 110.35 39.80Q111.70 39.80 112.80 39.43Q113.90 39.05 114.73 38.40Q115.55 37.75 116 36.85Q116.45 35.95 116.45 34.90Q116.45 34.10 116.28 33.45Q116.10 32.80 115.65 32.25Q115.20 31.70 114.45 31.15Q113.70 30.60 112.50 29.95Q111.30 29.30 109.60 28.55Q106.40 27.25 104.53 25.80Q102.65 24.35 101.85 22.70Q101.05 21.05 101.05 19.15Q101.05 16.85 102.25 15.10Q103.45 13.35 105.63 12.35Q107.80 11.35 110.70 11.35Q112.50 11.35 114.13 11.83Q115.75 12.30 117.15 13.15Q118.55 14 119.65 15.30L117.25 18.30L116.95 18.70L116.60 18.45Q116.55 18.05 116.40 17.65Q116.25 17.25 115.70 16.65Q114.60 15.60 113.35 15.23Q112.10 14.85 110.35 14.85Q109.20 14.85 108.28 15.15Q107.35 15.45 106.70 16.05Q106.05 16.65 105.67 17.38Q105.30 18.10 105.30 18.90Q105.30 19.70 105.50 20.33Q105.70 20.95 106.15 21.55Q106.60 22.15 107.43 22.78Q108.25 23.40 109.53 24.03Q110.80 24.65 112.60 25.40Q114.95 26.40 116.50 27.35Q118.05 28.30 118.93 29.38Q119.80 30.45 120.20 31.68Q120.60 32.90 120.60 34.45Q120.60 36.60 119.50 38.70Q118.40 40.80 116.05 42.13Q113.70 43.45 109.95 43.45L109.95 43.45ZM132.45 43.55Q130.20 43.55 128.25 42.70Q126.30 41.85 124.85 40.10L127.10 36.95L127.45 36.55L127.75 36.80Q127.80 37.20 127.98 37.58Q128.15 37.95 128.75 38.50Q129.55 39.10 130.40 39.43Q131.25 39.75 132.30 39.75Q133.85 39.75 134.85 39.03Q135.85 38.30 136.32 36.65Q136.80 35 136.80 32.35L136.80 15.30L130.90 15.30L130.90 11.80L145.70 11.80L145.70 15.30L141 15.30L141 32.45Q141.05 35.40 140.38 37.53Q139.70 39.65 138.47 41Q137.25 42.35 135.70 42.95Q134.15 43.55 132.45 43.55L132.45 43.55ZM162.45 43.50Q159.95 43.50 157.55 42.53Q155.15 41.55 153.27 39.55Q151.40 37.55 150.27 34.50Q149.15 31.45 149.15 27.25Q149.15 23.15 150.20 20.13Q151.25 17.10 153 15.15Q154.75 13.20 156.90 12.25Q159.05 11.30 161.25 11.30Q163.25 11.30 165.05 12Q166.85 12.70 168.20 14.13Q169.55 15.55 170.32 17.75Q171.10 19.95 171.10 22.85L171.10 34.30L167.60 34.30L167.60 32.55Q166.75 33.60 165.60 34.15Q164.45 34.70 163 34.70Q161.10 34.70 159.60 33.85Q158.10 33 157.25 31.48Q156.40 29.95 156.40 28.05Q156.40 26.30 157.05 24.88Q157.70 23.45 159.07 22.43Q160.45 21.40 162.55 20.90Q164.65 20.40 167.45 20.55Q167.45 18.70 166.67 17.30Q165.90 15.90 164.50 15.10Q163.10 14.30 161.10 14.30Q159.40 14.30 157.85 15.03Q156.30 15.75 155.10 17.30Q153.90 18.85 153.20 21.20Q152.50 23.55 152.50 26.80Q152.50 30.30 153.35 32.83Q154.20 35.35 155.67 37Q157.15 38.65 158.97 39.45Q160.80 40.25 162.75 40.25Q164.15 40.25 165.50 39.83Q166.85 39.40 168.10 38.50L169.70 41.30Q168.10 42.35 166.25 42.93Q164.40 43.50 162.45 43.50M163.55 31.60Q164.60 31.60 165.38 31.18Q166.15 30.75 166.65 29.80Q167.15 28.85 167.40 27.30Q167.65 25.75 167.65 23.50Q165 23.30 163.30 23.80Q161.60 24.30 160.75 25.33Q159.90 26.35 159.90 27.80Q159.90 29.60 160.80 30.60Q161.70 31.60 163.55 31.60ZM182.45 43.55Q180.20 43.55 178.25 42.70Q176.30 41.85 174.85 40.10L177.10 36.95L177.45 36.55L177.75 36.80Q177.80 37.20 177.97 37.58Q178.15 37.95 178.75 38.50Q179.55 39.10 180.40 39.43Q181.25 39.75 182.30 39.75Q183.85 39.75 184.85 39.03Q185.85 38.30 186.32 36.65Q186.80 35 186.80 32.35L186.80 15.30L180.90 15.30L180.90 11.80L195.70 11.80L195.70 15.30L191 15.30L191 32.45Q191.05 35.40 190.38 37.53Q189.70 39.65 188.47 41Q187.25 42.35 185.70 42.95Q184.15 43.55 182.45 43.55L182.45 43.55ZM200.50 42.95L200.50 11.75L220 11.75L220 15.35L204.55 15.35L204.55 24.85L217.30 24.85L217.30 28.55L204.55 28.55L204.55 39.35L219.85 39.35L219.85 42.95L200.50 42.95ZM234.95 43.45Q231.90 43.45 229.38 42.48Q226.85 41.50 225 39.60L227.15 35.95L227.35 35.50L227.70 35.70Q227.80 36.05 227.97 36.48Q228.15 36.90 228.70 37.50Q230 38.55 231.65 39.18Q233.30 39.80 235.35 39.80Q236.70 39.80 237.80 39.43Q238.90 39.05 239.72 38.40Q240.55 37.75 241 36.85Q241.45 35.95 241.45 34.90Q241.45 34.10 241.27 33.45Q241.10 32.80 240.65 32.25Q240.20 31.70 239.45 31.15Q238.70 30.60 237.50 29.95Q236.30 29.30 234.60 28.55Q231.40 27.25 229.52 25.80Q227.65 24.35 226.85 22.70Q226.05 21.05 226.05 19.15Q226.05 16.85 227.25 15.10Q228.45 13.35 230.63 12.35Q232.80 11.35 235.70 11.35Q237.50 11.35 239.13 11.83Q240.75 12.30 242.15 13.15Q243.55 14 244.65 15.30L242.25 18.30L241.95 18.70L241.60 18.45Q241.55 18.05 241.40 17.65Q241.25 17.25 240.70 16.65Q239.60 15.60 238.35 15.23Q237.10 14.85 235.35 14.85Q234.20 14.85 233.27 15.15Q232.35 15.45 231.70 16.05Q231.05 16.65 230.67 17.38Q230.30 18.10 230.30 18.90Q230.30 19.70 230.50 20.33Q230.70 20.95 231.15 21.55Q231.60 22.15 232.42 22.78Q233.25 23.40 234.52 24.03Q235.80 24.65 237.60 25.40Q239.95 26.40 241.50 27.35Q243.05 28.30 243.92 29.38Q244.80 30.45 245.20 31.68Q245.60 32.90 245.60 34.45Q245.60 36.60 244.50 38.70Q243.40 40.80 241.05 42.13Q238.70 43.45 234.95 43.45L234.95 43.45ZM260.25 43.55Q255.20 43.55 252.57 40.53Q249.95 37.50 249.95 32.15L249.95 11.80L254.10 11.80L254.60 11.80L254.60 12.20Q254.30 12.50 254.22 12.85Q254.15 13.20 254.15 14.05L254.15 32.20Q254.15 35.80 255.50 37.93Q256.85 40.05 260.30 40.05Q263.75 40.05 265.13 37.93Q266.50 35.80 266.50 32.05L266.50 11.80L270.60 11.80L270.60 32Q270.60 35.95 269.30 38.50Q268 41.05 265.68 42.30Q263.35 43.55 260.25 43.55L260.25 43.55ZM276.55 42.95L276.55 39.45L282.70 39.45L282.70 15.30L276.90 15.30L276.90 11.80L292.95 11.80L292.95 15.30L286.80 15.30L286.80 39.50L293.25 39.50L293.25 42.95L276.55 42.95ZM307.80 42.95L307.80 15.45L299.10 15.45L299.10 11.75L321.05 11.75L321.05 15.45L312 15.45L312 42.95L307.80 42.95ZM334.95 43.45Q331.90 43.45 329.38 42.48Q326.85 41.50 325 39.60L327.15 35.95L327.35 35.50L327.70 35.70Q327.80 36.05 327.97 36.48Q328.15 36.90 328.70 37.50Q330 38.55 331.65 39.18Q333.30 39.80 335.35 39.80Q336.70 39.80 337.80 39.43Q338.90 39.05 339.72 38.40Q340.55 37.75 341 36.85Q341.45 35.95 341.45 34.90Q341.45 34.10 341.27 33.45Q341.10 32.80 340.65 32.25Q340.20 31.70 339.45 31.15Q338.70 30.60 337.50 29.95Q336.30 29.30 334.60 28.55Q331.40 27.25 329.52 25.80Q327.65 24.35 326.85 22.70Q326.05 21.05 326.05 19.15Q326.05 16.85 327.25 15.10Q328.45 13.35 330.63 12.35Q332.80 11.35 335.70 11.35Q337.50 11.35 339.13 11.83Q340.75 12.30 342.15 13.15Q343.55 14 344.65 15.30L342.25 18.30L341.95 18.70L341.60 18.45Q341.55 18.05 341.40 17.65Q341.25 17.25 340.70 16.65Q339.60 15.60 338.35 15.23Q337.10 14.85 335.35 14.85Q334.20 14.85 333.27 15.15Q332.35 15.45 331.70 16.05Q331.05 16.65 330.68 17.38Q330.30 18.10 330.30 18.90Q330.30 19.70 330.50 20.33Q330.70 20.95 331.15 21.55Q331.60 22.15 332.43 22.78Q333.25 23.40 334.52 24.03Q335.80 24.65 337.60 25.40Q339.95 26.40 341.50 27.35Q343.05 28.30 343.93 29.38Q344.80 30.45 345.20 31.68Q345.60 32.90 345.60 34.45Q345.60 36.60 344.50 38.70Q343.40 40.80 341.05 42.13Q338.70 43.45 334.95 43.45L334.95 43.45ZM359.60 43.50Q358.30 43.50 357.35 42.58Q356.40 41.65 356.40 40.35Q356.40 39.10 357.35 38.15Q358.30 37.20 359.60 37.20Q360.90 37.20 361.82 38.15Q362.75 39.10 362.75 40.35Q362.75 41.65 361.82 42.58Q360.90 43.50 359.60 43.50ZM375 11.80L379.20 11.80L391.45 34.05L391.35 11.80L395.25 11.80L395.75 11.80L395.75 12.20Q395.45 12.50 395.38 12.85Q395.30 13.20 395.30 14.05L395.30 42.95L391.70 42.95L378.90 19.35L378.90 42.95L375 42.95L375 11.80ZM400.50 42.95L400.50 11.75L420 11.75L420 15.35L404.55 15.35L404.55 24.85L417.30 24.85L417.30 28.55L404.55 28.55L404.55 39.35L419.85 39.35L419.85 42.95L400.50 42.95ZM432.80 42.95L432.80 15.45L424.10 15.45L424.10 11.75L446.05 11.75L446.05 15.45L437 15.45L437 42.95L432.80 42.95Z"/></g></g></svg>