<svg xmlns="http://www.w3.org/2000/svg" viewBox="0 11.300000190734863 320.3999938964844 32.25" data-asc="0.859" width="320.3999938964844" height="32.25"><defs/><g fill="#000000"><g transform="translate(0, 0)"><path d="M0 42.95L0 11.75L19.50 11.75L19.50 15.35L4.05 15.35L4.05 24.85L16.80 24.85L16.80 28.55L4.05 28.55L4.05 39.35L19.35 39.35L19.35 42.95L0 42.95ZM30.90 27.85L28.55 30.55L28.55 42.95L24.20 42.95L24.20 11.80L28.50 11.80L29 11.80L29 12.20Q28.70 12.50 28.63 12.85Q28.55 13.20 28.55 14.05L28.55 25.60L40.70 11.55Q41 11.60 41.38 11.65Q41.75 11.70 42.13 11.73Q42.50 11.75 42.90 11.78Q43.30 11.80 43.65 11.80L45.35 11.80L34 25.10L46.10 42.95L40.95 43.15L30.90 27.85ZM59.75 43.50Q56.10 43.50 53.58 41.65Q51.05 39.80 49.73 36.20Q48.40 32.60 48.40 27.50Q48.40 22.50 49.73 18.93Q51.05 15.35 53.58 13.43Q56.10 11.50 59.75 11.50Q63.40 11.50 65.90 13.43Q68.40 15.35 69.73 18.93Q71.05 22.50 71.05 27.50Q71.05 32.60 69.73 36.20Q68.40 39.80 65.90 41.65Q63.40 43.50 59.75 43.50M59.75 39.95Q61.95 39.95 63.53 38.53Q65.10 37.10 65.93 34.33Q66.75 31.55 66.75 27.50Q66.75 23.65 65.93 20.88Q65.10 18.10 63.53 16.60Q61.95 15.10 59.75 15.10Q57.55 15.10 55.95 16.60Q54.35 18.10 53.53 20.88Q52.70 23.65 52.70 27.50Q52.70 31.55 53.53 34.33Q54.35 37.10 55.95 38.53Q57.55 39.95 59.75 39.95ZM86.95 43.50Q84.45 43.50 82.05 42.53Q79.65 41.55 77.78 39.55Q75.90 37.55 74.78 34.50Q73.65 31.45 73.65 27.25Q73.65 23.15 74.70 20.13Q75.75 17.10 77.50 15.15Q79.25 13.20 81.40 12.25Q83.55 11.30 85.75 11.30Q87.75 11.30 89.55 12Q91.35 12.70 92.70 14.13Q94.05 15.55 94.83 17.75Q95.60 19.95 95.60 22.85L95.60 34.30L92.10 34.30L92.10 32.55Q91.25 33.60 90.10 34.15Q88.95 34.70 87.50 34.70Q85.60 34.70 84.10 33.85Q82.60 33 81.75 31.48Q80.90 29.95 80.90 28.05Q80.90 26.30 81.55 24.88Q82.20 23.45 83.58 22.43Q84.95 21.40 87.05 20.90Q89.15 20.40 91.95 20.55Q91.95 18.70 91.18 17.30Q90.40 15.90 89 15.10Q87.60 14.30 85.60 14.30Q83.90 14.30 82.35 15.03Q80.80 15.75 79.60 17.30Q78.40 18.85 77.70 21.20Q77 23.55 77 26.80Q77 30.30 77.85 32.83Q78.70 35.35 80.17 37Q81.65 38.65 83.48 39.45Q85.30 40.25 87.25 40.25Q88.65 40.25 90 39.83Q91.35 39.40 92.60 38.50L94.20 41.30Q92.60 42.35 90.75 42.93Q88.90 43.50 86.95 43.50M88.05 31.60Q89.10 31.60 89.88 31.18Q90.65 30.75 91.15 29.80Q91.65 28.85 91.90 27.30Q92.15 25.75 92.15 23.50Q89.50 23.30 87.80 23.80Q86.10 24.30 85.25 25.33Q84.40 26.35 84.40 27.80Q84.40 29.60 85.30 30.60Q86.20 31.60 88.05 31.60ZM109.75 43.55Q104.70 43.55 102.08 40.53Q99.45 37.50 99.45 32.15L99.45 11.80L103.60 11.80L104.10 11.80L104.10 12.20Q103.80 12.50 103.73 12.85Q103.65 13.20 103.65 14.05L103.65 32.20Q103.65 35.80 105 37.93Q106.35 40.05 109.80 40.05Q113.25 40.05 114.63 37.93Q116 35.80 116 32.05L116 11.80L120.10 11.80L120.10 32Q120.10 35.95 118.80 38.50Q117.50 41.05 115.18 42.30Q112.85 43.55 109.75 43.55L109.75 43.55ZM134.45 43.45Q131.40 43.45 128.88 42.48Q126.35 41.50 124.50 39.60L126.65 35.95L126.85 35.50L127.20 35.70Q127.30 36.05 127.48 36.48Q127.65 36.90 128.20 37.50Q129.50 38.55 131.15 39.18Q132.80 39.80 134.85 39.80Q136.20 39.80 137.30 39.43Q138.40 39.05 139.22 38.40Q140.05 37.75 140.50 36.85Q140.95 35.95 140.95 34.90Q140.95 34.10 140.78 33.45Q140.60 32.80 140.15 32.25Q139.70 31.70 138.95 31.15Q138.20 30.60 137 29.95Q135.80 29.30 134.10 28.55Q130.90 27.25 129.03 25.80Q127.15 24.35 126.35 22.70Q125.55 21.05 125.55 19.15Q125.55 16.85 126.75 15.10Q127.95 13.35 130.13 12.35Q132.30 11.35 135.20 11.35Q137 11.35 138.63 11.83Q140.25 12.30 141.65 13.15Q143.05 14 144.15 15.30L141.75 18.30L141.45 18.70L141.10 18.45Q141.05 18.05 140.90 17.65Q140.75 17.25 140.20 16.65Q139.10 15.60 137.85 15.23Q136.60 14.85 134.85 14.85Q133.70 14.85 132.78 15.15Q131.85 15.45 131.20 16.05Q130.55 16.65 130.18 17.38Q129.80 18.10 129.80 18.90Q129.80 19.70 130 20.33Q130.20 20.95 130.65 21.55Q131.10 22.15 131.93 22.78Q132.75 23.40 134.03 24.03Q135.30 24.65 137.10 25.40Q139.45 26.40 141 27.35Q142.55 28.30 143.43 29.38Q144.30 30.45 144.70 31.68Q145.10 32.90 145.10 34.45Q145.10 36.60 144 38.70Q142.90 40.80 140.55 42.13Q138.20 43.45 134.45 43.45L134.45 43.45ZM149.70 43L149.70 11.80L157.20 11.80Q159.95 11.80 161.80 12.30Q163.65 12.80 164.95 13.73Q166.25 14.65 167.30 16.05Q168.35 17.45 169.02 19.23Q169.70 21 170.05 23.05Q170.40 25.10 170.40 27.55Q170.30 31.15 169.47 34Q168.65 36.85 167.02 38.85Q165.40 40.85 162.85 41.93Q160.30 43 156.60 43L149.70 43M153.75 39.70L156.45 39.70Q159.95 39.70 162.10 38.28Q164.25 36.85 165.27 34.15Q166.30 31.45 166.25 27.70Q166.25 23.85 165.32 21.05Q164.40 18.25 162.40 16.75Q160.40 15.25 157 15.25L153.75 15.25L153.75 39.70ZM184.10 43.50Q182.80 43.50 181.85 42.58Q180.90 41.65 180.90 40.35Q180.90 39.10 181.85 38.15Q182.80 37.20 184.10 37.20Q185.40 37.20 186.32 38.15Q187.25 39.10 187.25 40.35Q187.25 41.65 186.32 42.58Q185.40 43.50 184.10 43.50ZM215.20 34.45L203.60 34.45L204.35 31.30L214.35 31.30L215.20 34.45M209.65 20.20L202.10 42.95L197.95 42.95L209.10 11.35L210.30 11.35L221.45 42.95L217.15 42.95L209.65 20.20ZM236.35 43.45Q233.80 43.45 231.57 42.53Q229.35 41.60 227.67 39.65Q226 37.70 225.05 34.70Q224.10 31.70 224.10 27.55Q224.10 23.90 224.80 21.18Q225.50 18.45 226.72 16.58Q227.95 14.70 229.52 13.60Q231.10 12.50 232.82 12Q234.55 11.50 236.30 11.50Q239.75 11.50 242.17 13.15Q244.60 14.80 245.85 17.60L242.65 19.45L242.20 19.65L242.05 19.30Q242.15 18.90 242 18.55Q241.85 18.20 241.45 17.50Q240.25 15.95 238.97 15.40Q237.70 14.85 236.30 14.85Q234.55 14.85 233.05 15.68Q231.55 16.50 230.45 18.10Q229.35 19.70 228.77 22.03Q228.20 24.35 228.20 27.30Q228.20 30.15 228.82 32.48Q229.45 34.80 230.55 36.45Q231.65 38.10 233.13 39Q234.60 39.90 236.30 39.90Q237.55 39.90 238.67 39.50Q239.80 39.10 240.75 38.25Q241.70 37.40 242.40 36.25L245.40 38.35Q243.85 40.95 241.65 42.20Q239.45 43.45 236.35 43.45L236.35 43.45ZM259.10 43.50Q257.80 43.50 256.85 42.58Q255.90 41.65 255.90 40.35Q255.90 39.10 256.85 38.15Q257.80 37.20 259.10 37.20Q260.40 37.20 261.32 38.15Q262.25 39.10 262.25 40.35Q262.25 41.65 261.32 42.58Q260.40 43.50 259.10 43.50ZM276.05 42.95L276.05 39.45L282.20 39.45L282.20 15.30L276.40 15.30L276.40 11.80L292.45 11.80L292.45 15.30L286.30 15.30L286.30 39.50L292.75 39.50L292.75 42.95L276.05 42.95ZM299.70 43L299.70 11.80L307.20 11.80Q309.95 11.80 311.80 12.30Q313.65 12.80 314.95 13.73Q316.25 14.65 317.30 16.05Q318.35 17.45 319.02 19.23Q319.70 21 320.05 23.05Q320.40 25.10 320.40 27.55Q320.30 31.15 319.47 34Q318.65 36.85 317.02 38.85Q315.40 40.85 312.85 41.93Q310.30 43 306.60 43L299.70 43M303.75 39.70L306.45 39.70Q309.95 39.70 312.10 38.28Q314.25 36.85 315.27 34.15Q316.30 31.45 316.25 27.70Q316.25 23.85 315.32 21.05Q314.40 18.25 312.40 16.75Q310.40 15.25 307 15.25L303.75 15.25L303.75 39.70Z"/></g></g></svg>