<svg xmlns="http://www.w3.org/2000/svg" viewBox="0 11.350000381469727 344.95001220703125 32.150001525878906" data-asc="0.859" width="344.95001220703125" height="32.150001525878906"><defs/><g fill="#e5e5e5"><g transform="translate(0, 0)"><path d="M8.70 37.75L8.70 28.60L0 28.60L0 25.10L8.70 25.10L8.70 16.70L12.40 16.70L12.40 25.10L20.80 25.10L20.80 28.60L12.40 28.60L12.40 37.75L8.70 37.75ZM35.90 43.45Q32.70 43.45 30.48 41.65Q28.25 39.85 27.10 36.53Q25.95 33.20 25.95 28.70Q25.95 23.15 27.38 19.30Q28.80 15.45 31.33 13.43Q33.85 11.40 37.15 11.40Q39.15 11.40 41 12.10Q42.85 12.80 44.35 14.30L41.85 17.15L41.55 17.55L41.25 17.25Q41.20 16.85 41 16.53Q40.80 16.20 40.15 15.70Q39.75 15.45 39.33 15.30Q38.90 15.15 38.43 15.10Q37.95 15.05 37.40 15.05Q36.60 15.05 35.65 15.30Q34.70 15.55 33.78 16.25Q32.85 16.95 32.03 18.18Q31.20 19.40 30.68 21.38Q30.15 23.35 30.10 26.15Q30.75 25.05 31.78 24.30Q32.80 23.55 34 23.13Q35.20 22.70 36.40 22.70Q38.20 22.70 39.78 23.40Q41.35 24.10 42.53 25.43Q43.70 26.75 44.38 28.65Q45.05 30.55 45.05 32.90Q45.05 36 43.83 38.40Q42.60 40.80 40.55 42.13Q38.50 43.45 35.90 43.45L35.90 43.45M36 39.90Q37.05 39.90 37.95 39.43Q38.85 38.95 39.55 38.08Q40.25 37.20 40.65 35.93Q41.05 34.65 41.05 32.95Q41.05 31.20 40.60 29.93Q40.15 28.65 39.40 27.85Q38.65 27.05 37.75 26.65Q36.85 26.25 35.95 26.25Q35.10 26.25 34.28 26.55Q33.45 26.85 32.73 27.38Q32 27.90 31.38 28.60Q30.75 29.30 30.25 30.15Q30.10 31.95 30.43 33.68Q30.75 35.40 31.50 36.80Q32.25 38.20 33.40 39.05Q34.55 39.90 36 39.90L36 39.90ZM51.25 39.70Q54 36.90 56.25 34.68Q58.50 32.45 60.25 30.58Q62 28.70 63.20 27.05Q64.40 25.40 65.03 23.78Q65.65 22.15 65.65 20.40Q65.65 18.95 65.28 17.95Q64.90 16.95 64.22 16.33Q63.55 15.70 62.63 15.40Q61.70 15.10 60.65 15.10Q59.50 15.10 58.45 15.43Q57.40 15.75 56.45 16.38Q55.50 17 54.70 18Q54.25 18.70 54.15 19.08Q54.05 19.45 54.10 19.85L53.85 20.10L53.50 19.85L50.50 17.55Q51.55 15.60 53.08 14.25Q54.60 12.90 56.53 12.20Q58.45 11.50 60.60 11.50Q63.30 11.50 65.35 12.60Q67.40 13.70 68.60 15.70Q69.80 17.70 69.80 20.45Q69.80 22.45 69.13 24.33Q68.45 26.20 67.22 27.98Q66 29.75 64.35 31.55Q62.70 33.35 60.75 35.28Q58.80 37.20 56.70 39.40L67.70 39.40Q68.55 39.40 68.90 39.30Q69.25 39.20 69.55 38.90L69.95 38.90L69.95 39.40L69.95 42.95L51.25 42.95L51.25 39.70ZM110.35 43.45Q107.35 43.45 105.15 42.33Q102.95 41.20 101.75 39.30Q100.55 37.40 100.55 35.05Q100.55 33.20 101.32 31.55Q102.10 29.90 103.47 28.58Q104.85 27.25 106.70 26.40Q105.35 25.60 104.30 24.50Q103.25 23.40 102.65 22.03Q102.05 20.65 102.05 19.15Q102.05 17 103.05 15.25Q104.05 13.50 105.95 12.43Q107.85 11.35 110.60 11.35Q113.50 11.35 115.38 12.38Q117.25 13.40 118.20 15.10Q119.15 16.80 119.15 18.85Q119.15 20 118.80 21.10Q118.45 22.20 117.85 23.18Q117.25 24.15 116.38 24.95Q115.50 25.75 114.40 26.35Q115.75 27 116.80 27.90Q117.85 28.80 118.63 29.90Q119.40 31 119.80 32.25Q120.20 33.50 120.20 34.85Q120.20 37.35 118.97 39.28Q117.75 41.20 115.55 42.33Q113.35 43.45 110.35 43.45M110.45 39.80Q112.25 39.80 113.47 39.13Q114.70 38.45 115.32 37.30Q115.95 36.15 115.95 34.75Q115.95 33.65 115.50 32.63Q115.05 31.60 114.22 30.75Q113.40 29.90 112.22 29.18Q111.05 28.45 109.60 28.05Q108.60 28.50 107.70 29.18Q106.80 29.85 106.17 30.73Q105.55 31.60 105.20 32.55Q104.85 33.50 104.85 34.60Q104.85 36.05 105.50 37.23Q106.15 38.40 107.42 39.10Q108.70 39.80 110.45 39.80M111.25 24.95Q112.10 24.45 112.80 23.78Q113.50 23.10 114 22.35Q114.50 21.60 114.80 20.75Q115.10 19.90 115.10 19.05Q115.10 17.95 114.57 17Q114.05 16.05 113.02 15.45Q112 14.85 110.50 14.85Q109 14.85 108.02 15.43Q107.05 16 106.55 16.93Q106.05 17.85 106.05 18.95Q106.05 20 106.45 20.88Q106.85 21.75 107.57 22.45Q108.30 23.15 109.25 23.78Q110.20 24.40 111.25 24.95ZM134 42.95L134 16.70L127.90 18.60L126.95 16.05L135.15 11.75L138.20 11.75L138.20 42.95L134 42.95ZM159 42.95L159 16.70L152.90 18.60L151.95 16.05L160.15 11.75L163.20 11.75L163.20 42.95L159 42.95ZM201.25 39.70Q204 36.90 206.25 34.68Q208.50 32.45 210.25 30.58Q212 28.70 213.20 27.05Q214.40 25.40 215.03 23.78Q215.65 22.15 215.65 20.40Q215.65 18.95 215.28 17.95Q214.90 16.95 214.22 16.33Q213.55 15.70 212.63 15.40Q211.70 15.10 210.65 15.10Q209.50 15.10 208.45 15.43Q207.40 15.75 206.45 16.38Q205.50 17 204.70 18Q204.25 18.70 204.15 19.08Q204.05 19.45 204.10 19.85L203.85 20.10L203.50 19.85L200.50 17.55Q201.55 15.60 203.07 14.25Q204.60 12.90 206.53 12.20Q208.45 11.50 210.60 11.50Q213.30 11.50 215.35 12.60Q217.40 13.70 218.60 15.70Q219.80 17.70 219.80 20.45Q219.80 22.45 219.13 24.33Q218.45 26.20 217.22 27.98Q216 29.75 214.35 31.55Q212.70 33.35 210.75 35.28Q208.80 37.20 206.70 39.40L217.70 39.40Q218.55 39.40 218.90 39.30Q219.25 39.20 219.55 38.90L219.95 38.90L219.95 39.40L219.95 42.95L201.25 42.95L201.25 39.70ZM230.10 42.95Q231.55 38.25 233.07 33.70Q234.60 29.15 236.22 24.65Q237.85 20.15 239.60 15.60L226.55 15.60L226.55 11.80L244.65 11.80L244.65 14.15Q243.25 17.65 241.88 21.20Q240.50 24.75 239.25 28.35Q238 31.95 236.88 35.58Q235.75 39.20 234.65 42.95L230.10 42.95ZM253.20 34.70L266.55 18.05L267.65 20.85L254.30 37.35L253.20 34.70M260.35 43.50Q257.20 43.50 254.97 41.65Q252.75 39.80 251.55 36.23Q250.35 32.65 250.35 27.55Q250.35 22.55 251.55 18.98Q252.75 15.40 254.97 13.45Q257.20 11.50 260.35 11.50Q263.50 11.50 265.73 13.45Q267.95 15.40 269.15 18.98Q270.35 22.55 270.35 27.55Q270.35 32.65 269.15 36.23Q267.95 39.80 265.73 41.65Q263.50 43.50 260.35 43.50M260.35 40.05Q262.20 40.05 263.50 38.60Q264.80 37.15 265.50 34.35Q266.20 31.55 266.20 27.55Q266.20 23.70 265.50 20.93Q264.80 18.15 263.50 16.60Q262.20 15.05 260.35 15.05Q258.50 15.05 257.20 16.60Q255.90 18.15 255.20 20.93Q254.50 23.70 254.50 27.55Q254.50 31.55 255.20 34.35Q255.90 37.15 257.20 38.60Q258.50 40.05 260.35 40.05ZM284 42.95L284 16.70L277.90 18.60L276.95 16.05L285.15 11.75L288.20 11.75L288.20 42.95L284 42.95ZM313.20 42.95L313.20 35.40L300.10 35.40L300.10 32.45L314.10 11.75L317.50 11.75L317.50 31.95L321.50 31.95L321.50 35.45L317.50 35.45L317.50 42.95L313.20 42.95M304.70 31.95L313.25 31.95L313.25 18.95L304.70 31.95ZM334.20 43.45Q331.85 43.45 329.90 42.78Q327.95 42.10 326.35 40.65L328.75 37.60L329.10 37.20L329.40 37.45Q329.45 37.85 329.65 38.18Q329.85 38.50 330.45 39.05Q331.20 39.50 332.03 39.73Q332.85 39.95 333.90 39.95Q335.75 39.95 337.08 38.90Q338.40 37.85 339.25 36.05Q340.10 34.25 340.55 31.95Q341 29.65 341 27.15Q341 22.95 340.40 20.28Q339.80 17.60 338.53 16.33Q337.25 15.05 335.30 15.05Q334.10 15.05 333.10 15.50Q332.10 15.95 331.38 16.85Q330.65 17.75 330.28 19Q329.90 20.25 329.90 21.85Q329.90 23.25 330.33 24.38Q330.75 25.50 331.50 26.28Q332.25 27.05 333.23 27.45Q334.20 27.85 335.30 27.85Q336.90 27.85 338.05 27.50Q339.20 27.15 340.18 26.30Q341.15 25.45 341.95 24.05L342.30 28.05Q341.45 29.05 340.40 29.80Q339.35 30.55 338.03 30.98Q336.70 31.40 335.10 31.40Q333.15 31.40 331.45 30.73Q329.75 30.05 328.50 28.78Q327.25 27.50 326.58 25.73Q325.90 23.95 325.90 21.80Q325.90 19.60 326.63 17.73Q327.35 15.85 328.63 14.45Q329.90 13.05 331.60 12.28Q333.30 11.50 335.25 11.50Q338.30 11.50 340.48 13.20Q342.65 14.90 343.80 17.95Q344.95 21 344.95 25.15Q344.95 31.25 343.68 35.30Q342.40 39.35 340 41.38Q337.60 43.40 334.20 43.45L334.20 43.45Z"/></g></g></svg>