<svg xmlns="http://www.w3.org/2000/svg" viewBox="0 11.300000190734863 647 32.25" data-asc="0.859" width="647" height="32.25"><defs/><g fill="#e0e0e0"><g transform="translate(0, 0)"><path d="M9.50 42.95L9.50 30.65L0 11.80L4.60 11.80L11.85 26.20L18.35 11.80L22.70 11.80L13.95 30.65L13.95 42.95L9.50 42.95ZM41.80 34.45L30.20 34.45L30.95 31.30L40.95 31.30L41.80 34.45M36.25 20.20L28.70 42.95L24.55 42.95L35.70 11.35L36.90 11.35L48.05 42.95L43.75 42.95L36.25 20.20ZM51.10 11.80L55.30 11.80L67.55 34.05L67.45 11.80L71.35 11.80L71.85 11.80L71.85 12.20Q71.55 12.50 71.47 12.85Q71.40 13.20 71.40 14.05L71.40 42.95L67.80 42.95L55 19.35L55 42.95L51.10 42.95L51.10 11.80ZM86.35 43.55Q81.30 43.55 78.67 40.53Q76.05 37.50 76.05 32.15L76.05 11.80L80.20 11.80L80.70 11.80L80.70 12.20Q80.40 12.50 80.33 12.85Q80.25 13.20 80.25 14.05L80.25 32.20Q80.25 35.80 81.60 37.93Q82.95 40.05 86.40 40.05Q89.85 40.05 91.22 37.93Q92.60 35.80 92.60 32.05L92.60 11.80L96.70 11.80L96.70 32Q96.70 35.95 95.40 38.50Q94.10 41.05 91.78 42.30Q89.45 43.55 86.35 43.55L86.35 43.55ZM116.80 34.45L105.20 34.45L105.95 31.30L115.95 31.30L116.80 34.45M111.25 20.20L103.70 42.95L99.55 42.95L110.70 11.35L111.90 11.35L123.05 42.95L118.75 42.95L111.25 20.20ZM126.40 42.95L126.40 11.80L135.85 11.80Q139.60 11.80 141.93 12.90Q144.25 14 145.32 16.03Q146.40 18.05 146.40 20.80Q146.40 22.50 145.65 24.25Q144.90 26.00 143.50 27.30Q142.10 28.60 140.20 29.20L147.25 42.95L142.65 42.95L135.95 29.45L130.70 29.45L130.70 42.95L126.40 42.95M130.70 25.85L136.25 25.85Q139.25 25.85 140.65 24.48Q142.05 23.10 142.05 20.85Q142.05 19.40 141.45 18.23Q140.85 17.05 139.55 16.35Q138.25 15.65 136.25 15.65L130.70 15.65L130.70 25.85ZM163.55 43.50Q161.05 43.50 158.65 42.53Q156.25 41.55 154.38 39.55Q152.50 37.55 151.38 34.50Q150.25 31.45 150.25 27.25Q150.25 23.15 151.30 20.13Q152.35 17.10 154.10 15.15Q155.85 13.20 158 12.25Q160.15 11.30 162.35 11.30Q164.35 11.30 166.15 12Q167.95 12.70 169.30 14.13Q170.65 15.55 171.43 17.75Q172.20 19.95 172.20 22.85L172.20 34.30L168.70 34.30L168.70 32.55Q167.85 33.60 166.70 34.15Q165.55 34.70 164.10 34.70Q162.20 34.70 160.70 33.85Q159.20 33 158.35 31.48Q157.50 29.95 157.50 28.05Q157.50 26.30 158.15 24.88Q158.80 23.45 160.18 22.43Q161.55 21.40 163.65 20.90Q165.75 20.40 168.55 20.55Q168.55 18.70 167.78 17.30Q167 15.90 165.60 15.10Q164.20 14.30 162.20 14.30Q160.50 14.30 158.95 15.03Q157.40 15.75 156.20 17.30Q155 18.85 154.30 21.20Q153.60 23.55 153.60 26.80Q153.60 30.30 154.45 32.83Q155.30 35.35 156.78 37Q158.25 38.65 160.08 39.45Q161.90 40.25 163.85 40.25Q165.25 40.25 166.60 39.83Q167.95 39.40 169.20 38.50L170.80 41.30Q169.20 42.35 167.35 42.93Q165.50 43.50 163.55 43.50M164.65 31.60Q165.70 31.60 166.48 31.18Q167.25 30.75 167.75 29.80Q168.25 28.85 168.50 27.30Q168.75 25.75 168.75 23.50Q166.10 23.30 164.40 23.80Q162.70 24.30 161.85 25.33Q161 26.35 161 27.80Q161 29.60 161.90 30.60Q162.80 31.60 164.65 31.60ZM182.50 27.85L180.15 30.55L180.15 42.95L175.80 42.95L175.80 11.80L180.10 11.80L180.60 11.80L180.60 12.20Q180.30 12.50 180.23 12.85Q180.15 13.20 180.15 14.05L180.15 25.60L192.30 11.55Q192.60 11.60 192.98 11.65Q193.35 11.70 193.73 11.73Q194.10 11.75 194.50 11.78Q194.90 11.80 195.25 11.80L196.95 11.80L185.60 25.10L197.70 42.95L192.55 43.15L182.50 27.85ZM216.80 34.45L205.20 34.45L205.95 31.30L215.95 31.30L216.80 34.45M211.25 20.20L203.70 42.95L199.55 42.95L210.70 11.35L211.90 11.35L223.05 42.95L218.75 42.95L211.25 20.20ZM226.10 11.80L230.30 11.80L242.55 34.05L242.45 11.80L246.35 11.80L246.85 11.80L246.85 12.20Q246.55 12.50 246.48 12.85Q246.40 13.20 246.40 14.05L246.40 42.95L242.80 42.95L230 19.35L230 42.95L226.10 42.95L226.10 11.80ZM252.65 42.95L252.65 39.45L258.80 39.45L258.80 15.30L253 15.30L253 11.80L269.05 11.80L269.05 15.30L262.90 15.30L262.90 39.50L269.35 39.50L269.35 42.95L252.65 42.95ZM286.05 43.45Q283 43.45 280.48 42.48Q277.95 41.50 276.10 39.60L278.25 35.95L278.45 35.50L278.80 35.70Q278.90 36.05 279.07 36.48Q279.25 36.90 279.80 37.50Q281.10 38.55 282.75 39.18Q284.40 39.80 286.45 39.80Q287.80 39.80 288.90 39.43Q290 39.05 290.82 38.40Q291.65 37.75 292.10 36.85Q292.55 35.95 292.55 34.90Q292.55 34.10 292.38 33.45Q292.20 32.80 291.75 32.25Q291.30 31.70 290.55 31.15Q289.80 30.60 288.60 29.95Q287.40 29.30 285.70 28.55Q282.50 27.25 280.63 25.80Q278.75 24.35 277.95 22.70Q277.15 21.05 277.15 19.15Q277.15 16.85 278.35 15.10Q279.55 13.35 281.73 12.35Q283.90 11.35 286.80 11.35Q288.60 11.35 290.23 11.83Q291.85 12.30 293.25 13.15Q294.65 14 295.75 15.30L293.35 18.30L293.05 18.70L292.70 18.45Q292.65 18.05 292.50 17.65Q292.35 17.25 291.80 16.65Q290.70 15.60 289.45 15.23Q288.20 14.85 286.45 14.85Q285.30 14.85 284.38 15.15Q283.45 15.45 282.80 16.05Q282.15 16.65 281.78 17.38Q281.40 18.10 281.40 18.90Q281.40 19.70 281.60 20.33Q281.80 20.95 282.25 21.55Q282.70 22.15 283.53 22.78Q284.35 23.40 285.63 24.03Q286.90 24.65 288.70 25.40Q291.05 26.40 292.60 27.35Q294.15 28.30 295.03 29.38Q295.90 30.45 296.30 31.68Q296.70 32.90 296.70 34.45Q296.70 36.60 295.60 38.70Q294.50 40.80 292.15 42.13Q289.80 43.45 286.05 43.45L286.05 43.45ZM302.65 42.95L302.65 39.45L308.80 39.45L308.80 15.30L303 15.30L303 11.80L319.05 11.80L319.05 15.30L312.90 15.30L312.90 39.50L319.35 39.50L319.35 42.95L302.65 42.95ZM336.35 43.55Q331.30 43.55 328.68 40.53Q326.05 37.50 326.05 32.15L326.05 11.80L330.20 11.80L330.70 11.80L330.70 12.20Q330.40 12.50 330.32 12.85Q330.25 13.20 330.25 14.05L330.25 32.20Q330.25 35.80 331.60 37.93Q332.95 40.05 336.40 40.05Q339.85 40.05 341.23 37.93Q342.60 35.80 342.60 32.05L342.60 11.80L346.70 11.80L346.70 32Q346.70 35.95 345.40 38.50Q344.10 41.05 341.78 42.30Q339.45 43.55 336.35 43.55L336.35 43.55ZM361.05 43.45Q358 43.45 355.48 42.48Q352.95 41.50 351.10 39.60L353.25 35.95L353.45 35.50L353.80 35.70Q353.90 36.05 354.07 36.48Q354.25 36.90 354.80 37.50Q356.10 38.55 357.75 39.18Q359.40 39.80 361.45 39.80Q362.80 39.80 363.90 39.43Q365 39.05 365.82 38.40Q366.65 37.75 367.10 36.85Q367.55 35.95 367.55 34.90Q367.55 34.10 367.38 33.45Q367.20 32.80 366.75 32.25Q366.30 31.70 365.55 31.15Q364.80 30.60 363.60 29.95Q362.40 29.30 360.70 28.55Q357.50 27.25 355.63 25.80Q353.75 24.35 352.95 22.70Q352.15 21.05 352.15 19.15Q352.15 16.85 353.35 15.10Q354.55 13.35 356.73 12.35Q358.90 11.35 361.80 11.35Q363.60 11.35 365.23 11.83Q366.85 12.30 368.25 13.15Q369.65 14 370.75 15.30L368.35 18.30L368.05 18.70L367.70 18.45Q367.65 18.05 367.50 17.65Q367.35 17.25 366.80 16.65Q365.70 15.60 364.45 15.23Q363.20 14.85 361.45 14.85Q360.30 14.85 359.38 15.15Q358.45 15.45 357.80 16.05Q357.15 16.65 356.78 17.38Q356.40 18.10 356.40 18.90Q356.40 19.70 356.60 20.33Q356.80 20.95 357.25 21.55Q357.70 22.15 358.53 22.78Q359.35 23.40 360.63 24.03Q361.90 24.65 363.70 25.40Q366.05 26.40 367.60 27.35Q369.15 28.30 370.03 29.38Q370.90 30.45 371.30 31.68Q371.70 32.90 371.70 34.45Q371.70 36.60 370.60 38.70Q369.50 40.80 367.15 42.13Q364.80 43.45 361.05 43.45L361.05 43.45ZM375.70 42.95L375.70 11.80L379.20 11.80L386.35 26.75L393.60 11.75L397 11.75L397 42.95L393.15 42.95L393.15 20.05L387.05 32.20L385.20 32.20L379.50 20.15L379.50 42.95L375.70 42.95ZM401.60 42.95L401.60 11.75L421.10 11.75L421.10 15.35L405.65 15.35L405.65 24.85L418.40 24.85L418.40 28.55L405.65 28.55L405.65 39.35L420.95 39.35L420.95 42.95L401.60 42.95ZM426.30 43L426.30 11.80L433.80 11.80Q436.55 11.80 438.40 12.30Q440.25 12.80 441.55 13.73Q442.85 14.65 443.90 16.05Q444.95 17.45 445.63 19.23Q446.30 21 446.65 23.05Q447 25.10 447 27.55Q446.90 31.15 446.07 34Q445.25 36.85 443.63 38.85Q442 40.85 439.45 41.93Q436.90 43 433.20 43L426.30 43M430.35 39.70L433.05 39.70Q436.55 39.70 438.70 38.28Q440.85 36.85 441.88 34.15Q442.90 31.45 442.85 27.70Q442.85 23.85 441.93 21.05Q441 18.25 439 16.75Q437 15.25 433.60 15.25L430.35 15.25L430.35 39.70ZM452.65 42.95L452.65 39.45L458.80 39.45L458.80 15.30L453 15.30L453 11.80L469.05 11.80L469.05 15.30L462.90 15.30L462.90 39.50L469.35 39.50L469.35 42.95L452.65 42.95ZM491.80 34.45L480.20 34.45L480.95 31.30L490.95 31.30L491.80 34.45M486.25 20.20L478.70 42.95L474.55 42.95L485.70 11.35L486.90 11.35L498.05 42.95L493.75 42.95L486.25 20.20ZM510.70 43.50Q509.40 43.50 508.45 42.58Q507.50 41.65 507.50 40.35Q507.50 39.10 508.45 38.15Q509.40 37.20 510.70 37.20Q512 37.20 512.92 38.15Q513.85 39.10 513.85 40.35Q513.85 41.65 512.92 42.58Q512 43.50 510.70 43.50ZM537.95 43.45Q535.40 43.45 533.17 42.53Q530.95 41.60 529.27 39.65Q527.60 37.70 526.65 34.70Q525.70 31.70 525.70 27.55Q525.70 23.90 526.40 21.18Q527.10 18.45 528.32 16.58Q529.55 14.70 531.13 13.60Q532.70 12.50 534.42 12Q536.15 11.50 537.90 11.50Q541.35 11.50 543.77 13.15Q546.20 14.80 547.45 17.60L544.25 19.45L543.80 19.65L543.65 19.30Q543.75 18.90 543.60 18.55Q543.45 18.20 543.05 17.50Q541.85 15.95 540.57 15.40Q539.30 14.85 537.90 14.85Q536.15 14.85 534.65 15.68Q533.15 16.50 532.05 18.10Q530.95 19.70 530.38 22.03Q529.80 24.35 529.80 27.30Q529.80 30.15 530.42 32.48Q531.05 34.80 532.15 36.45Q533.25 38.10 534.72 39Q536.20 39.90 537.90 39.90Q539.15 39.90 540.27 39.50Q541.40 39.10 542.35 38.25Q543.30 37.40 544 36.25L547 38.35Q545.45 40.95 543.25 42.20Q541.05 43.45 537.95 43.45L537.95 43.45ZM561.35 43.50Q557.70 43.50 555.17 41.65Q552.65 39.80 551.32 36.20Q550 32.60 550 27.50Q550 22.50 551.32 18.93Q552.65 15.35 555.17 13.43Q557.70 11.50 561.35 11.50Q565 11.50 567.50 13.43Q570 15.35 571.32 18.93Q572.65 22.50 572.65 27.50Q572.65 32.60 571.32 36.20Q570 39.80 567.50 41.65Q565 43.50 561.35 43.50M561.35 39.95Q563.55 39.95 565.13 38.53Q566.70 37.10 567.52 34.33Q568.35 31.55 568.35 27.50Q568.35 23.65 567.52 20.88Q566.70 18.10 565.13 16.60Q563.55 15.10 561.35 15.10Q559.15 15.10 557.55 16.60Q555.95 18.10 555.13 20.88Q554.30 23.65 554.30 27.50Q554.30 31.55 555.13 34.33Q555.95 37.10 557.55 38.53Q559.15 39.95 561.35 39.95ZM585.70 43.50Q584.40 43.50 583.45 42.58Q582.50 41.65 582.50 40.35Q582.50 39.10 583.45 38.15Q584.40 37.20 585.70 37.20Q587 37.20 587.92 38.15Q588.85 39.10 588.85 40.35Q588.85 41.65 587.92 42.58Q587 43.50 585.70 43.50ZM602.65 42.95L602.65 39.45L608.80 39.45L608.80 15.30L603 15.30L603 11.80L619.05 11.80L619.05 15.30L612.90 15.30L612.90 39.50L619.35 39.50L619.35 42.95L602.65 42.95ZM626.30 43L626.30 11.80L633.80 11.80Q636.55 11.80 638.40 12.30Q640.25 12.80 641.55 13.73Q642.85 14.65 643.90 16.05Q644.95 17.45 645.63 19.23Q646.30 21 646.65 23.05Q647 25.10 647 27.55Q646.90 31.15 646.07 34Q645.25 36.85 643.63 38.85Q642 40.85 639.45 41.93Q636.90 43 633.20 43L626.30 43M630.35 39.70L633.05 39.70Q636.55 39.70 638.70 38.28Q640.85 36.85 641.88 34.15Q642.90 31.45 642.85 27.70Q642.85 23.85 641.92 21.05Q641 18.25 639 16.75Q637 15.25 633.60 15.25L630.35 15.25L630.35 39.70Z"/></g></g></svg>