<svg xmlns="http://www.w3.org/2000/svg" viewBox="0 11.350000381469727 344.45001220703125 32.150001525878906" data-asc="0.859" width="344.45001220703125" height="32.150001525878906"><defs/><g fill="#e5e5e5"><g transform="translate(0, 0)"><path d="M8.70 37.75L8.70 28.60L0 28.60L0 25.10L8.70 25.10L8.70 16.70L12.40 16.70L12.40 25.10L20.80 25.10L20.80 28.60L12.40 28.60L12.40 37.75L8.70 37.75ZM35.90 43.45Q32.70 43.45 30.48 41.65Q28.25 39.85 27.10 36.53Q25.95 33.20 25.95 28.70Q25.95 23.15 27.38 19.30Q28.80 15.45 31.33 13.43Q33.85 11.40 37.15 11.40Q39.15 11.40 41 12.10Q42.85 12.80 44.35 14.30L41.85 17.15L41.55 17.55L41.25 17.25Q41.20 16.85 41 16.53Q40.80 16.20 40.15 15.70Q39.75 15.45 39.33 15.30Q38.90 15.15 38.43 15.10Q37.95 15.05 37.40 15.05Q36.60 15.05 35.65 15.30Q34.70 15.55 33.78 16.25Q32.85 16.95 32.03 18.18Q31.20 19.40 30.68 21.38Q30.15 23.35 30.10 26.15Q30.75 25.05 31.78 24.30Q32.80 23.55 34 23.13Q35.20 22.70 36.40 22.70Q38.20 22.70 39.78 23.40Q41.35 24.10 42.53 25.43Q43.70 26.75 44.38 28.65Q45.05 30.55 45.05 32.90Q45.05 36 43.83 38.40Q42.60 40.80 40.55 42.13Q38.50 43.45 35.90 43.45L35.90 43.45M36 39.90Q37.05 39.90 37.95 39.43Q38.85 38.95 39.55 38.08Q40.25 37.20 40.65 35.93Q41.05 34.65 41.05 32.95Q41.05 31.20 40.60 29.93Q40.15 28.65 39.40 27.85Q38.65 27.05 37.75 26.65Q36.85 26.25 35.95 26.25Q35.10 26.25 34.28 26.55Q33.45 26.85 32.73 27.38Q32 27.90 31.38 28.60Q30.75 29.30 30.25 30.15Q30.10 31.95 30.43 33.68Q30.75 35.40 31.50 36.80Q32.25 38.20 33.40 39.05Q34.55 39.90 36 39.90L36 39.90ZM51.25 39.70Q54 36.90 56.25 34.68Q58.50 32.45 60.25 30.58Q62 28.70 63.20 27.05Q64.40 25.40 65.03 23.78Q65.65 22.15 65.65 20.40Q65.65 18.95 65.28 17.95Q64.90 16.95 64.22 16.33Q63.55 15.70 62.63 15.40Q61.70 15.10 60.65 15.10Q59.50 15.10 58.45 15.43Q57.40 15.75 56.45 16.38Q55.50 17 54.70 18Q54.25 18.70 54.15 19.08Q54.05 19.45 54.10 19.85L53.85 20.10L53.50 19.85L50.50 17.55Q51.55 15.60 53.08 14.25Q54.60 12.90 56.53 12.20Q58.45 11.50 60.60 11.50Q63.30 11.50 65.35 12.60Q67.40 13.70 68.60 15.70Q69.80 17.70 69.80 20.45Q69.80 22.45 69.13 24.33Q68.45 26.20 67.22 27.98Q66 29.75 64.35 31.55Q62.70 33.35 60.75 35.28Q58.80 37.20 56.70 39.40L67.70 39.40Q68.55 39.40 68.90 39.30Q69.25 39.20 69.55 38.90L69.95 38.90L69.95 39.40L69.95 42.95L51.25 42.95L51.25 39.70ZM101.25 39.70Q104 36.90 106.25 34.68Q108.50 32.45 110.25 30.58Q112 28.70 113.20 27.05Q114.40 25.40 115.02 23.78Q115.65 22.15 115.65 20.40Q115.65 18.95 115.27 17.95Q114.90 16.95 114.22 16.33Q113.55 15.70 112.63 15.40Q111.70 15.10 110.65 15.10Q109.50 15.10 108.45 15.43Q107.40 15.75 106.45 16.38Q105.50 17 104.70 18Q104.25 18.70 104.15 19.08Q104.05 19.45 104.10 19.85L103.85 20.10L103.50 19.85L100.50 17.55Q101.55 15.60 103.07 14.25Q104.60 12.90 106.52 12.20Q108.45 11.50 110.60 11.50Q113.30 11.50 115.35 12.60Q117.40 13.70 118.60 15.70Q119.80 17.70 119.80 20.45Q119.80 22.45 119.13 24.33Q118.45 26.20 117.22 27.98Q116 29.75 114.35 31.55Q112.70 33.35 110.75 35.28Q108.80 37.20 106.70 39.40L117.70 39.40Q118.55 39.40 118.90 39.30Q119.25 39.20 119.55 38.90L119.95 38.90L119.95 39.40L119.95 42.95L101.25 42.95L101.25 39.70ZM130.10 42.95Q131.55 38.25 133.07 33.70Q134.60 29.15 136.22 24.65Q137.85 20.15 139.60 15.60L126.55 15.60L126.55 11.80L144.65 11.80L144.65 14.15Q143.25 17.65 141.88 21.20Q140.50 24.75 139.25 28.35Q138 31.95 136.88 35.58Q135.75 39.20 134.65 42.95L130.10 42.95ZM163.20 42.95L163.20 35.40L150.10 35.40L150.10 32.45L164.10 11.75L167.50 11.75L167.50 31.95L171.50 31.95L171.50 35.45L167.50 35.45L167.50 42.95L163.20 42.95M154.70 31.95L163.25 31.95L163.25 18.95L154.70 31.95ZM210.35 43.50Q207.35 43.50 204.88 42.25Q202.40 41 200.90 38.65L204.05 36.20L204.45 35.90L204.70 36.15Q204.65 36.55 204.82 36.90Q205 37.25 205.50 37.90Q206.45 38.95 207.63 39.45Q208.80 39.95 210.45 39.95Q211.65 39.95 212.70 39.45Q213.75 38.95 214.53 38.05Q215.30 37.15 215.75 35.85Q216.20 34.55 216.20 33Q216.20 31.40 215.75 30.10Q215.30 28.80 214.50 27.90Q213.70 27 212.60 26.50Q211.50 26.00 210.20 26.00Q209.15 26.00 208.13 26.33Q207.10 26.65 206.22 27.28Q205.35 27.90 204.60 28.80L202 27.90L203.05 11.80L219.15 11.80L219.15 15.40L206.60 15.40L206.10 23.75Q206.90 23.35 207.70 23.08Q208.50 22.80 209.35 22.68Q210.20 22.55 211 22.55Q213.05 22.55 214.75 23.28Q216.45 24.00 217.72 25.35Q219 26.70 219.68 28.63Q220.35 30.55 220.35 33Q220.35 36.25 219.03 38.60Q217.70 40.95 215.47 42.23Q213.25 43.50 210.35 43.50L210.35 43.50ZM235.35 43.45Q232.35 43.45 230.15 42.33Q227.95 41.20 226.75 39.30Q225.55 37.40 225.55 35.05Q225.55 33.20 226.32 31.55Q227.10 29.90 228.47 28.58Q229.85 27.25 231.70 26.40Q230.35 25.60 229.30 24.50Q228.25 23.40 227.65 22.03Q227.05 20.65 227.05 19.15Q227.05 17 228.05 15.25Q229.05 13.50 230.95 12.43Q232.85 11.35 235.60 11.35Q238.50 11.35 240.38 12.38Q242.25 13.40 243.20 15.10Q244.15 16.80 244.15 18.85Q244.15 20 243.80 21.10Q243.45 22.20 242.85 23.18Q242.25 24.15 241.38 24.95Q240.50 25.75 239.40 26.35Q240.75 27 241.80 27.90Q242.85 28.80 243.63 29.90Q244.40 31 244.80 32.25Q245.20 33.50 245.20 34.85Q245.20 37.35 243.97 39.28Q242.75 41.20 240.55 42.33Q238.35 43.45 235.35 43.45M235.45 39.80Q237.25 39.80 238.47 39.13Q239.70 38.45 240.32 37.30Q240.95 36.15 240.95 34.75Q240.95 33.65 240.50 32.63Q240.05 31.60 239.22 30.75Q238.40 29.90 237.22 29.18Q236.05 28.45 234.60 28.05Q233.60 28.50 232.70 29.18Q231.80 29.85 231.17 30.73Q230.55 31.60 230.20 32.55Q229.85 33.50 229.85 34.60Q229.85 36.05 230.50 37.23Q231.15 38.40 232.42 39.10Q233.70 39.80 235.45 39.80M236.25 24.95Q237.10 24.45 237.80 23.78Q238.50 23.10 239 22.35Q239.50 21.60 239.80 20.75Q240.10 19.90 240.10 19.05Q240.10 17.95 239.57 17Q239.05 16.05 238.03 15.45Q237 14.85 235.50 14.85Q234 14.85 233.03 15.43Q232.05 16 231.55 16.93Q231.05 17.85 231.05 18.95Q231.05 20 231.45 20.88Q231.85 21.75 232.57 22.45Q233.30 23.15 234.25 23.78Q235.20 24.40 236.25 24.95ZM260.35 43.45Q257.35 43.45 255.15 42.33Q252.95 41.20 251.75 39.30Q250.55 37.40 250.55 35.05Q250.55 33.20 251.32 31.55Q252.10 29.90 253.47 28.58Q254.85 27.25 256.70 26.40Q255.35 25.60 254.30 24.50Q253.25 23.40 252.65 22.03Q252.05 20.65 252.05 19.15Q252.05 17 253.05 15.25Q254.05 13.50 255.95 12.43Q257.85 11.35 260.60 11.35Q263.50 11.35 265.38 12.38Q267.25 13.40 268.20 15.10Q269.15 16.80 269.15 18.85Q269.15 20 268.80 21.10Q268.45 22.20 267.85 23.18Q267.25 24.15 266.38 24.95Q265.50 25.75 264.40 26.35Q265.75 27 266.80 27.90Q267.85 28.80 268.63 29.90Q269.40 31 269.80 32.25Q270.20 33.50 270.20 34.85Q270.20 37.35 268.98 39.28Q267.75 41.20 265.55 42.33Q263.35 43.45 260.35 43.45M260.45 39.80Q262.25 39.80 263.48 39.13Q264.70 38.45 265.32 37.30Q265.95 36.15 265.95 34.75Q265.95 33.65 265.50 32.63Q265.05 31.60 264.23 30.75Q263.40 29.90 262.23 29.18Q261.05 28.45 259.60 28.05Q258.60 28.50 257.70 29.18Q256.80 29.85 256.18 30.73Q255.55 31.60 255.20 32.55Q254.85 33.50 254.85 34.60Q254.85 36.05 255.50 37.23Q256.15 38.40 257.43 39.10Q258.70 39.80 260.45 39.80M261.25 24.95Q262.10 24.45 262.80 23.78Q263.50 23.10 264 22.35Q264.50 21.60 264.80 20.75Q265.10 19.90 265.10 19.05Q265.10 17.95 264.57 17Q264.05 16.05 263.02 15.45Q262 14.85 260.50 14.85Q259 14.85 258.02 15.43Q257.05 16 256.55 16.93Q256.05 17.85 256.05 18.95Q256.05 20 256.45 20.88Q256.85 21.75 257.57 22.45Q258.30 23.15 259.25 23.78Q260.20 24.40 261.25 24.95ZM280.10 42.95Q281.55 38.25 283.08 33.70Q284.60 29.15 286.23 24.65Q287.85 20.15 289.60 15.60L276.55 15.60L276.55 11.80L294.65 11.80L294.65 14.15Q293.25 17.65 291.88 21.20Q290.50 24.75 289.25 28.35Q288 31.95 286.88 35.58Q285.75 39.20 284.65 42.95L280.10 42.95ZM310.35 43.45Q307.35 43.45 305.15 42.33Q302.95 41.20 301.75 39.30Q300.55 37.40 300.55 35.05Q300.55 33.20 301.33 31.55Q302.10 29.90 303.48 28.58Q304.85 27.25 306.70 26.40Q305.35 25.60 304.30 24.50Q303.25 23.40 302.65 22.03Q302.05 20.65 302.05 19.15Q302.05 17 303.05 15.25Q304.05 13.50 305.95 12.43Q307.85 11.35 310.60 11.35Q313.50 11.35 315.38 12.38Q317.25 13.40 318.20 15.10Q319.15 16.80 319.15 18.85Q319.15 20 318.80 21.10Q318.45 22.20 317.85 23.18Q317.25 24.15 316.38 24.95Q315.50 25.75 314.40 26.35Q315.75 27 316.80 27.90Q317.85 28.80 318.63 29.90Q319.40 31 319.80 32.25Q320.20 33.50 320.20 34.85Q320.20 37.35 318.98 39.28Q317.75 41.20 315.55 42.33Q313.35 43.45 310.35 43.45M310.45 39.80Q312.25 39.80 313.48 39.13Q314.70 38.45 315.33 37.30Q315.95 36.15 315.95 34.75Q315.95 33.65 315.50 32.63Q315.05 31.60 314.23 30.75Q313.40 29.90 312.23 29.18Q311.05 28.45 309.60 28.05Q308.60 28.50 307.70 29.18Q306.80 29.85 306.18 30.73Q305.55 31.60 305.20 32.55Q304.85 33.50 304.85 34.60Q304.85 36.05 305.50 37.23Q306.15 38.40 307.43 39.10Q308.70 39.80 310.45 39.80M311.25 24.95Q312.10 24.45 312.80 23.78Q313.50 23.10 314 22.35Q314.50 21.60 314.80 20.75Q315.10 19.90 315.10 19.05Q315.10 17.95 314.58 17Q314.05 16.05 313.03 15.45Q312 14.85 310.50 14.85Q309 14.85 308.03 15.43Q307.05 16 306.55 16.93Q306.05 17.85 306.05 18.95Q306.05 20 306.45 20.88Q306.85 21.75 307.58 22.45Q308.30 23.15 309.25 23.78Q310.20 24.40 311.25 24.95ZM334.75 43.50Q332.20 43.50 329.85 42.60Q327.50 41.70 325.90 39.90L328.35 36.70L328.70 36.30L329 36.55Q329.05 36.95 329.20 37.33Q329.35 37.70 329.90 38.30Q330.80 39.05 331.93 39.53Q333.05 40 334.60 40Q336.45 40 337.68 39.28Q338.90 38.55 339.53 37.23Q340.15 35.90 340.15 34.20Q340.15 32.50 339.58 31.30Q339 30.10 337.88 29.43Q336.75 28.75 335.18 28.50Q333.60 28.25 331.60 28.45L331.60 25.10Q333.95 25.15 335.45 24.70Q336.95 24.25 337.78 23.45Q338.60 22.65 338.93 21.63Q339.25 20.60 339.25 19.45Q339.25 18.45 338.93 17.65Q338.60 16.85 338.05 16.28Q337.50 15.70 336.68 15.38Q335.85 15.05 334.90 15.05Q333.90 15.05 332.93 15.30Q331.95 15.55 331.03 16.05Q330.10 16.55 329.25 17.40L326.80 14.90Q328.50 13.05 330.65 12.28Q332.80 11.50 334.90 11.50Q337.55 11.50 339.45 12.50Q341.35 13.50 342.40 15.28Q343.45 17.05 343.45 19.35Q343.45 21 342.88 22.43Q342.30 23.85 341.20 24.88Q340.10 25.90 338.55 26.45Q340.20 26.95 341.55 28Q342.90 29.05 343.68 30.63Q344.45 32.20 344.45 34.35Q344.45 36.85 343.33 38.93Q342.20 41 340.05 42.25Q337.90 43.50 334.75 43.50L334.75 43.50Z"/></g></g></svg>